<svg width="673" height="143" viewBox="0 0 673 143" fill="none" xmlns="http://www.w3.org/2000/svg">
<path d="M267.94 5.22234H271.526L275.42 14.6383V5.55234H274.408V5.22234C274.892 5.22234 273.308 5.22234 276.762 5.22234V5.55234H275.75C275.75 7.35634 275.75 19.0163 275.75 20.4023H275.42L269.282 5.55234V20.0723H270.294V20.4023C268.798 20.4023 269.59 20.4023 267.94 20.4023V20.0723H268.952V5.55234H267.94V5.22234ZM288.717 5.55234H283.943V12.6803C284.405 12.6803 285.901 12.6803 288.123 12.6803C288.629 12.6803 288.827 12.4823 288.827 11.9763H289.157C289.157 12.1963 289.157 12.1963 289.157 13.7803H288.827V13.6703C288.827 13.2523 288.541 13.0103 288.123 13.0103H283.943V20.0723H288.717C289.619 20.0723 290.213 19.4783 290.213 18.5763H290.543C290.543 19.0163 290.543 17.2343 290.543 20.4023H280.731V20.0723C280.841 20.0723 280.951 20.0723 281.743 20.0723V5.55234C281.413 5.55234 281.105 5.55234 280.731 5.55234V5.22234H290.543C290.543 5.66234 290.543 3.88034 290.543 7.04834H290.213C290.213 6.14634 289.619 5.55234 288.717 5.55234ZM300.032 20.4023L295.588 5.55234H294.51V5.22234C296.622 5.22234 296.732 5.22234 298.822 5.22234V5.55234H297.854L301.22 16.6623L304.872 5.22234H305.246L307.842 16.3323L311.274 5.55234H310.328V5.22234C311.714 5.22234 311.296 5.22234 312.682 5.22234V5.55234C312.484 5.55234 312.616 5.55234 311.648 5.55234L306.896 20.4023H306.544L303.948 9.29234L300.384 20.4023H300.032ZM318.58 20.2263C319.988 20.2263 322.166 19.5443 322.166 17.3883C322.166 12.8343 314.928 14.0443 314.928 9.46834C314.928 6.78434 317.392 5.13434 319.812 5.13434C321.11 5.13434 322.32 5.61834 323.332 6.67434C323.332 7.11434 323.332 5.33234 323.332 8.50034H323.002C323.002 6.63034 321.396 5.46434 319.834 5.46434C318.36 5.46434 316.6 6.54234 316.6 8.36834C316.6 12.2403 323.706 10.8763 323.706 16.5303C323.706 18.4663 321.99 20.5563 318.624 20.5563C317.194 20.5563 316.028 20.1603 314.928 19.0163C314.928 18.5763 314.928 20.3583 314.928 17.1903H315.258C315.258 18.9283 316.842 20.2263 318.58 20.2263ZM335.53 18.5763H335.86C335.86 19.0163 335.86 17.2343 335.86 20.4023H327.676V20.0723C327.852 20.0723 327.786 20.0723 328.688 20.0723V5.55234H327.676V5.22234H331.9V5.55234C331.328 5.55234 331.042 5.55234 330.888 5.55234V20.0723C331.724 20.0723 332.428 20.0723 334.034 20.0723C334.936 20.0723 335.53 19.4783 335.53 18.5763ZM347.808 5.55234H343.034V12.6803C343.496 12.6803 344.992 12.6803 347.214 12.6803C347.72 12.6803 347.918 12.4823 347.918 11.9763H348.248C348.248 12.1963 348.248 12.1963 348.248 13.7803H347.918V13.6703C347.918 13.2523 347.632 13.0103 347.214 13.0103H343.034V20.0723H347.808C348.71 20.0723 349.304 19.4783 349.304 18.5763H349.634C349.634 19.0163 349.634 17.2343 349.634 20.4023H339.822V20.0723C339.932 20.0723 340.042 20.0723 340.834 20.0723V5.55234C340.504 5.55234 340.196 5.55234 339.822 5.55234V5.22234H349.634C349.634 5.66234 349.634 3.88034 349.634 7.04834H349.304C349.304 6.14634 348.71 5.55234 347.808 5.55234ZM360.488 5.55234C359.476 5.55234 359.234 5.55234 359.058 5.55234V20.0723H360.07V20.4023C358.684 20.4023 357.232 20.4023 355.846 20.4023V20.0723C355.956 20.0723 356.198 20.0723 356.99 20.0723V5.55234C356.726 5.55234 356.484 5.55234 355.472 5.55234C354.57 5.55234 353.932 6.14634 353.932 7.04834H353.602C353.602 3.88034 353.602 5.66234 353.602 5.22234H362.314C362.314 5.66234 362.314 3.88034 362.314 7.04834H361.984C361.984 6.14634 361.39 5.55234 360.488 5.55234ZM373.15 5.55234C372.138 5.55234 371.896 5.55234 371.72 5.55234V20.0723H372.732V20.4023C371.346 20.4023 369.894 20.4023 368.508 20.4023V20.0723C368.618 20.0723 368.86 20.0723 369.652 20.0723V5.55234C369.388 5.55234 369.146 5.55234 368.134 5.55234C367.232 5.55234 366.594 6.14634 366.594 7.04834H366.264C366.264 3.88034 366.264 5.66234 366.264 5.22234H374.976C374.976 5.66234 374.976 3.88034 374.976 7.04834H374.646C374.646 6.14634 374.052 5.55234 373.15 5.55234ZM386.912 5.55234H382.138V12.6803C382.6 12.6803 384.096 12.6803 386.318 12.6803C386.824 12.6803 387.022 12.4823 387.022 11.9763H387.352C387.352 12.1963 387.352 12.1963 387.352 13.7803H387.022V13.6703C387.022 13.2523 386.736 13.0103 386.318 13.0103H382.138V20.0723H386.912C387.814 20.0723 388.408 19.4783 388.408 18.5763H388.738C388.738 19.0163 388.738 17.2343 388.738 20.4023H378.926V20.0723C379.036 20.0723 379.146 20.0723 379.938 20.0723V5.55234C379.608 5.55234 379.3 5.55234 378.926 5.55234V5.22234H388.738C388.738 5.66234 388.738 3.88034 388.738 7.04834H388.408C388.408 6.14634 387.814 5.55234 386.912 5.55234ZM392.705 5.22234H398.315C400.713 5.22234 402.099 6.93834 402.099 8.69834C402.099 11.0303 400.273 12.2623 398.293 12.6143L400.493 16.2003C401.681 18.1583 402.231 18.7303 402.627 18.7303C402.759 18.7303 402.891 18.6643 403.001 18.5543L403.067 18.6643C402.627 19.7643 402.253 20.4023 401.461 20.4023C400.735 20.4023 400.339 20.0943 398.711 17.4763L395.917 12.9663V20.0723H396.929V20.4023C395.543 20.4023 394.091 20.4023 392.705 20.4023V20.0723C392.815 20.0723 392.925 20.0723 393.717 20.0723V5.55234H392.705V5.22234ZM395.917 5.55234V12.3943C396.247 12.3943 397.061 12.3943 397.105 12.3943C398.381 12.3943 399.899 11.2503 399.899 8.69834C399.899 6.52034 398.579 5.55234 397.105 5.55234H395.917Z" fill="white"/>
<path d="M21.4443 61.6103L18.5643 53.4823C17.3483 52.8423 15.9403 52.4583 14.5963 52.4583C11.4603 52.4583 8.58026 54.4423 8.83626 58.8583C9.54026 70.3143 27.1403 71.0183 27.1403 83.2423C27.1403 92.7783 21.2523 95.7223 15.4923 95.7223C11.2683 95.7223 3.97226 93.0343 1.92426 86.8263L2.05226 86.3783C2.69226 85.6103 4.29226 84.0743 5.06026 84.0743C5.25226 84.0743 5.44426 84.0743 5.63626 84.1383L9.66826 93.4183C10.8203 94.4423 13.7003 95.0823 15.1723 95.0823C19.0763 95.0823 23.8123 93.8023 23.8123 87.7223C23.8123 76.5863 6.59626 75.6263 5.63626 64.0423C4.93226 55.0823 9.22026 51.8183 13.8923 51.8183C18.4363 51.8183 23.8763 54.6983 25.2203 59.2423L25.0923 59.6903C24.2603 60.6503 22.3403 61.8023 21.4443 61.6103ZM54.3263 91.2423C54.3263 95.3383 56.6303 94.8263 56.6303 94.8263V95.3383C50.8063 95.3383 48.5023 96.1063 48.5023 96.1063L48.1183 95.8503L48.8223 91.4343V85.9943C48.1183 89.3863 46.6463 95.6583 42.3583 95.6583C36.5343 95.6583 33.7183 89.8343 33.6543 85.3543V69.9303L30.3263 68.2663V67.8183C32.0543 67.4983 36.7263 66.3463 38.0703 64.8103C38.3903 64.4903 39.1583 65.2583 39.1583 65.2583V85.4183C39.1583 86.8903 39.0943 94.6983 42.3583 94.6983C45.9423 94.6983 48.5023 88.1703 48.8223 82.9223V69.9303L45.4943 68.2663V67.8183C48.6303 67.1783 52.9183 65.3863 53.4303 64.8103C53.7503 64.4903 54.3263 65.2583 54.3263 65.2583V91.2423ZM68.8923 51.7543V84.7143C69.9163 90.1543 73.2443 95.5943 76.6363 95.5943C81.0523 95.5943 81.7563 87.5303 81.7563 82.3463C81.7563 77.0983 81.1803 65.5143 76.2523 65.5143C72.3483 65.5143 73.1803 73.5783 71.1323 73.5783C70.4283 73.5783 69.4683 72.4263 69.0203 71.6583C69.3403 67.8183 73.5003 64.8743 76.9563 64.8743C83.8683 64.8743 87.1323 72.4903 87.1323 80.5543C87.1323 89.1943 82.9723 96.2343 76.8923 96.2343C72.7963 96.2343 70.0443 91.1783 68.8923 86.6343V91.4983C68.8923 91.6263 69.5963 95.5943 69.6603 95.9783L69.2763 96.2343C68.9563 95.5303 61.7243 95.5303 61.1483 95.5303V94.9543C62.3643 95.1463 63.4523 93.8663 63.4523 92.2663V56.2343L60.2523 54.6343V54.2503C62.2363 53.8023 67.8043 51.2423 68.3803 51.2423C68.5083 51.2423 68.8283 51.6263 68.8923 51.7543ZM95.7013 70.2503C95.7013 77.2263 111.253 76.3943 110.869 87.7223C110.613 92.3303 107.541 95.9783 102.869 95.9783C98.6453 95.9783 93.8453 92.9703 92.4373 89.8343L92.5013 89.3223C92.5013 89.3223 94.4853 87.0823 96.0213 87.2103C96.0213 87.2103 100.117 94.5703 100.373 94.6983C102.101 95.2103 103.637 95.4663 104.789 95.1463C107.413 94.4423 108.245 92.5863 108.437 90.9863C109.269 83.3063 93.3333 85.2903 93.3333 73.5143C93.3333 68.5863 96.2133 64.6183 102.101 64.6183C106.069 64.6183 109.205 67.2423 109.781 67.9463V68.4583C109.781 68.4583 107.989 71.3383 106.453 71.6583C106.453 71.6583 101.909 65.2583 101.653 65.2583C98.8373 65.3863 95.7013 66.5383 95.7013 70.2503ZM138.635 87.4023H139.211C137.483 92.8423 133.579 96.1703 128.331 96.1703C121.611 96.1703 115.723 90.7303 115.723 80.4903C115.723 69.7383 122.379 63.8503 130.251 64.9383C135.499 65.5783 137.355 70.1223 137.611 71.1463V71.5943C137.611 71.5943 135.179 74.4743 133.899 74.4743C133.579 74.4743 133.323 74.2823 133.195 73.7063C132.555 69.9303 132.299 66.0903 130.187 65.5143C125.003 64.1063 121.611 71.5303 121.163 79.4663C120.715 87.2743 122.699 94.8263 127.947 95.4663C132.363 95.9783 137.163 92.6503 138.635 87.4023ZM157.604 64.6823C160.868 64.6823 162.084 71.1463 164.26 71.1463C164.452 71.1463 164.708 71.0823 164.964 70.9543L165.156 71.3383C164.452 73.1303 162.724 75.9463 160.996 75.8183C158.244 75.6263 157.796 69.1623 154.468 69.1623C153.572 69.1623 151.908 72.2983 151.332 77.5463V91.4343L152.1 95.9143L151.716 96.1703C151.716 96.1703 149.412 95.4663 143.588 95.4663V94.8903C143.588 94.8903 145.7 95.3383 145.892 91.8823V69.8663L142.692 68.2663V67.8823C145.7 67.2423 149.988 65.4503 150.436 64.9383C150.756 64.5543 151.332 65.3863 151.332 65.3863V74.9223C152.292 70.9543 153.38 64.6823 157.604 64.6823ZM172.619 61.6103C171.019 61.6103 169.739 59.8823 169.739 57.7703C169.739 55.6583 171.019 53.9303 172.619 53.9303C174.219 53.9303 175.499 55.6583 175.499 57.7703C175.499 59.8823 174.219 61.6103 172.619 61.6103ZM175.435 91.3703L176.203 95.8503L175.819 96.1703C175.819 96.1703 173.451 95.4023 167.691 95.4023V94.8263C167.691 94.8263 169.995 95.4023 169.995 91.3063V69.7383L166.731 68.2023C165.771 68.2023 164.875 67.9463 164.043 67.4983L164.107 67.1783C164.939 67.6263 165.835 67.8183 166.795 67.7543C169.803 67.1143 172.107 65.3863 172.555 64.8103C172.875 64.4903 175.435 65.2583 175.435 65.2583V91.3703ZM189.617 51.7543V84.7143C190.641 90.1543 193.969 95.5943 197.361 95.5943C201.777 95.5943 202.481 87.5303 202.481 82.3463C202.481 77.0983 201.905 65.5143 196.977 65.5143C193.073 65.5143 193.905 73.5783 191.857 73.5783C191.153 73.5783 190.193 72.4263 189.745 71.6583C190.065 67.8183 194.225 64.8743 197.681 64.8743C204.593 64.8743 207.857 72.4903 207.857 80.5543C207.857 89.1943 203.697 96.2343 197.617 96.2343C193.521 96.2343 190.769 91.1783 189.617 86.6343V91.4983C189.617 91.6263 190.321 95.5943 190.385 95.9783L190.001 96.2343C189.681 95.5303 182.449 95.5303 181.873 95.5303V94.9543C183.089 95.1463 184.177 93.8663 184.177 92.2663V56.2343L180.977 54.6343V54.2503C182.961 53.8023 188.529 51.2423 189.105 51.2423C189.233 51.2423 189.553 51.6263 189.617 51.7543ZM226.785 72.6183C232.161 73.7703 236.257 78.5063 236.257 84.9703C236.193 91.7543 231.841 96.1703 226.273 96.1703C218.529 96.1703 213.089 90.0263 213.089 80.4903C213.089 70.8903 218.209 64.8103 226.017 64.8103C228.385 64.8103 234.913 67.7543 234.977 71.5943C234.401 72.4263 233.313 73.4503 232.481 73.4503C231.969 73.4503 231.649 73.1303 231.393 72.6183H226.785ZM226.081 65.3223C223.009 65.3223 221.025 68.2663 219.873 71.9783H231.073C230.177 69.6103 229.729 65.3223 226.081 65.3223ZM219.681 72.6183C218.849 75.6903 218.465 79.1463 218.465 81.7703C218.465 89.0663 221.409 95.5303 226.721 95.5303C231.649 95.5303 235.809 91.0503 235.809 84.9703C235.809 78.4423 230.817 72.6183 224.161 72.6183H219.681ZM252.017 51.1143H277.297V55.9143L275.441 61.6103H275.121C274.865 59.4343 273.457 53.0983 271.857 51.8183H267.313C267.313 65.0023 267.313 78.1863 267.313 91.4343L268.273 95.8503L267.761 96.1703C267.761 96.1703 264.817 95.4023 259.761 95.4023V94.8263C259.761 94.8263 261.489 95.2743 262.001 92.5223C262.001 79.5303 262.001 64.7463 262.001 51.8183H257.393C255.793 53.0983 254.001 59.2423 253.745 61.4183H253.425L252.017 55.9143V51.1143ZM291.204 64.8103C298.244 64.8103 303.62 71.0823 303.62 80.4903C303.62 89.8343 298.244 96.1703 291.204 96.1703C284.1 96.1703 278.788 89.8343 278.788 80.4903C278.788 71.0823 284.1 64.8103 291.204 64.8103ZM298.18 81.4503C298.692 72.4903 296.26 66.0903 292.036 65.4503C287.876 64.8743 284.74 70.5063 284.228 79.4663C283.716 88.4903 286.212 94.8903 290.372 95.4663C294.596 96.0423 297.668 90.4103 298.18 81.4503ZM338.021 51.8183C348.005 51.8183 354.917 60.7143 354.917 74.0263C354.917 87.3383 348.005 96.2983 338.021 96.2983C327.973 96.2983 321.189 87.3383 321.189 74.0263C321.189 60.7143 327.973 51.8183 338.021 51.8183ZM336.677 95.5943C343.781 96.4263 348.837 86.1863 349.541 75.4343C350.309 64.1703 346.597 53.3543 339.493 52.5223C332.389 51.6903 327.205 62.1863 326.501 72.6183C325.797 83.8823 329.637 94.7623 336.677 95.5943ZM382.911 91.2423C382.911 95.3383 385.215 94.8263 385.215 94.8263V95.3383C379.391 95.3383 377.087 96.1063 377.087 96.1063L376.703 95.8503L377.407 91.4343V85.9943C376.703 89.3863 375.231 95.6583 370.943 95.6583C365.119 95.6583 362.303 89.8343 362.239 85.3543V69.9303L358.911 68.2663V67.8183C360.639 67.4983 365.311 66.3463 366.655 64.8103C366.975 64.4903 367.743 65.2583 367.743 65.2583V85.4183C367.743 86.8903 367.679 94.6983 370.943 94.6983C374.527 94.6983 377.087 88.1703 377.407 82.9223V69.9303L374.079 68.2663V67.8183C377.215 67.1783 381.503 65.3863 382.015 64.8103C382.335 64.4903 382.911 65.2583 382.911 65.2583V91.2423ZM404.179 64.6823C407.443 64.6823 408.659 71.1463 410.835 71.1463C411.027 71.1463 411.283 71.0823 411.539 70.9543L411.731 71.3383C411.027 73.1303 409.299 75.9463 407.571 75.8183C404.819 75.6263 404.371 69.1623 401.043 69.1623C400.147 69.1623 398.483 72.2983 397.907 77.5463V91.4343L398.675 95.9143L398.291 96.1703C398.291 96.1703 395.987 95.4663 390.163 95.4663V94.8903C390.163 94.8903 392.275 95.3383 392.467 91.8823V69.8663L389.267 68.2663V67.8823C392.275 67.2423 396.563 65.4503 397.011 64.9383C397.331 64.5543 397.907 65.3863 397.907 65.3863V74.9223C398.867 70.9543 399.955 64.6823 404.179 64.6823ZM451.884 87.0183C451.884 87.7223 451.884 92.6503 452.076 92.9063L454.252 96.2343L453.932 96.8103C452.652 96.1703 445.74 96.0423 444.332 96.0423H441.836V95.5303C443.756 95.7223 448.556 94.4423 450.412 91.6903L432.108 57.6423V81.9623C432.108 82.7303 432.108 87.3383 432.492 89.0663C432.94 90.6663 434.476 94.8903 436.14 96.2343L435.82 96.8103C434.54 96.1703 429.804 96.0423 428.396 96.0423H427.756V95.5303C429.74 95.7223 431.596 91.4983 431.596 85.3543V56.9383L427.436 55.2103V54.7623C430.444 54.1863 434.028 51.8823 434.54 51.3703C434.86 50.9863 435.436 51.7543 435.436 51.7543L436.012 53.1623L451.18 81.3223L451.372 61.5463C451.372 54.2503 449.58 52.3303 439.468 52.3943V51.8823C441.004 51.8823 452.588 51.8183 453.932 51.1143L454.316 51.6903C451.628 56.0423 451.884 57.5143 451.884 61.9943V87.0183ZM471.985 72.6183C477.361 73.7703 481.457 78.5063 481.457 84.9703C481.393 91.7543 477.041 96.1703 471.473 96.1703C463.729 96.1703 458.289 90.0263 458.289 80.4903C458.289 70.8903 463.409 64.8103 471.217 64.8103C473.585 64.8103 480.113 67.7543 480.177 71.5943C479.601 72.4263 478.513 73.4503 477.681 73.4503C477.169 73.4503 476.849 73.1303 476.593 72.6183H471.985ZM471.281 65.3223C468.209 65.3223 466.225 68.2663 465.073 71.9783H476.273C475.377 69.6103 474.929 65.3223 471.281 65.3223ZM464.881 72.6183C464.049 75.6903 463.665 79.1463 463.665 81.7703C463.665 89.0663 466.609 95.5303 471.921 95.5303C476.849 95.5303 481.009 91.0503 481.009 84.9703C481.009 78.4423 476.017 72.6183 469.361 72.6183H464.881ZM518.832 65.1943C519.28 66.0903 520.496 66.7303 518.576 76.9063C516.784 82.6023 514.992 88.4263 513.264 94.1223L514.544 96.0423L514.16 96.6183C512.368 95.7223 504.304 95.8503 504.304 95.8503V95.2743C504.304 95.2743 506.16 95.7863 506.544 92.7143C505.52 89.2583 504.432 85.8663 503.408 82.4103C502.192 86.3143 500.976 90.2823 499.76 94.1223L501.04 96.0423L500.72 96.6183C498.864 95.7223 490.8 95.8503 490.8 95.8503V95.2743C490.8 95.2743 492.72 95.7863 493.04 92.7143C490.864 85.3543 488.56 77.9943 486.32 70.6343L483.248 70.3143L483.184 69.9303C486.384 68.4583 489.264 65.5143 489.648 64.8103C489.904 64.2983 490.672 64.8743 490.672 64.8743L498.8 92.5863L499.44 93.5463L503.152 81.5783C502 77.9303 500.912 74.2823 499.824 70.6343L496.752 70.3143L496.624 69.9303C499.824 68.4583 502.768 65.5143 503.152 64.8103C503.344 64.2983 504.176 64.8743 504.176 64.8743L512.24 92.5863L512.88 93.5463L517.296 79.4663C517.872 76.0103 513.968 68.2663 514.096 67.8823C514.864 65.7703 518.512 65.0663 518.512 65.0663L518.832 65.1943ZM526.154 70.2503C526.154 77.2263 541.706 76.3943 541.322 87.7223C541.066 92.3303 537.994 95.9783 533.322 95.9783C529.098 95.9783 524.298 92.9703 522.89 89.8343L522.954 89.3223C522.954 89.3223 524.938 87.0823 526.474 87.2103C526.474 87.2103 530.57 94.5703 530.826 94.6983C532.554 95.2103 534.09 95.4663 535.242 95.1463C537.866 94.4423 538.698 92.5863 538.89 90.9863C539.722 83.3063 523.786 85.2903 523.786 73.5143C523.786 68.5863 526.666 64.6183 532.554 64.6183C536.522 64.6183 539.658 67.2423 540.234 67.9463V68.4583C540.234 68.4583 538.442 71.3383 536.906 71.6583C536.906 71.6583 532.362 65.2583 532.106 65.2583C529.29 65.3863 526.154 66.5383 526.154 70.2503ZM553.159 92.0103L553.799 95.9143L553.415 96.1703C553.415 96.1703 551.175 95.4023 545.351 95.4023V94.8903C545.351 94.8903 547.655 95.4023 547.655 91.3063V56.1063L544.519 54.5703V54.1863C547.591 53.5463 551.495 51.8823 552.199 51.2423C552.519 50.9223 553.159 51.6903 553.159 51.6903V54.2503C553.159 66.8583 553.159 79.4023 553.159 92.0103ZM572.665 72.6183C578.041 73.7703 582.137 78.5063 582.137 84.9703C582.073 91.7543 577.721 96.1703 572.153 96.1703C564.409 96.1703 558.969 90.0263 558.969 80.4903C558.969 70.8903 564.089 64.8103 571.897 64.8103C574.265 64.8103 580.793 67.7543 580.857 71.5943C580.281 72.4263 579.193 73.4503 578.361 73.4503C577.849 73.4503 577.529 73.1303 577.273 72.6183H572.665ZM571.961 65.3223C568.889 65.3223 566.905 68.2663 565.753 71.9783H576.953C576.057 69.6103 575.609 65.3223 571.961 65.3223ZM565.561 72.6183C564.729 75.6903 564.345 79.1463 564.345 81.7703C564.345 89.0663 567.289 95.5303 572.601 95.5303C577.529 95.5303 581.689 91.0503 581.689 84.9703C581.689 78.4423 576.697 72.6183 570.041 72.6183H565.561ZM600.676 85.4183H601.06C602.404 90.4743 600.676 96.1703 595.876 96.1703C591.844 96.1703 588.516 92.6503 588.516 85.4823V65.4503H584.42V64.8103H584.612C592.42 64.4263 590.372 54.8903 590.372 54.8903C591.332 52.8423 594.212 52.3943 594.212 52.3943L594.596 52.5863C595.044 53.5463 594.852 62.4423 587.556 64.8103H599.46V65.4503H593.892L593.956 86.5063C593.956 91.8183 593.892 95.7223 597.22 95.2103C600.548 94.6343 601.892 90.4103 600.676 85.4183ZM618.659 85.4183H619.043C620.387 90.4743 618.659 96.1703 613.859 96.1703C609.827 96.1703 606.499 92.6503 606.499 85.4823V65.4503H602.403V64.8103H602.595C610.403 64.4263 608.355 54.8903 608.355 54.8903C609.315 52.8423 612.195 52.3943 612.195 52.3943L612.579 52.5863C613.027 53.5463 612.835 62.4423 605.539 64.8103H617.443V65.4503H611.875L611.939 86.5063C611.939 91.8183 611.875 95.7223 615.203 95.2103C618.531 94.6343 619.875 90.4103 618.659 85.4183ZM637.05 72.6183C642.426 73.7703 646.522 78.5063 646.522 84.9703C646.458 91.7543 642.106 96.1703 636.538 96.1703C628.794 96.1703 623.354 90.0263 623.354 80.4903C623.354 70.8903 628.474 64.8103 636.282 64.8103C638.65 64.8103 645.178 67.7543 645.242 71.5943C644.666 72.4263 643.578 73.4503 642.746 73.4503C642.234 73.4503 641.914 73.1303 641.658 72.6183H637.05ZM636.346 65.3223C633.274 65.3223 631.29 68.2663 630.138 71.9783H641.338C640.442 69.6103 639.994 65.3223 636.346 65.3223ZM629.946 72.6183C629.114 75.6903 628.73 79.1463 628.73 81.7703C628.73 89.0663 631.674 95.5303 636.986 95.5303C641.914 95.5303 646.074 91.0503 646.074 84.9703C646.074 78.4423 641.082 72.6183 634.426 72.6183H629.946ZM664.862 64.6823C668.126 64.6823 669.342 71.1463 671.518 71.1463C671.71 71.1463 671.966 71.0823 672.222 70.9543L672.414 71.3383C671.71 73.1303 669.982 75.9463 668.254 75.8183C665.502 75.6263 665.054 69.1623 661.726 69.1623C660.83 69.1623 659.166 72.2983 658.59 77.5463V91.4343L659.358 95.9143L658.974 96.1703C658.974 96.1703 656.67 95.4663 650.846 95.4663V94.8903C650.846 94.8903 652.958 95.3383 653.15 91.8823V69.8663L649.95 68.2663V67.8823C652.958 67.2423 657.246 65.4503 657.694 64.9383C658.014 64.5543 658.59 65.3863 658.59 65.3863V74.9223C659.55 70.9543 660.638 64.6823 664.862 64.6823Z" fill="#DCCA87"/>
<path d="M210.997 138.402H209.52L213.792 126.766H215.247L219.52 138.402H218.042L214.565 128.607H214.474L210.997 138.402ZM211.542 133.857H217.497V135.107H211.542V133.857ZM223.131 133.152V138.402H221.79V129.675H223.086V131.039H223.199C223.404 130.596 223.715 130.239 224.131 129.971C224.548 129.698 225.086 129.561 225.745 129.561C226.336 129.561 226.853 129.683 227.296 129.925C227.739 130.164 228.084 130.527 228.33 131.016C228.576 131.501 228.699 132.114 228.699 132.857V138.402H227.359V132.948C227.359 132.262 227.181 131.728 226.824 131.346C226.468 130.959 225.98 130.766 225.359 130.766C224.931 130.766 224.548 130.859 224.211 131.044C223.878 131.23 223.614 131.501 223.421 131.857C223.228 132.213 223.131 132.645 223.131 133.152ZM235.085 138.584C234.358 138.584 233.716 138.4 233.159 138.033C232.602 137.662 232.167 137.139 231.852 136.465C231.538 135.787 231.381 134.986 231.381 134.061C231.381 133.145 231.538 132.349 231.852 131.675C232.167 131.001 232.604 130.48 233.165 130.113C233.725 129.745 234.373 129.561 235.108 129.561C235.676 129.561 236.125 129.656 236.455 129.846C236.788 130.031 237.042 130.243 237.216 130.482C237.394 130.717 237.532 130.91 237.631 131.061H237.744V126.766H239.085V138.402H237.79V137.061H237.631C237.532 137.221 237.392 137.421 237.21 137.664C237.028 137.902 236.769 138.116 236.432 138.306C236.095 138.491 235.646 138.584 235.085 138.584ZM235.267 137.38C235.805 137.38 236.259 137.239 236.631 136.959C237.002 136.675 237.284 136.283 237.477 135.783C237.67 135.279 237.767 134.698 237.767 134.039C237.767 133.387 237.672 132.817 237.483 132.328C237.294 131.836 237.013 131.453 236.642 131.181C236.271 130.904 235.813 130.766 235.267 130.766C234.699 130.766 234.225 130.912 233.847 131.203C233.472 131.491 233.189 131.883 233 132.38C232.814 132.872 232.722 133.425 232.722 134.039C232.722 134.66 232.816 135.224 233.006 135.732C233.199 136.236 233.483 136.637 233.858 136.936C234.237 137.232 234.706 137.38 235.267 137.38ZM248.848 133.152V138.402H247.507V129.675H248.803V131.039H248.916C249.121 130.596 249.432 130.239 249.848 129.971C250.265 129.698 250.803 129.561 251.462 129.561C252.053 129.561 252.57 129.683 253.013 129.925C253.456 130.164 253.801 130.527 254.047 131.016C254.293 131.501 254.416 132.114 254.416 132.857V138.402H253.075V132.948C253.075 132.262 252.897 131.728 252.541 131.346C252.185 130.959 251.697 130.766 251.075 130.766C250.647 130.766 250.265 130.859 249.928 131.044C249.594 131.23 249.331 131.501 249.138 131.857C248.945 132.213 248.848 132.645 248.848 133.152ZM261.166 138.584C260.325 138.584 259.599 138.399 258.99 138.027C258.384 137.652 257.916 137.13 257.586 136.459C257.26 135.785 257.098 135.001 257.098 134.107C257.098 133.213 257.26 132.425 257.586 131.743C257.916 131.058 258.374 130.524 258.961 130.141C259.552 129.755 260.241 129.561 261.029 129.561C261.484 129.561 261.933 129.637 262.376 129.789C262.819 129.94 263.223 130.186 263.586 130.527C263.95 130.864 264.24 131.311 264.456 131.868C264.671 132.425 264.779 133.111 264.779 133.925V134.493H258.052V133.334H263.416C263.416 132.842 263.317 132.402 263.12 132.016C262.927 131.63 262.651 131.325 262.291 131.101C261.935 130.878 261.514 130.766 261.029 130.766C260.495 130.766 260.033 130.899 259.643 131.164C259.257 131.425 258.959 131.766 258.751 132.186C258.543 132.607 258.438 133.058 258.438 133.539V134.311C258.438 134.971 258.552 135.529 258.779 135.988C259.01 136.442 259.331 136.789 259.74 137.027C260.149 137.262 260.624 137.38 261.166 137.38C261.518 137.38 261.836 137.33 262.12 137.232C262.408 137.13 262.656 136.978 262.865 136.777C263.073 136.573 263.234 136.319 263.348 136.016L264.643 136.38C264.507 136.819 264.277 137.205 263.956 137.539C263.634 137.868 263.236 138.126 262.762 138.311C262.289 138.493 261.757 138.584 261.166 138.584ZM274.33 129.675L271.103 138.402H269.739L266.512 129.675H267.966L270.375 136.63H270.466L272.875 129.675H274.33ZM280.086 138.584C279.245 138.584 278.52 138.399 277.91 138.027C277.304 137.652 276.836 137.13 276.507 136.459C276.181 135.785 276.018 135.001 276.018 134.107C276.018 133.213 276.181 132.425 276.507 131.743C276.836 131.058 277.295 130.524 277.882 130.141C278.473 129.755 279.162 129.561 279.95 129.561C280.405 129.561 280.853 129.637 281.297 129.789C281.74 129.94 282.143 130.186 282.507 130.527C282.87 130.864 283.16 131.311 283.376 131.868C283.592 132.425 283.7 133.111 283.7 133.925V134.493H276.973V133.334H282.336C282.336 132.842 282.238 132.402 282.041 132.016C281.848 131.63 281.571 131.325 281.211 131.101C280.855 130.878 280.435 130.766 279.95 130.766C279.416 130.766 278.954 130.899 278.564 131.164C278.177 131.425 277.88 131.766 277.672 132.186C277.463 132.607 277.359 133.058 277.359 133.539V134.311C277.359 134.971 277.473 135.529 277.7 135.988C277.931 136.442 278.251 136.789 278.66 137.027C279.069 137.262 279.545 137.38 280.086 137.38C280.439 137.38 280.757 137.33 281.041 137.232C281.329 137.13 281.577 136.978 281.785 136.777C281.994 136.573 282.155 136.319 282.268 136.016L283.564 136.38C283.427 136.819 283.198 137.205 282.876 137.539C282.554 137.868 282.156 138.126 281.683 138.311C281.209 138.493 280.677 138.584 280.086 138.584ZM286.38 138.402V129.675H287.675V130.993H287.766C287.925 130.561 288.213 130.211 288.63 129.942C289.046 129.673 289.516 129.539 290.039 129.539C290.137 129.539 290.26 129.541 290.408 129.544C290.556 129.548 290.668 129.554 290.743 129.561V130.925C290.698 130.914 290.594 130.897 290.431 130.874C290.272 130.847 290.103 130.834 289.925 130.834C289.501 130.834 289.122 130.923 288.789 131.101C288.459 131.275 288.198 131.518 288.005 131.828C287.815 132.135 287.721 132.486 287.721 132.88V138.402H286.38ZM298.113 138.402V129.675H299.408V131.039H299.522C299.704 130.573 299.997 130.211 300.403 129.953C300.808 129.692 301.295 129.561 301.863 129.561C302.439 129.561 302.918 129.692 303.3 129.953C303.687 130.211 303.988 130.573 304.204 131.039H304.295C304.518 130.588 304.853 130.23 305.3 129.965C305.747 129.696 306.283 129.561 306.908 129.561C307.689 129.561 308.327 129.806 308.823 130.294C309.319 130.779 309.567 131.535 309.567 132.561V138.402H308.227V132.561C308.227 131.917 308.05 131.457 307.698 131.181C307.346 130.904 306.931 130.766 306.454 130.766C305.84 130.766 305.365 130.952 305.028 131.323C304.691 131.69 304.522 132.156 304.522 132.721V138.402H303.158V132.425C303.158 131.929 302.997 131.529 302.675 131.226C302.353 130.919 301.939 130.766 301.431 130.766C301.083 130.766 300.757 130.859 300.454 131.044C300.155 131.23 299.912 131.488 299.727 131.817C299.545 132.143 299.454 132.52 299.454 132.948V138.402H298.113ZM312.659 138.402V129.675H314V138.402H312.659ZM313.341 128.221C313.08 128.221 312.854 128.132 312.665 127.953C312.479 127.775 312.386 127.561 312.386 127.311C312.386 127.061 312.479 126.847 312.665 126.669C312.854 126.491 313.08 126.402 313.341 126.402C313.602 126.402 313.826 126.491 314.011 126.669C314.201 126.847 314.296 127.061 314.296 127.311C314.296 127.561 314.201 127.775 314.011 127.953C313.826 128.132 313.602 128.221 313.341 128.221ZM323.278 131.63L322.073 131.971C321.998 131.77 321.886 131.575 321.738 131.385C321.594 131.192 321.397 131.033 321.147 130.908C320.897 130.783 320.577 130.721 320.187 130.721C319.653 130.721 319.208 130.844 318.852 131.09C318.499 131.332 318.323 131.641 318.323 132.016C318.323 132.349 318.445 132.613 318.687 132.806C318.929 132.999 319.308 133.16 319.823 133.289L321.119 133.607C321.899 133.796 322.48 134.086 322.863 134.476C323.246 134.863 323.437 135.361 323.437 135.971C323.437 136.471 323.293 136.917 323.005 137.311C322.721 137.705 322.323 138.016 321.812 138.243C321.301 138.471 320.706 138.584 320.028 138.584C319.138 138.584 318.401 138.391 317.818 138.005C317.234 137.618 316.865 137.054 316.71 136.311L317.982 135.993C318.104 136.463 318.333 136.815 318.67 137.05C319.011 137.285 319.456 137.402 320.005 137.402C320.63 137.402 321.126 137.27 321.494 137.005C321.865 136.736 322.051 136.414 322.051 136.039C322.051 135.736 321.945 135.482 321.732 135.277C321.52 135.069 321.195 134.914 320.755 134.811L319.301 134.471C318.501 134.281 317.914 133.988 317.539 133.59C317.168 133.188 316.982 132.686 316.982 132.084C316.982 131.592 317.121 131.156 317.397 130.777C317.677 130.399 318.058 130.101 318.539 129.885C319.024 129.669 319.573 129.561 320.187 129.561C321.051 129.561 321.729 129.751 322.221 130.13C322.717 130.508 323.07 131.008 323.278 131.63ZM332.277 131.63L331.073 131.971C330.997 131.77 330.885 131.575 330.737 131.385C330.594 131.192 330.397 131.033 330.147 130.908C329.897 130.783 329.576 130.721 329.186 130.721C328.652 130.721 328.207 130.844 327.851 131.09C327.499 131.332 327.323 131.641 327.323 132.016C327.323 132.349 327.444 132.613 327.686 132.806C327.929 132.999 328.308 133.16 328.823 133.289L330.118 133.607C330.898 133.796 331.48 134.086 331.862 134.476C332.245 134.863 332.436 135.361 332.436 135.971C332.436 136.471 332.292 136.917 332.004 137.311C331.72 137.705 331.323 138.016 330.811 138.243C330.3 138.471 329.705 138.584 329.027 138.584C328.137 138.584 327.4 138.391 326.817 138.005C326.234 137.618 325.864 137.054 325.709 136.311L326.982 135.993C327.103 136.463 327.332 136.815 327.669 137.05C328.01 137.285 328.455 137.402 329.004 137.402C329.629 137.402 330.126 137.27 330.493 137.005C330.864 136.736 331.05 136.414 331.05 136.039C331.05 135.736 330.944 135.482 330.732 135.277C330.52 135.069 330.194 134.914 329.754 134.811L328.3 134.471C327.501 134.281 326.914 133.988 326.539 133.59C326.167 133.188 325.982 132.686 325.982 132.084C325.982 131.592 326.12 131.156 326.397 130.777C326.677 130.399 327.058 130.101 327.539 129.885C328.023 129.669 328.573 129.561 329.186 129.561C330.05 129.561 330.728 129.751 331.22 130.13C331.717 130.508 332.069 131.008 332.277 131.63ZM341.576 126.766V138.402H340.235V126.766H341.576ZM347.24 138.607C346.687 138.607 346.185 138.503 345.734 138.294C345.283 138.082 344.925 137.777 344.66 137.38C344.395 136.978 344.263 136.493 344.263 135.925C344.263 135.425 344.361 135.02 344.558 134.709C344.755 134.395 345.018 134.149 345.348 133.971C345.677 133.792 346.041 133.66 346.439 133.573C346.84 133.482 347.244 133.41 347.649 133.357C348.179 133.289 348.609 133.238 348.939 133.203C349.272 133.166 349.514 133.103 349.666 133.016C349.821 132.929 349.899 132.777 349.899 132.561V132.516C349.899 131.955 349.746 131.52 349.439 131.209C349.136 130.899 348.675 130.743 348.058 130.743C347.418 130.743 346.916 130.883 346.552 131.164C346.189 131.444 345.933 131.743 345.785 132.061L344.513 131.607C344.74 131.077 345.043 130.664 345.422 130.368C345.804 130.069 346.221 129.861 346.672 129.743C347.126 129.622 347.573 129.561 348.013 129.561C348.293 129.561 348.615 129.596 348.978 129.664C349.346 129.728 349.7 129.863 350.041 130.067C350.386 130.272 350.672 130.58 350.899 130.993C351.126 131.406 351.24 131.959 351.24 132.652V138.402H349.899V137.221H349.831C349.74 137.41 349.588 137.613 349.376 137.828C349.164 138.044 348.882 138.228 348.53 138.38C348.177 138.531 347.747 138.607 347.24 138.607ZM347.444 137.402C347.975 137.402 348.422 137.298 348.785 137.09C349.153 136.882 349.429 136.613 349.615 136.283C349.804 135.953 349.899 135.607 349.899 135.243V134.016C349.842 134.084 349.717 134.147 349.524 134.203C349.335 134.257 349.115 134.304 348.865 134.346C348.619 134.383 348.378 134.417 348.143 134.448C347.912 134.474 347.725 134.497 347.581 134.516C347.232 134.561 346.907 134.635 346.603 134.738C346.304 134.836 346.062 134.986 345.876 135.186C345.694 135.383 345.603 135.652 345.603 135.993C345.603 136.459 345.776 136.811 346.121 137.05C346.469 137.285 346.91 137.402 347.444 137.402ZM358.123 129.675V130.811H353.6V129.675H358.123ZM354.918 127.584H356.259V135.902C356.259 136.281 356.314 136.565 356.424 136.755C356.538 136.94 356.681 137.065 356.856 137.13C357.034 137.19 357.221 137.221 357.418 137.221C357.566 137.221 357.687 137.213 357.782 137.198C357.877 137.179 357.952 137.164 358.009 137.152L358.282 138.357C358.191 138.391 358.064 138.425 357.901 138.459C357.738 138.497 357.532 138.516 357.282 138.516C356.903 138.516 356.532 138.435 356.168 138.272C355.808 138.109 355.509 137.861 355.27 137.527C355.036 137.194 354.918 136.774 354.918 136.266V127.584ZM364.345 138.584C363.504 138.584 362.779 138.399 362.169 138.027C361.563 137.652 361.095 137.13 360.766 136.459C360.44 135.785 360.277 135.001 360.277 134.107C360.277 133.213 360.44 132.425 360.766 131.743C361.095 131.058 361.553 130.524 362.141 130.141C362.731 129.755 363.421 129.561 364.209 129.561C364.663 129.561 365.112 129.637 365.555 129.789C365.999 129.94 366.402 130.186 366.766 130.527C367.129 130.864 367.419 131.311 367.635 131.868C367.851 132.425 367.959 133.111 367.959 133.925V134.493H361.231V133.334H366.595C366.595 132.842 366.497 132.402 366.3 132.016C366.106 131.63 365.83 131.325 365.47 131.101C365.114 130.878 364.694 130.766 364.209 130.766C363.675 130.766 363.213 130.899 362.822 131.164C362.436 131.425 362.139 131.766 361.93 132.186C361.722 132.607 361.618 133.058 361.618 133.539V134.311C361.618 134.971 361.731 135.529 361.959 135.988C362.19 136.442 362.51 136.789 362.919 137.027C363.328 137.262 363.803 137.38 364.345 137.38C364.697 137.38 365.016 137.33 365.3 137.232C365.588 137.13 365.836 136.978 366.044 136.777C366.252 136.573 366.413 136.319 366.527 136.016L367.822 136.38C367.686 136.819 367.457 137.205 367.135 137.539C366.813 137.868 366.415 138.126 365.942 138.311C365.468 138.493 364.936 138.584 364.345 138.584ZM376.82 131.63L375.616 131.971C375.54 131.77 375.428 131.575 375.281 131.385C375.137 131.192 374.94 131.033 374.69 130.908C374.44 130.783 374.12 130.721 373.729 130.721C373.195 130.721 372.75 130.844 372.394 131.09C372.042 131.332 371.866 131.641 371.866 132.016C371.866 132.349 371.987 132.613 372.229 132.806C372.472 132.999 372.851 133.16 373.366 133.289L374.661 133.607C375.442 133.796 376.023 134.086 376.406 134.476C376.788 134.863 376.979 135.361 376.979 135.971C376.979 136.471 376.835 136.917 376.548 137.311C376.264 137.705 375.866 138.016 375.354 138.243C374.843 138.471 374.248 138.584 373.57 138.584C372.68 138.584 371.943 138.391 371.36 138.005C370.777 137.618 370.407 137.054 370.252 136.311L371.525 135.993C371.646 136.463 371.875 136.815 372.212 137.05C372.553 137.285 372.998 137.402 373.548 137.402C374.173 137.402 374.669 137.27 375.036 137.005C375.407 136.736 375.593 136.414 375.593 136.039C375.593 135.736 375.487 135.482 375.275 135.277C375.063 135.069 374.737 134.914 374.298 134.811L372.843 134.471C372.044 134.281 371.457 133.988 371.082 133.59C370.71 133.188 370.525 132.686 370.525 132.084C370.525 131.592 370.663 131.156 370.94 130.777C371.22 130.399 371.601 130.101 372.082 129.885C372.567 129.669 373.116 129.561 373.729 129.561C374.593 129.561 375.271 129.751 375.764 130.13C376.26 130.508 376.612 131.008 376.82 131.63ZM383.433 129.675V130.811H378.911V129.675H383.433ZM380.229 127.584H381.57V135.902C381.57 136.281 381.625 136.565 381.734 136.755C381.848 136.94 381.992 137.065 382.166 137.13C382.344 137.19 382.532 137.221 382.729 137.221C382.877 137.221 382.998 137.213 383.092 137.198C383.187 137.179 383.263 137.164 383.32 137.152L383.592 138.357C383.502 138.391 383.375 138.425 383.212 138.459C383.049 138.497 382.842 138.516 382.592 138.516C382.214 138.516 381.842 138.435 381.479 138.272C381.119 138.109 380.82 137.861 380.581 137.527C380.346 137.194 380.229 136.774 380.229 136.266V127.584ZM399.049 126.766H400.458V134.471C400.458 135.266 400.27 135.976 399.895 136.601C399.524 137.222 398.999 137.713 398.321 138.073C397.643 138.429 396.848 138.607 395.935 138.607C395.022 138.607 394.227 138.429 393.549 138.073C392.871 137.713 392.344 137.222 391.969 136.601C391.598 135.976 391.412 135.266 391.412 134.471V126.766H392.821V134.357C392.821 134.925 392.946 135.431 393.196 135.874C393.446 136.313 393.802 136.66 394.264 136.914C394.73 137.164 395.287 137.289 395.935 137.289C396.583 137.289 397.139 137.164 397.605 136.914C398.071 136.66 398.427 136.313 398.674 135.874C398.924 135.431 399.049 134.925 399.049 134.357V126.766ZM403.73 141.675V129.675H405.025V131.061H405.184C405.283 130.91 405.419 130.717 405.593 130.482C405.771 130.243 406.025 130.031 406.355 129.846C406.688 129.656 407.139 129.561 407.707 129.561C408.442 129.561 409.09 129.745 409.65 130.113C410.211 130.48 410.648 131.001 410.963 131.675C411.277 132.349 411.434 133.145 411.434 134.061C411.434 134.986 411.277 135.787 410.963 136.465C410.648 137.139 410.213 137.662 409.656 138.033C409.099 138.4 408.457 138.584 407.73 138.584C407.169 138.584 406.72 138.491 406.383 138.306C406.046 138.116 405.787 137.902 405.605 137.664C405.423 137.421 405.283 137.221 405.184 137.061H405.071V141.675H403.73ZM405.048 134.039C405.048 134.698 405.145 135.279 405.338 135.783C405.531 136.283 405.813 136.675 406.184 136.959C406.556 137.239 407.01 137.38 407.548 137.38C408.109 137.38 408.576 137.232 408.951 136.936C409.33 136.637 409.614 136.236 409.804 135.732C409.997 135.224 410.093 134.66 410.093 134.039C410.093 133.425 409.999 132.872 409.809 132.38C409.624 131.883 409.342 131.491 408.963 131.203C408.588 130.912 408.116 130.766 407.548 130.766C407.003 130.766 406.544 130.904 406.173 131.181C405.802 131.453 405.521 131.836 405.332 132.328C405.143 132.817 405.048 133.387 405.048 134.039ZM417.415 138.584C416.688 138.584 416.046 138.4 415.489 138.033C414.932 137.662 414.497 137.139 414.182 136.465C413.868 135.787 413.711 134.986 413.711 134.061C413.711 133.145 413.868 132.349 414.182 131.675C414.497 131.001 414.934 130.48 415.495 130.113C416.055 129.745 416.703 129.561 417.438 129.561C418.006 129.561 418.455 129.656 418.785 129.846C419.118 130.031 419.372 130.243 419.546 130.482C419.724 130.717 419.862 130.91 419.961 131.061H420.074V126.766H421.415V138.402H420.12V137.061H419.961C419.862 137.221 419.722 137.421 419.54 137.664C419.358 137.902 419.099 138.116 418.762 138.306C418.425 138.491 417.976 138.584 417.415 138.584ZM417.597 137.38C418.135 137.38 418.589 137.239 418.961 136.959C419.332 136.675 419.614 136.283 419.807 135.783C420 135.279 420.097 134.698 420.097 134.039C420.097 133.387 420.002 132.817 419.813 132.328C419.624 131.836 419.343 131.453 418.972 131.181C418.601 130.904 418.143 130.766 417.597 130.766C417.029 130.766 416.555 130.912 416.177 131.203C415.802 131.491 415.519 131.883 415.33 132.38C415.144 132.872 415.052 133.425 415.052 134.039C415.052 134.66 415.146 135.224 415.336 135.732C415.529 136.236 415.813 136.637 416.188 136.936C416.567 137.232 417.036 137.38 417.597 137.38ZM427.265 138.607C426.712 138.607 426.211 138.503 425.76 138.294C425.309 138.082 424.951 137.777 424.686 137.38C424.421 136.978 424.288 136.493 424.288 135.925C424.288 135.425 424.387 135.02 424.584 134.709C424.781 134.395 425.044 134.149 425.373 133.971C425.703 133.792 426.067 133.66 426.464 133.573C426.866 133.482 427.269 133.41 427.675 133.357C428.205 133.289 428.635 133.238 428.964 133.203C429.298 133.166 429.54 133.103 429.692 133.016C429.847 132.929 429.925 132.777 429.925 132.561V132.516C429.925 131.955 429.771 131.52 429.464 131.209C429.161 130.899 428.701 130.743 428.084 130.743C427.443 130.743 426.942 130.883 426.578 131.164C426.214 131.444 425.959 131.743 425.811 132.061L424.538 131.607C424.765 131.077 425.068 130.664 425.447 130.368C425.83 130.069 426.247 129.861 426.697 129.743C427.152 129.622 427.599 129.561 428.038 129.561C428.318 129.561 428.64 129.596 429.004 129.664C429.372 129.728 429.726 129.863 430.067 130.067C430.411 130.272 430.697 130.58 430.925 130.993C431.152 131.406 431.265 131.959 431.265 132.652V138.402H429.925V137.221H429.856C429.765 137.41 429.614 137.613 429.402 137.828C429.19 138.044 428.908 138.228 428.555 138.38C428.203 138.531 427.773 138.607 427.265 138.607ZM427.47 137.402C428 137.402 428.447 137.298 428.811 137.09C429.178 136.882 429.455 136.613 429.64 136.283C429.83 135.953 429.925 135.607 429.925 135.243V134.016C429.868 134.084 429.743 134.147 429.55 134.203C429.36 134.257 429.14 134.304 428.89 134.346C428.644 134.383 428.404 134.417 428.169 134.448C427.938 134.474 427.75 134.497 427.606 134.516C427.258 134.561 426.932 134.635 426.629 134.738C426.33 134.836 426.087 134.986 425.902 135.186C425.72 135.383 425.629 135.652 425.629 135.993C425.629 136.459 425.801 136.811 426.146 137.05C426.495 137.285 426.936 137.402 427.47 137.402ZM438.148 129.675V130.811H433.626V129.675H438.148ZM434.944 127.584H436.285V135.902C436.285 136.281 436.34 136.565 436.449 136.755C436.563 136.94 436.707 137.065 436.881 137.13C437.059 137.19 437.247 137.221 437.444 137.221C437.592 137.221 437.713 137.213 437.807 137.198C437.902 137.179 437.978 137.164 438.035 137.152L438.307 138.357C438.217 138.391 438.09 138.425 437.927 138.459C437.764 138.497 437.557 138.516 437.307 138.516C436.929 138.516 436.557 138.435 436.194 138.272C435.834 138.109 435.535 137.861 435.296 137.527C435.061 137.194 434.944 136.774 434.944 136.266V127.584ZM444.371 138.584C443.53 138.584 442.804 138.399 442.195 138.027C441.589 137.652 441.121 137.13 440.791 136.459C440.465 135.785 440.303 135.001 440.303 134.107C440.303 133.213 440.465 132.425 440.791 131.743C441.121 131.058 441.579 130.524 442.166 130.141C442.757 129.755 443.446 129.561 444.234 129.561C444.689 129.561 445.138 129.637 445.581 129.789C446.024 129.94 446.428 130.186 446.791 130.527C447.155 130.864 447.445 131.311 447.661 131.868C447.876 132.425 447.984 133.111 447.984 133.925V134.493H441.257V133.334H446.621C446.621 132.842 446.522 132.402 446.325 132.016C446.132 131.63 445.856 131.325 445.496 131.101C445.14 130.878 444.719 130.766 444.234 130.766C443.7 130.766 443.238 130.899 442.848 131.164C442.462 131.425 442.164 131.766 441.956 132.186C441.748 132.607 441.643 133.058 441.643 133.539V134.311C441.643 134.971 441.757 135.529 441.984 135.988C442.215 136.442 442.536 136.789 442.945 137.027C443.354 137.262 443.829 137.38 444.371 137.38C444.723 137.38 445.041 137.33 445.325 137.232C445.613 137.13 445.861 136.978 446.07 136.777C446.278 136.573 446.439 136.319 446.553 136.016L447.848 136.38C447.712 136.819 447.482 137.205 447.161 137.539C446.839 137.868 446.441 138.126 445.967 138.311C445.494 138.493 444.962 138.584 444.371 138.584ZM456.846 131.63L455.641 131.971C455.566 131.77 455.454 131.575 455.306 131.385C455.162 131.192 454.965 131.033 454.715 130.908C454.465 130.783 454.145 130.721 453.755 130.721C453.221 130.721 452.776 130.844 452.42 131.09C452.068 131.332 451.891 131.641 451.891 132.016C451.891 132.349 452.013 132.613 452.255 132.806C452.497 132.999 452.876 133.16 453.391 133.289L454.687 133.607C455.467 133.796 456.049 134.086 456.431 134.476C456.814 134.863 457.005 135.361 457.005 135.971C457.005 136.471 456.861 136.917 456.573 137.311C456.289 137.705 455.891 138.016 455.38 138.243C454.869 138.471 454.274 138.584 453.596 138.584C452.706 138.584 451.969 138.391 451.386 138.005C450.802 137.618 450.433 137.054 450.278 136.311L451.551 135.993C451.672 136.463 451.901 136.815 452.238 137.05C452.579 137.285 453.024 137.402 453.573 137.402C454.198 137.402 454.694 137.27 455.062 137.005C455.433 136.736 455.619 136.414 455.619 136.039C455.619 135.736 455.513 135.482 455.301 135.277C455.088 135.069 454.763 134.914 454.323 134.811L452.869 134.471C452.069 134.281 451.482 133.988 451.107 133.59C450.736 133.188 450.551 132.686 450.551 132.084C450.551 131.592 450.689 131.156 450.965 130.777C451.246 130.399 451.626 130.101 452.107 129.885C452.592 129.669 453.141 129.561 453.755 129.561C454.619 129.561 455.297 129.751 455.789 130.13C456.285 130.508 456.638 131.008 456.846 131.63ZM461.436 126.766L461.323 135.13H460.004L459.891 126.766H461.436ZM460.664 138.493C460.383 138.493 460.143 138.393 459.942 138.192C459.741 137.991 459.641 137.751 459.641 137.471C459.641 137.19 459.741 136.95 459.942 136.749C460.143 136.548 460.383 136.448 460.664 136.448C460.944 136.448 461.184 136.548 461.385 136.749C461.586 136.95 461.686 137.19 461.686 137.471C461.686 137.656 461.639 137.827 461.544 137.982C461.453 138.137 461.33 138.262 461.175 138.357C461.023 138.448 460.853 138.493 460.664 138.493Z" fill="white"/>
</svg>
