<svg width="245" height="456" viewBox="0 0 245 456" fill="none" xmlns="http://www.w3.org/2000/svg">
<g opacity="0.05" filter="url(#filter0_d_2073_8)">
<mask id="path-1-inside-1_2073_8" fill="white">
<path d="M137.548 342.247C138.148 342.7 138.493 342.972 138.838 343.225C141.726 345.363 144.869 347.211 147.466 349.657C152.934 354.82 159.001 359.078 165.523 362.774C166.558 363.371 167.63 364.024 168.429 364.893C169.029 365.527 169.773 366.759 169.519 367.339C169.156 368.209 168.066 369.151 167.14 369.35C165.468 369.694 163.67 369.694 161.981 369.495C154.387 368.625 146.921 367.375 140.473 362.774C136.785 360.165 132.952 357.755 129.174 355.273C124.578 352.266 123.997 352.411 119.728 355.907C102.943 369.676 84.5233 380.655 64.0508 388.047C59.1825 389.804 54.187 391.199 49.2642 392.811C48.3923 393.101 47.6112 393.591 46.7756 393.989C46.7937 394.206 46.83 394.424 46.8482 394.641C47.8291 394.859 48.8101 395.185 49.791 395.257C52.8609 395.475 55.9672 395.873 59.019 395.674C63.415 395.384 67.9019 395.076 72.1344 393.989C76.8393 392.775 81.4715 390.982 85.8493 388.862C88.9011 387.376 91.9892 385.365 94.1327 382.793C98.6014 377.43 104.324 374.586 110.681 372.376C118.038 369.821 125.541 368.1 133.261 369.133C138.801 369.875 144.233 371.56 149.683 372.919C150.5 373.118 151.245 373.807 151.935 374.387C154.151 376.18 154.315 377.466 151.862 378.952C147.684 381.452 143.288 383.572 138.929 385.764C136.313 387.087 133.461 387.974 130.954 389.46C121.581 395.058 111.608 394.822 101.399 392.811C98.7468 392.286 96.0946 391.489 93.4061 391.38C90.9175 391.29 88.3198 391.688 85.9402 392.395C83.0882 393.246 80.4179 394.641 77.2934 395.964C78.0019 396.217 78.2562 396.381 78.5105 396.399C93.4969 397.214 104.832 404.823 113.915 416.056C118.002 421.11 121.145 426.944 124.669 432.451C127.103 436.256 129.483 440.097 131.79 443.992C132.262 444.789 132.643 446.401 132.262 446.728C131.572 447.325 130.155 447.688 129.301 447.398C126.54 446.456 123.833 445.278 121.199 444.01C114.841 440.948 108.556 437.723 102.18 434.662C97.3299 432.343 93.3153 428.937 89.7004 425.078C83.1427 418.121 76.6576 411.073 70.3361 403.899C67.4841 400.674 64.4868 398.446 59.9091 398.7C57.2025 398.844 54.4777 398.228 52.1162 397.975C54.7138 404.424 57.0935 410.784 59.8365 416.98C61.3442 420.404 63.4695 423.574 65.2861 426.853C66.2852 428.647 67.6113 430.93 66.0672 432.488C64.4505 434.118 62.2343 432.542 60.5267 431.527C53.8055 427.524 48.2106 422.378 44.5775 415.295C42.9971 412.215 41.1079 409.262 39.7637 406.091C37.5657 400.855 33.315 399.08 28.2468 398.971C23.9053 398.881 19.5274 399.37 15.1859 399.805C4.06866 400.892 -7.0304 401.29 -18.2203 400.71C-35.4593 399.805 -52.2986 396.725 -68.702 391.453C-85.6866 385.981 -101.636 378.282 -116.586 368.444C-136.059 355.635 -152.844 339.982 -166.85 321.376C-180.401 303.35 -190.737 283.657 -197.64 262.098C-201.709 249.398 -204.67 236.462 -205.887 223.273C-207.522 205.554 -207.504 187.764 -204.833 170.045C-201.164 145.75 -193.244 122.959 -181.091 101.726C-166.468 76.1812 -147.213 54.7488 -123.198 37.6102C-101.836 22.3557 -78.4023 11.6667 -52.9162 5.76052C-33.4611 1.24939 -13.6608 -0.562304 6.32117 0.959522C28.6828 2.66252 50.336 7.35481 71.0263 16.2865C111.735 33.8599 143.343 61.7963 165.941 99.842C178.438 120.876 186.413 143.685 190.591 167.853C193.298 183.452 193.461 199.159 192.607 214.794C190.991 243.944 182.725 271.337 168.684 296.973C161.763 309.6 153.57 321.286 144.197 332.174C142.398 334.257 140.382 336.178 138.475 338.171C138.583 338.334 138.711 338.515 138.82 338.678C141.563 337.265 144.396 336.015 147.012 334.384C155.877 328.859 162.707 321.249 168.211 312.463C169.428 310.542 170.282 308.187 170.609 305.941C171.481 299.962 174.042 294.889 178.057 290.523C184.433 283.584 190.773 276.555 199.601 272.551C206.25 269.544 213.243 267.804 220.546 267.605C224.833 267.496 226.068 269.616 223.67 273.095C219.347 279.363 214.751 285.414 210.264 291.574C209.901 292.063 209.483 292.516 209.192 293.023C203.125 303.495 193.243 308.386 182.18 311.611C179.873 312.282 177.585 313.042 175.314 313.858C171.608 315.18 168.538 317.282 166.249 320.615C164.651 322.952 162.58 324.963 160.382 327.518C161.29 327.282 161.781 327.246 162.18 327.047C170.736 322.735 179.819 321.811 189.21 322.644C202.035 323.804 213.116 329.366 223.761 336.142C228.448 339.131 233.389 341.74 238.148 344.62C239.093 345.2 239.765 346.233 240.564 347.066C239.565 347.881 238.675 349.077 237.53 349.421C235.75 349.947 233.825 350.001 231.936 350.074C222.98 350.418 214.006 350.472 205.069 351.052C197.476 351.541 190.409 349.512 183.416 347.211C175.078 344.457 166.885 341.214 158.638 338.171C158.22 338.008 157.803 337.826 157.385 337.645C153.588 335.924 150.028 335.779 146.304 338.225C143.706 339.928 140.618 340.888 137.457 342.319L137.548 342.247ZM60.2361 383.916C60.3814 384.133 60.5268 384.351 60.6539 384.568C62.3796 383.916 64.069 383.119 65.8492 382.63C67.6658 382.122 69.1735 381.651 69.2098 379.26C69.2098 378.463 70.1363 377.575 70.8084 376.905C78.1472 369.658 86.4488 363.716 95.368 358.589C100.654 355.545 105.795 352.266 110.972 349.041C113.988 347.157 115.731 344.512 115.532 340.78C115.423 338.75 115.532 336.703 115.495 334.674C115.386 326.974 116.622 319.492 119.183 312.263C122.271 303.549 128.411 297.154 135.859 292.009C139.564 289.436 143.397 287.045 147.339 284.834C148.302 284.291 150.1 284.472 151.081 285.052C151.735 285.432 151.953 287.208 151.735 288.222C151.263 290.414 150.391 292.516 149.628 294.636C146.467 303.332 142.998 311.937 140.218 320.742C137.984 327.826 135.386 334.511 129.755 339.638C129.446 339.928 129.319 340.417 129.101 340.834C129.919 340.834 130.391 340.544 130.736 340.145C136.349 333.641 142.235 327.355 147.503 320.579C166.231 296.538 178.965 269.634 184.724 239.632C186.522 230.248 188.084 220.737 188.575 211.225C189.247 198.054 188.793 184.883 186.649 171.748C184.433 158.142 181.254 144.844 176.349 132.036C165.196 102.994 148.229 77.8479 125.286 56.7417C106.285 39.2769 84.7049 26.1059 60.5631 17.1199C47.7746 12.3551 34.6229 8.93099 21.017 7.19176C7.7199 5.48876 -5.50451 3.85824 -19.0196 5.3076C-31.8444 6.68449 -44.542 8.35125 -57.0398 11.6667C-86.0863 19.3482 -111.99 33.0084 -134.606 52.7197C-168.176 82.0149 -189.865 118.43 -198.621 162.255C-201.709 177.727 -203.653 193.38 -202.472 209.232C-201.437 223.219 -199.856 237.15 -196.114 250.738C-185.015 291.139 -163.489 324.891 -131.3 351.632C-102.253 375.763 -68.7928 390.112 -31.3902 395.094C-25.9951 395.819 -20.4183 395.982 -14.9869 395.62C-9.15576 395.239 -3.41549 393.627 2.41561 393.101C10.0632 392.395 17.7472 392.105 25.413 391.888C30.136 391.761 33.0062 389.478 35.1679 385.456C37.3659 381.362 39.7455 377.285 42.5248 373.571C49.2279 364.64 57.7111 358.281 69.1917 357.012C74.0418 356.469 78.9465 356.143 83.833 356.016C85.1409 355.98 86.4669 357.121 87.7749 357.719C87.1936 358.806 86.8302 360.128 85.9765 360.907C82.7249 363.915 79.2553 366.705 75.9492 369.658C70.6994 374.368 65.4859 379.133 60.2724 383.88L60.2361 383.916ZM179.183 334.928C179.565 336.305 179.801 337.211 180.128 338.388C176.458 337.935 175.568 334.149 172.607 333.025C172.734 333.388 172.825 333.641 172.916 333.895C173.189 334.747 173.461 335.616 173.752 336.468C172.934 336.015 172.062 335.634 171.299 335.091C170.427 334.457 169.646 333.678 168.829 332.953C168.702 333.116 168.575 333.261 168.429 333.424C169.265 334.366 170.155 335.272 170.918 336.268C171.245 336.721 171.299 337.374 171.481 337.935C170.882 337.845 170.191 337.881 169.683 337.627C168.684 337.102 167.721 336.486 166.849 335.779C165.396 334.602 164.179 333.08 161.962 334.511C161.526 334.801 160.455 334.113 159.674 333.859C159.201 333.714 158.711 333.569 158.238 333.406C158.148 333.605 158.057 333.804 157.966 334.004C158.475 334.348 158.947 334.801 159.51 335.018C163.888 336.776 168.211 338.696 172.698 340.145C180.055 342.537 187.485 344.747 194.951 346.758C199.928 348.099 205.033 347.773 210.192 347.428C217.149 346.957 224.179 347.284 231.173 347.265C232.226 347.265 233.298 347.265 234.352 347.265C233.879 346.323 233.371 345.889 232.807 345.526C227.921 342.41 223.18 339.022 218.093 336.287C212.153 333.098 206.05 330.072 199.728 327.772C190.882 324.547 181.636 325.398 172.48 326.703C170.791 326.938 169.138 327.391 167.466 327.753C172.898 327.898 178.239 327.319 183.525 327.608C188.829 327.898 194.224 328.551 199.31 329.982C204.397 331.413 209.211 333.895 214.061 336.087C222.017 339.693 226.886 342.863 227.013 344.077C224.96 344.421 222.944 344.783 220.909 345.073C220.673 345.109 220.255 344.928 220.128 344.729C218.729 342.446 216.568 341.396 214.533 341.015C214.606 342.229 214.678 343.551 214.769 344.892C214.479 345.001 214.206 345.128 213.915 345.236C212.934 344.167 211.863 343.171 210.991 342.03C210.083 340.834 209.429 339.439 208.502 338.261C208.084 337.718 207.267 337.5 206.631 337.12C206.631 337.826 206.413 338.624 206.667 339.203C207.067 340.145 207.903 340.924 208.339 341.848C208.793 342.809 209.011 343.878 209.392 345.146C205.723 345.11 205.832 341.83 203.906 340.399C204.597 342.084 205.196 343.57 205.814 345.073C205.341 345.417 204.869 345.762 204.379 346.106C203.688 345.037 203.034 343.95 202.326 342.881C200.128 339.566 197.966 336.232 195.714 332.953C195.205 332.228 194.406 331.703 193.752 331.087C193.57 331.304 193.389 331.522 193.207 331.757C195.132 334.131 197.04 336.504 198.983 338.859C200.509 340.707 200.727 341.83 199.637 343.497C196.313 339.584 193.007 335.707 189.719 331.848C189.574 331.975 189.428 332.102 189.283 332.228C190.827 335.145 194.115 337.011 194.26 340.87C193.007 340.309 191.935 339.584 191.063 338.66C189.447 336.975 188.048 335.073 186.359 333.478C185.759 332.899 184.615 332.917 183.706 332.645C183.888 333.569 183.797 334.674 184.288 335.381C185.596 337.301 187.23 339.004 188.575 340.906C189.065 341.595 189.156 342.591 189.447 343.443C189.21 343.588 188.992 343.733 188.756 343.878C184.742 342.048 183.089 337.537 179.183 334.928ZM82.852 400.004C91.8258 403.645 100.182 408.066 106.939 415.113C113.679 422.143 123.07 436.22 122.634 438.666C120.872 437.796 119.092 436.963 117.384 436.002C117.057 435.821 117.039 435.115 116.821 434.662C116.222 433.375 115.586 432.125 114.859 430.622C114.242 431.274 114.078 431.527 113.824 431.691C113.079 432.18 112.316 432.614 111.553 433.086C111.281 432.288 110.863 431.509 110.754 430.694C110.554 429.045 110.609 427.379 110.409 425.73C110.336 425.114 109.918 424.534 109.664 423.936C109.428 423.973 109.192 423.991 108.956 424.027C108.701 426.382 108.429 428.737 108.175 431.075L107.121 431.183C106.703 430.259 106.285 429.335 105.94 428.574C104.996 428.23 103.125 427.777 103.143 427.56C103.379 425.694 101.581 425.386 100.963 424.281C100.4 423.266 100.055 422.107 99.8003 420.965C99.4007 419.117 99.1282 417.233 98.8194 415.367C98.3471 418.652 97.7598 420.53 97.0574 421.001C95.259 417.614 95.9675 413.284 92.952 409.787C90.7358 413.9 94.823 417.541 92.8793 421.255C92.407 421.02 91.6623 420.911 91.5533 420.585C90.3543 417.016 89.2462 413.41 88.0837 409.715C87.902 410.657 87.7204 411.544 87.5205 412.541C84.9774 412.015 85.5405 409.678 84.7412 408.338C84.5959 408.265 84.5232 408.211 84.4506 408.211C84.1599 408.229 83.8511 408.211 83.5605 408.32C80.5632 409.298 78.7466 408.03 77.693 405.258C77.5841 404.986 77.3479 404.769 77.2208 404.497C76.4396 402.975 75.2589 402.341 72.9337 402.885C77.7657 408.265 82.3071 413.447 86.9938 418.519C93.2427 425.277 100.182 431.093 109.101 434.1C109.592 434.263 110.009 434.607 110.482 434.861C115.641 437.651 120.781 440.441 125.959 443.177C126.34 443.376 126.885 443.285 127.394 443.34C124.487 438.158 121.744 433.049 118.801 428.085C112.334 417.197 104.251 407.921 92.3889 402.667C89.3553 401.326 86.3398 399.714 82.8702 400.004H82.852ZM149.047 287.389C147.866 287.914 147.212 288.095 146.685 288.458C142.307 291.519 137.839 294.473 133.588 297.715C129.156 301.085 125.341 305.18 123.543 310.524C121.617 316.267 120.273 322.228 118.783 328.116C118.511 329.167 118.747 330.326 118.747 331.467C119.837 331.522 120.745 331.558 121.889 331.612C121.526 331.014 121.163 330.688 121.199 330.38C121.272 329.42 121.49 328.46 121.653 327.5C122.307 328.17 123.143 328.75 123.579 329.547C123.906 330.145 123.688 331.015 123.779 331.757C123.851 332.337 124.033 332.917 124.16 333.497L124.869 333.442C124.923 332.536 125.159 331.594 125.032 330.707C124.56 327.355 123.924 324.039 123.47 320.688C123.343 319.728 123.652 318.695 123.761 317.699L124.632 317.662C126.921 320.76 126.849 324.637 127.757 328.243C128.011 327.627 128.138 326.974 127.975 326.395C127.503 324.782 127.811 323.895 129.682 323.532C131.39 323.188 131.426 322.101 129.955 320.833C127.866 319.003 127.048 314.927 128.502 311.647C129.537 313.568 130.409 315.162 131.263 316.775C130.772 313.622 129.864 310.633 129.246 307.571C128.992 306.357 127.539 304.473 129.555 303.875C131.317 303.368 131.227 305.56 131.771 306.702C132.643 308.477 133.479 310.271 134.333 312.064C134.569 311.974 134.805 311.883 135.059 311.792C134.878 309.473 134.605 307.154 134.551 304.835C134.533 304.056 134.787 303.006 135.314 302.517C136.167 301.719 136.585 301.176 135.859 300.071C135.641 299.745 135.822 298.821 136.149 298.567C136.458 298.313 137.221 298.422 137.712 298.603C138.166 298.766 138.493 299.237 139.165 299.817C139.637 298.766 139.837 297.77 140.436 297.118C141.236 296.248 142.344 295.668 143.325 294.98C143.288 295.994 143.343 297.009 143.216 298.005C143.143 298.567 142.707 299.092 142.471 299.636C140.455 304.564 138.02 309.365 136.513 314.456C134.187 322.282 131.699 329.964 127.357 336.957C127.157 337.283 127.103 337.718 126.849 338.497C127.539 338.134 127.939 338.044 128.138 337.808C131.953 333.261 134.86 328.261 136.603 322.518C138.747 315.506 141.072 308.531 143.488 301.611C145.105 297.027 147.03 292.552 149.065 287.407L149.047 287.389ZM175.568 307.571C175.95 307.698 176.313 307.807 176.695 307.933C177.548 305.433 178.311 302.897 179.274 300.433C179.601 299.6 180.346 298.386 181 298.331C182.689 298.168 183.161 297.172 183.452 295.868C183.797 294.328 183.979 292.751 184.378 291.212C184.76 289.78 185.505 288.729 187.866 289.907C186.776 294.092 185.668 298.35 184.56 302.607C185.269 302.19 185.85 301.665 185.995 301.031C186.54 298.676 187.394 296.665 189.737 295.451C190.391 295.125 190.773 293.983 190.973 293.15C191.663 290.233 192.244 287.262 192.825 284.327C193.062 283.113 193.37 282.479 194.914 282.95C196.477 283.421 198.202 283.385 200.073 283.602C200.073 282.171 200.146 281.193 200.055 280.233C199.91 278.82 200.673 278.312 201.872 278.222C203.398 278.113 203.325 279.309 203.289 280.251C203.216 281.7 202.944 283.131 202.744 284.581C206.05 283.928 206.704 281.356 207.067 278.457C207.231 277.243 207.848 276.084 208.266 274.906C209.083 275.794 209.901 276.664 210.736 277.569C212.262 276.337 214.043 274.906 216.132 273.221C216.404 275.649 209.029 286.175 203.053 291.954C197.567 297.244 191.699 302.118 186.068 307.136C186.268 307.1 186.74 307.136 187.103 306.973C194.006 303.785 200.419 299.98 204.887 293.53C207.685 289.509 210.773 285.704 213.697 281.791C216.295 278.33 218.875 274.834 221.472 271.355C221.291 271.084 221.109 270.812 220.909 270.54C212.244 271.428 203.852 273.384 196.331 278.113C189.247 282.57 173.952 297.643 174.66 303.585C175.701 301.436 176.882 300.373 178.202 300.397C177.312 302.806 176.422 305.216 175.532 307.607L175.568 307.571ZM106.267 382.539C109.464 380.8 110.282 376.307 115.132 376.289C112.28 380.583 109.392 384.115 105.813 387.159C107.575 386.38 109.047 385.202 110.609 384.17C111.426 383.626 112.534 382.883 113.297 383.065C114.75 383.427 115.332 382.811 116.095 381.851C117.893 379.622 119.746 377.448 121.672 375.347C122.017 374.966 122.816 375.021 123.397 374.876C123.361 375.546 123.506 376.325 123.216 376.85C122.616 377.937 121.78 378.898 121.036 379.93C121.199 380.039 121.363 380.148 121.508 380.256C122.271 379.351 122.979 378.372 123.833 377.557C124.269 377.14 124.959 376.977 125.541 376.687C125.486 377.358 125.632 378.137 125.359 378.698C124.923 379.568 124.196 380.311 123.597 381.09C123.779 381.235 123.96 381.398 124.142 381.543C125.014 380.51 125.904 379.496 126.721 378.427C127.684 377.177 128.52 375.818 129.592 374.658C129.919 374.296 130.791 374.405 131.39 374.296C131.426 374.876 131.699 375.582 131.481 376.035C130.754 377.485 129.846 378.825 128.956 380.275C132.407 379.912 133.134 379.423 135.405 376.289C136.095 375.329 136.567 373.825 138.42 374.513C138.475 375.419 138.547 376.361 138.602 377.412C139.092 377.358 139.455 377.358 139.801 377.249C140.727 376.959 141.653 376.325 142.544 376.361C143.288 376.398 143.997 377.177 144.723 377.629C144.197 378.137 143.742 378.825 143.107 379.115C141.89 379.677 140.491 379.876 139.292 380.456C129.392 385.184 119.092 388.608 108.138 389.822C107.848 389.858 107.575 390.148 106.758 390.619C114.078 390.964 120.691 391.054 126.958 387.992C134.042 384.532 141.254 381.289 148.375 377.919C148.847 377.684 149.501 377.177 149.519 376.778C149.519 376.379 148.901 375.691 148.447 375.6C142.525 374.242 136.658 372.43 130.663 371.778C123.161 370.944 116.204 374.151 109.156 376.216C106.467 377.013 103.888 378.245 101.09 379.351C102.362 381.325 101.744 382.521 100.436 383.626C99.2917 384.586 98.2745 385.692 97.2027 386.742L97.9656 387.558C100.491 385.112 103.016 382.666 105.74 380.021C105.977 381.09 106.104 381.67 106.267 382.43V382.539ZM45.9218 389.405C46.6666 389.405 47.0117 389.514 47.2297 389.405C50.554 387.413 54.187 385.764 57.1116 383.264C63.9782 377.394 70.4996 371.125 77.1663 365.038C79.4551 362.937 81.7621 360.853 84.0509 358.752C83.288 358.299 82.852 358.262 82.4342 358.317C78.5832 358.878 74.7321 359.657 70.8629 360.002C63.7965 360.636 57.4749 363.027 52.1706 367.665C45.8128 373.227 41.0171 380.075 37.0934 387.539C36.8391 388.029 36.7664 388.626 36.6029 389.17C36.7664 389.297 36.9481 389.406 37.1115 389.532C39.8908 385.927 41.1261 380.891 46.7029 379.024C45.8854 381.289 45.2315 383.083 44.5594 384.894C45.7583 383.699 46.6484 382.34 47.2297 380.872C48.1198 378.644 48.7374 376.307 49.6275 374.079C49.8818 373.444 50.6629 373.01 51.1897 372.484C51.4259 372.629 51.662 372.774 51.9163 372.919C51.6257 375.039 51.335 377.158 51.0989 378.843C52.3705 379.006 53.6239 379.169 55.4223 379.387C53.0063 376.47 55.0408 373.952 55.4404 371.343C55.5313 370.763 56.2216 370.165 56.7847 369.803C57.039 369.64 58.0199 370.038 58.0381 370.256C58.1108 370.926 57.9654 371.651 57.7656 372.303C57.6021 372.883 57.257 373.39 57.0027 373.934C57.2388 374.042 57.475 374.133 57.7111 374.242C58.0562 373.408 58.4922 372.593 58.7102 371.723C59.2552 369.622 59.5821 367.448 60.2179 365.364C60.4723 364.549 61.3079 363.915 61.871 363.19C62.198 363.335 62.5068 363.462 62.8338 363.607C62.416 366.252 61.9981 368.915 61.5803 371.56C61.8347 371.85 62.0708 372.122 62.3251 372.412C62.7793 371.524 63.1426 370.6 63.6875 369.785C65.0318 367.719 66.4123 365.69 67.8292 363.698C69.5731 361.252 69.8819 361.27 71.5532 364.06C72.3343 363.498 73.0427 362.774 73.8965 362.466C74.6958 362.194 75.6585 362.375 76.5668 362.357C76.1853 363.082 75.9673 364.024 75.3679 364.495C73.0427 366.397 70.4632 368.009 68.2289 370.02C64.0872 373.734 60.2179 377.774 56.0399 381.47C52.9699 384.188 49.5912 386.561 45.9218 389.405ZM112.498 355.943C111.844 355.78 111.444 355.545 111.172 355.635C108.047 356.65 104.759 357.32 101.871 358.824C91.9529 363.969 82.8702 370.419 74.3143 377.593C73.7693 378.046 73.3697 378.68 72.5159 379.659C78.6195 377.738 104.741 362.158 112.498 355.943ZM131.935 352.845C133.479 355.001 135.532 355.69 137.639 354.911C139.655 354.168 141.635 353.371 143.688 352.773C144.106 352.646 144.742 353.298 145.268 353.588C144.96 354.041 144.76 354.657 144.342 354.893C142.816 355.726 141.217 356.433 139.655 357.194C141.744 357.502 143.67 357.973 143.597 360.871C146.867 360.092 149.755 359.386 153.116 358.589C151.081 356.976 149.664 355.871 148.266 354.748C144.851 351.958 141.599 348.932 137.984 346.45C134.206 343.841 133.624 344.095 130.155 346.867C129.81 347.157 129.337 347.338 129.101 347.7C128.647 348.371 128.32 349.113 127.957 349.82C128.829 349.929 129.791 350.309 130.573 350.074C132.353 349.53 134.024 348.606 135.804 348.044C136.494 347.827 137.348 348.189 138.148 348.298C137.784 348.968 137.603 349.929 137.058 350.273C135.441 351.269 133.679 352.012 131.935 352.864V352.845ZM49.028 406.78C46.1942 408.374 44.959 405.167 42.7065 404.37C43.1061 405.511 43.6329 406.617 44.4867 406.979C46.1761 407.704 48.0653 407.957 49.8637 408.501C51.0262 408.845 52.1343 409.352 53.5876 409.914C51.0989 412.523 48.9736 411.236 46.83 410.53C47.5385 412.215 48.1561 413.7 48.8282 415.15C48.9735 415.458 49.3187 415.766 49.6457 415.856C51.8982 416.545 54.1689 417.179 56.3305 417.795C55.1135 414.099 53.9145 410.349 52.6248 406.617C51.0444 402.015 48.029 398.518 43.9599 395.982C43.2333 395.529 41.5076 395.475 41.1079 395.964C40.454 396.761 40.2723 398.156 40.3813 399.243C40.454 399.895 41.3622 400.819 42.0525 401C43.9236 401.49 45.8854 401.598 47.7928 401.979C48.2469 402.069 48.9372 402.522 48.9735 402.885C49.1189 404.116 49.028 405.385 49.028 406.78ZM155.55 362.502C158.402 365.654 162.053 367.14 164.524 365.853C162.507 364.567 160.636 363.408 158.783 362.176C155.386 359.947 152.48 360.31 149.192 363.589C151.426 363.208 153.37 362.864 155.55 362.484V362.502ZM61.8528 429.118L62.3796 428.629C61.98 424.009 56.9845 419.534 51.2806 419.172C51.989 419.878 52.3523 420.585 52.7883 420.639C56.2397 420.983 57.5113 423.701 59.128 426.147C59.8546 427.252 60.9445 428.14 61.8528 429.118ZM199.365 286.773C197.512 289.69 195.423 292.987 193.152 296.538C196.368 296.067 199.601 290.197 199.365 286.773ZM125.795 345.508C123.706 344.131 118.801 346.631 118.22 349.059C120.8 347.845 123.143 346.758 125.795 345.508ZM118.602 340.78C118.965 340.78 119.31 340.78 119.673 340.761C119.51 338.207 119.364 335.652 119.201 333.116C119.001 333.116 118.801 333.134 118.602 333.152V340.798V340.78ZM116.731 385.728C120.055 385.547 121.236 384.405 120.127 382.63C119.019 383.59 116.803 383.246 116.731 385.728Z"/>
</mask>
<g filter="url(#filter1_i_2073_8)">
<path d="M137.548 342.247C138.148 342.7 138.493 342.972 138.838 343.225C141.726 345.363 144.869 347.211 147.466 349.657C152.934 354.82 159.001 359.078 165.523 362.774C166.558 363.371 167.63 364.024 168.429 364.893C169.029 365.527 169.773 366.759 169.519 367.339C169.156 368.209 168.066 369.151 167.14 369.35C165.468 369.694 163.67 369.694 161.981 369.495C154.387 368.625 146.921 367.375 140.473 362.774C136.785 360.165 132.952 357.755 129.174 355.273C124.578 352.266 123.997 352.411 119.728 355.907C102.943 369.676 84.5233 380.655 64.0508 388.047C59.1825 389.804 54.187 391.199 49.2642 392.811C48.3923 393.101 47.6112 393.591 46.7756 393.989C46.7937 394.206 46.83 394.424 46.8482 394.641C47.8291 394.859 48.8101 395.185 49.791 395.257C52.8609 395.475 55.9672 395.873 59.019 395.674C63.415 395.384 67.9019 395.076 72.1344 393.989C76.8393 392.775 81.4715 390.982 85.8493 388.862C88.9011 387.376 91.9892 385.365 94.1327 382.793C98.6014 377.43 104.324 374.586 110.681 372.376C118.038 369.821 125.541 368.1 133.261 369.133C138.801 369.875 144.233 371.56 149.683 372.919C150.5 373.118 151.245 373.807 151.935 374.387C154.151 376.18 154.315 377.466 151.862 378.952C147.684 381.452 143.288 383.572 138.929 385.764C136.313 387.087 133.461 387.974 130.954 389.46C121.581 395.058 111.608 394.822 101.399 392.811C98.7468 392.286 96.0946 391.489 93.4061 391.38C90.9175 391.29 88.3198 391.688 85.9402 392.395C83.0882 393.246 80.4179 394.641 77.2934 395.964C78.0019 396.217 78.2562 396.381 78.5105 396.399C93.4969 397.214 104.832 404.823 113.915 416.056C118.002 421.11 121.145 426.944 124.669 432.451C127.103 436.256 129.483 440.097 131.79 443.992C132.262 444.789 132.643 446.401 132.262 446.728C131.572 447.325 130.155 447.688 129.301 447.398C126.54 446.456 123.833 445.278 121.199 444.01C114.841 440.948 108.556 437.723 102.18 434.662C97.3299 432.343 93.3153 428.937 89.7004 425.078C83.1427 418.121 76.6576 411.073 70.3361 403.899C67.4841 400.674 64.4868 398.446 59.9091 398.7C57.2025 398.844 54.4777 398.228 52.1162 397.975C54.7138 404.424 57.0935 410.784 59.8365 416.98C61.3442 420.404 63.4695 423.574 65.2861 426.853C66.2852 428.647 67.6113 430.93 66.0672 432.488C64.4505 434.118 62.2343 432.542 60.5267 431.527C53.8055 427.524 48.2106 422.378 44.5775 415.295C42.9971 412.215 41.1079 409.262 39.7637 406.091C37.5657 400.855 33.315 399.08 28.2468 398.971C23.9053 398.881 19.5274 399.37 15.1859 399.805C4.06866 400.892 -7.0304 401.29 -18.2203 400.71C-35.4593 399.805 -52.2986 396.725 -68.702 391.453C-85.6866 385.981 -101.636 378.282 -116.586 368.444C-136.059 355.635 -152.844 339.982 -166.85 321.376C-180.401 303.35 -190.737 283.657 -197.64 262.098C-201.709 249.398 -204.67 236.462 -205.887 223.273C-207.522 205.554 -207.504 187.764 -204.833 170.045C-201.164 145.75 -193.244 122.959 -181.091 101.726C-166.468 76.1812 -147.213 54.7488 -123.198 37.6102C-101.836 22.3557 -78.4023 11.6667 -52.9162 5.76052C-33.4611 1.24939 -13.6608 -0.562304 6.32117 0.959522C28.6828 2.66252 50.336 7.35481 71.0263 16.2865C111.735 33.8599 143.343 61.7963 165.941 99.842C178.438 120.876 186.413 143.685 190.591 167.853C193.298 183.452 193.461 199.159 192.607 214.794C190.991 243.944 182.725 271.337 168.684 296.973C161.763 309.6 153.57 321.286 144.197 332.174C142.398 334.257 140.382 336.178 138.475 338.171C138.583 338.334 138.711 338.515 138.82 338.678C141.563 337.265 144.396 336.015 147.012 334.384C155.877 328.859 162.707 321.249 168.211 312.463C169.428 310.542 170.282 308.187 170.609 305.941C171.481 299.962 174.042 294.889 178.057 290.523C184.433 283.584 190.773 276.555 199.601 272.551C206.25 269.544 213.243 267.804 220.546 267.605C224.833 267.496 226.068 269.616 223.67 273.095C219.347 279.363 214.751 285.414 210.264 291.574C209.901 292.063 209.483 292.516 209.192 293.023C203.125 303.495 193.243 308.386 182.18 311.611C179.873 312.282 177.585 313.042 175.314 313.858C171.608 315.18 168.538 317.282 166.249 320.615C164.651 322.952 162.58 324.963 160.382 327.518C161.29 327.282 161.781 327.246 162.18 327.047C170.736 322.735 179.819 321.811 189.21 322.644C202.035 323.804 213.116 329.366 223.761 336.142C228.448 339.131 233.389 341.74 238.148 344.62C239.093 345.2 239.765 346.233 240.564 347.066C239.565 347.881 238.675 349.077 237.53 349.421C235.75 349.947 233.825 350.001 231.936 350.074C222.98 350.418 214.006 350.472 205.069 351.052C197.476 351.541 190.409 349.512 183.416 347.211C175.078 344.457 166.885 341.214 158.638 338.171C158.22 338.008 157.803 337.826 157.385 337.645C153.588 335.924 150.028 335.779 146.304 338.225C143.706 339.928 140.618 340.888 137.457 342.319L137.548 342.247ZM60.2361 383.916C60.3814 384.133 60.5268 384.351 60.6539 384.568C62.3796 383.916 64.069 383.119 65.8492 382.63C67.6658 382.122 69.1735 381.651 69.2098 379.26C69.2098 378.463 70.1363 377.575 70.8084 376.905C78.1472 369.658 86.4488 363.716 95.368 358.589C100.654 355.545 105.795 352.266 110.972 349.041C113.988 347.157 115.731 344.512 115.532 340.78C115.423 338.75 115.532 336.703 115.495 334.674C115.386 326.974 116.622 319.492 119.183 312.263C122.271 303.549 128.411 297.154 135.859 292.009C139.564 289.436 143.397 287.045 147.339 284.834C148.302 284.291 150.1 284.472 151.081 285.052C151.735 285.432 151.953 287.208 151.735 288.222C151.263 290.414 150.391 292.516 149.628 294.636C146.467 303.332 142.998 311.937 140.218 320.742C137.984 327.826 135.386 334.511 129.755 339.638C129.446 339.928 129.319 340.417 129.101 340.834C129.919 340.834 130.391 340.544 130.736 340.145C136.349 333.641 142.235 327.355 147.503 320.579C166.231 296.538 178.965 269.634 184.724 239.632C186.522 230.248 188.084 220.737 188.575 211.225C189.247 198.054 188.793 184.883 186.649 171.748C184.433 158.142 181.254 144.844 176.349 132.036C165.196 102.994 148.229 77.8479 125.286 56.7417C106.285 39.2769 84.7049 26.1059 60.5631 17.1199C47.7746 12.3551 34.6229 8.93099 21.017 7.19176C7.7199 5.48876 -5.50451 3.85824 -19.0196 5.3076C-31.8444 6.68449 -44.542 8.35125 -57.0398 11.6667C-86.0863 19.3482 -111.99 33.0084 -134.606 52.7197C-168.176 82.0149 -189.865 118.43 -198.621 162.255C-201.709 177.727 -203.653 193.38 -202.472 209.232C-201.437 223.219 -199.856 237.15 -196.114 250.738C-185.015 291.139 -163.489 324.891 -131.3 351.632C-102.253 375.763 -68.7928 390.112 -31.3902 395.094C-25.9951 395.819 -20.4183 395.982 -14.9869 395.62C-9.15576 395.239 -3.41549 393.627 2.41561 393.101C10.0632 392.395 17.7472 392.105 25.413 391.888C30.136 391.761 33.0062 389.478 35.1679 385.456C37.3659 381.362 39.7455 377.285 42.5248 373.571C49.2279 364.64 57.7111 358.281 69.1917 357.012C74.0418 356.469 78.9465 356.143 83.833 356.016C85.1409 355.98 86.4669 357.121 87.7749 357.719C87.1936 358.806 86.8302 360.128 85.9765 360.907C82.7249 363.915 79.2553 366.705 75.9492 369.658C70.6994 374.368 65.4859 379.133 60.2724 383.88L60.2361 383.916ZM179.183 334.928C179.565 336.305 179.801 337.211 180.128 338.388C176.458 337.935 175.568 334.149 172.607 333.025C172.734 333.388 172.825 333.641 172.916 333.895C173.189 334.747 173.461 335.616 173.752 336.468C172.934 336.015 172.062 335.634 171.299 335.091C170.427 334.457 169.646 333.678 168.829 332.953C168.702 333.116 168.575 333.261 168.429 333.424C169.265 334.366 170.155 335.272 170.918 336.268C171.245 336.721 171.299 337.374 171.481 337.935C170.882 337.845 170.191 337.881 169.683 337.627C168.684 337.102 167.721 336.486 166.849 335.779C165.396 334.602 164.179 333.08 161.962 334.511C161.526 334.801 160.455 334.113 159.674 333.859C159.201 333.714 158.711 333.569 158.238 333.406C158.148 333.605 158.057 333.804 157.966 334.004C158.475 334.348 158.947 334.801 159.51 335.018C163.888 336.776 168.211 338.696 172.698 340.145C180.055 342.537 187.485 344.747 194.951 346.758C199.928 348.099 205.033 347.773 210.192 347.428C217.149 346.957 224.179 347.284 231.173 347.265C232.226 347.265 233.298 347.265 234.352 347.265C233.879 346.323 233.371 345.889 232.807 345.526C227.921 342.41 223.18 339.022 218.093 336.287C212.153 333.098 206.05 330.072 199.728 327.772C190.882 324.547 181.636 325.398 172.48 326.703C170.791 326.938 169.138 327.391 167.466 327.753C172.898 327.898 178.239 327.319 183.525 327.608C188.829 327.898 194.224 328.551 199.31 329.982C204.397 331.413 209.211 333.895 214.061 336.087C222.017 339.693 226.886 342.863 227.013 344.077C224.96 344.421 222.944 344.783 220.909 345.073C220.673 345.109 220.255 344.928 220.128 344.729C218.729 342.446 216.568 341.396 214.533 341.015C214.606 342.229 214.678 343.551 214.769 344.892C214.479 345.001 214.206 345.128 213.915 345.236C212.934 344.167 211.863 343.171 210.991 342.03C210.083 340.834 209.429 339.439 208.502 338.261C208.084 337.718 207.267 337.5 206.631 337.12C206.631 337.826 206.413 338.624 206.667 339.203C207.067 340.145 207.903 340.924 208.339 341.848C208.793 342.809 209.011 343.878 209.392 345.146C205.723 345.11 205.832 341.83 203.906 340.399C204.597 342.084 205.196 343.57 205.814 345.073C205.341 345.417 204.869 345.762 204.379 346.106C203.688 345.037 203.034 343.95 202.326 342.881C200.128 339.566 197.966 336.232 195.714 332.953C195.205 332.228 194.406 331.703 193.752 331.087C193.57 331.304 193.389 331.522 193.207 331.757C195.132 334.131 197.04 336.504 198.983 338.859C200.509 340.707 200.727 341.83 199.637 343.497C196.313 339.584 193.007 335.707 189.719 331.848C189.574 331.975 189.428 332.102 189.283 332.228C190.827 335.145 194.115 337.011 194.26 340.87C193.007 340.309 191.935 339.584 191.063 338.66C189.447 336.975 188.048 335.073 186.359 333.478C185.759 332.899 184.615 332.917 183.706 332.645C183.888 333.569 183.797 334.674 184.288 335.381C185.596 337.301 187.23 339.004 188.575 340.906C189.065 341.595 189.156 342.591 189.447 343.443C189.21 343.588 188.992 343.733 188.756 343.878C184.742 342.048 183.089 337.537 179.183 334.928ZM82.852 400.004C91.8258 403.645 100.182 408.066 106.939 415.113C113.679 422.143 123.07 436.22 122.634 438.666C120.872 437.796 119.092 436.963 117.384 436.002C117.057 435.821 117.039 435.115 116.821 434.662C116.222 433.375 115.586 432.125 114.859 430.622C114.242 431.274 114.078 431.527 113.824 431.691C113.079 432.18 112.316 432.614 111.553 433.086C111.281 432.288 110.863 431.509 110.754 430.694C110.554 429.045 110.609 427.379 110.409 425.73C110.336 425.114 109.918 424.534 109.664 423.936C109.428 423.973 109.192 423.991 108.956 424.027C108.701 426.382 108.429 428.737 108.175 431.075L107.121 431.183C106.703 430.259 106.285 429.335 105.94 428.574C104.996 428.23 103.125 427.777 103.143 427.56C103.379 425.694 101.581 425.386 100.963 424.281C100.4 423.266 100.055 422.107 99.8003 420.965C99.4007 419.117 99.1282 417.233 98.8194 415.367C98.3471 418.652 97.7598 420.53 97.0574 421.001C95.259 417.614 95.9675 413.284 92.952 409.787C90.7358 413.9 94.823 417.541 92.8793 421.255C92.407 421.02 91.6623 420.911 91.5533 420.585C90.3543 417.016 89.2462 413.41 88.0837 409.715C87.902 410.657 87.7204 411.544 87.5205 412.541C84.9774 412.015 85.5405 409.678 84.7412 408.338C84.5959 408.265 84.5232 408.211 84.4506 408.211C84.1599 408.229 83.8511 408.211 83.5605 408.32C80.5632 409.298 78.7466 408.03 77.693 405.258C77.5841 404.986 77.3479 404.769 77.2208 404.497C76.4396 402.975 75.2589 402.341 72.9337 402.885C77.7657 408.265 82.3071 413.447 86.9938 418.519C93.2427 425.277 100.182 431.093 109.101 434.1C109.592 434.263 110.009 434.607 110.482 434.861C115.641 437.651 120.781 440.441 125.959 443.177C126.34 443.376 126.885 443.285 127.394 443.34C124.487 438.158 121.744 433.049 118.801 428.085C112.334 417.197 104.251 407.921 92.3889 402.667C89.3553 401.326 86.3398 399.714 82.8702 400.004H82.852ZM149.047 287.389C147.866 287.914 147.212 288.095 146.685 288.458C142.307 291.519 137.839 294.473 133.588 297.715C129.156 301.085 125.341 305.18 123.543 310.524C121.617 316.267 120.273 322.228 118.783 328.116C118.511 329.167 118.747 330.326 118.747 331.467C119.837 331.522 120.745 331.558 121.889 331.612C121.526 331.014 121.163 330.688 121.199 330.38C121.272 329.42 121.49 328.46 121.653 327.5C122.307 328.17 123.143 328.75 123.579 329.547C123.906 330.145 123.688 331.015 123.779 331.757C123.851 332.337 124.033 332.917 124.16 333.497L124.869 333.442C124.923 332.536 125.159 331.594 125.032 330.707C124.56 327.355 123.924 324.039 123.47 320.688C123.343 319.728 123.652 318.695 123.761 317.699L124.632 317.662C126.921 320.76 126.849 324.637 127.757 328.243C128.011 327.627 128.138 326.974 127.975 326.395C127.503 324.782 127.811 323.895 129.682 323.532C131.39 323.188 131.426 322.101 129.955 320.833C127.866 319.003 127.048 314.927 128.502 311.647C129.537 313.568 130.409 315.162 131.263 316.775C130.772 313.622 129.864 310.633 129.246 307.571C128.992 306.357 127.539 304.473 129.555 303.875C131.317 303.368 131.227 305.56 131.771 306.702C132.643 308.477 133.479 310.271 134.333 312.064C134.569 311.974 134.805 311.883 135.059 311.792C134.878 309.473 134.605 307.154 134.551 304.835C134.533 304.056 134.787 303.006 135.314 302.517C136.167 301.719 136.585 301.176 135.859 300.071C135.641 299.745 135.822 298.821 136.149 298.567C136.458 298.313 137.221 298.422 137.712 298.603C138.166 298.766 138.493 299.237 139.165 299.817C139.637 298.766 139.837 297.77 140.436 297.118C141.236 296.248 142.344 295.668 143.325 294.98C143.288 295.994 143.343 297.009 143.216 298.005C143.143 298.567 142.707 299.092 142.471 299.636C140.455 304.564 138.02 309.365 136.513 314.456C134.187 322.282 131.699 329.964 127.357 336.957C127.157 337.283 127.103 337.718 126.849 338.497C127.539 338.134 127.939 338.044 128.138 337.808C131.953 333.261 134.86 328.261 136.603 322.518C138.747 315.506 141.072 308.531 143.488 301.611C145.105 297.027 147.03 292.552 149.065 287.407L149.047 287.389ZM175.568 307.571C175.95 307.698 176.313 307.807 176.695 307.933C177.548 305.433 178.311 302.897 179.274 300.433C179.601 299.6 180.346 298.386 181 298.331C182.689 298.168 183.161 297.172 183.452 295.868C183.797 294.328 183.979 292.751 184.378 291.212C184.76 289.78 185.505 288.729 187.866 289.907C186.776 294.092 185.668 298.35 184.56 302.607C185.269 302.19 185.85 301.665 185.995 301.031C186.54 298.676 187.394 296.665 189.737 295.451C190.391 295.125 190.773 293.983 190.973 293.15C191.663 290.233 192.244 287.262 192.825 284.327C193.062 283.113 193.37 282.479 194.914 282.95C196.477 283.421 198.202 283.385 200.073 283.602C200.073 282.171 200.146 281.193 200.055 280.233C199.91 278.82 200.673 278.312 201.872 278.222C203.398 278.113 203.325 279.309 203.289 280.251C203.216 281.7 202.944 283.131 202.744 284.581C206.05 283.928 206.704 281.356 207.067 278.457C207.231 277.243 207.848 276.084 208.266 274.906C209.083 275.794 209.901 276.664 210.736 277.569C212.262 276.337 214.043 274.906 216.132 273.221C216.404 275.649 209.029 286.175 203.053 291.954C197.567 297.244 191.699 302.118 186.068 307.136C186.268 307.1 186.74 307.136 187.103 306.973C194.006 303.785 200.419 299.98 204.887 293.53C207.685 289.509 210.773 285.704 213.697 281.791C216.295 278.33 218.875 274.834 221.472 271.355C221.291 271.084 221.109 270.812 220.909 270.54C212.244 271.428 203.852 273.384 196.331 278.113C189.247 282.57 173.952 297.643 174.66 303.585C175.701 301.436 176.882 300.373 178.202 300.397C177.312 302.806 176.422 305.216 175.532 307.607L175.568 307.571ZM106.267 382.539C109.464 380.8 110.282 376.307 115.132 376.289C112.28 380.583 109.392 384.115 105.813 387.159C107.575 386.38 109.047 385.202 110.609 384.17C111.426 383.626 112.534 382.883 113.297 383.065C114.75 383.427 115.332 382.811 116.095 381.851C117.893 379.622 119.746 377.448 121.672 375.347C122.017 374.966 122.816 375.021 123.397 374.876C123.361 375.546 123.506 376.325 123.216 376.85C122.616 377.937 121.78 378.898 121.036 379.93C121.199 380.039 121.363 380.148 121.508 380.256C122.271 379.351 122.979 378.372 123.833 377.557C124.269 377.14 124.959 376.977 125.541 376.687C125.486 377.358 125.632 378.137 125.359 378.698C124.923 379.568 124.196 380.311 123.597 381.09C123.779 381.235 123.96 381.398 124.142 381.543C125.014 380.51 125.904 379.496 126.721 378.427C127.684 377.177 128.52 375.818 129.592 374.658C129.919 374.296 130.791 374.405 131.39 374.296C131.426 374.876 131.699 375.582 131.481 376.035C130.754 377.485 129.846 378.825 128.956 380.275C132.407 379.912 133.134 379.423 135.405 376.289C136.095 375.329 136.567 373.825 138.42 374.513C138.475 375.419 138.547 376.361 138.602 377.412C139.092 377.358 139.455 377.358 139.801 377.249C140.727 376.959 141.653 376.325 142.544 376.361C143.288 376.398 143.997 377.177 144.723 377.629C144.197 378.137 143.742 378.825 143.107 379.115C141.89 379.677 140.491 379.876 139.292 380.456C129.392 385.184 119.092 388.608 108.138 389.822C107.848 389.858 107.575 390.148 106.758 390.619C114.078 390.964 120.691 391.054 126.958 387.992C134.042 384.532 141.254 381.289 148.375 377.919C148.847 377.684 149.501 377.177 149.519 376.778C149.519 376.379 148.901 375.691 148.447 375.6C142.525 374.242 136.658 372.43 130.663 371.778C123.161 370.944 116.204 374.151 109.156 376.216C106.467 377.013 103.888 378.245 101.09 379.351C102.362 381.325 101.744 382.521 100.436 383.626C99.2917 384.586 98.2745 385.692 97.2027 386.742L97.9656 387.558C100.491 385.112 103.016 382.666 105.74 380.021C105.977 381.09 106.104 381.67 106.267 382.43V382.539ZM45.9218 389.405C46.6666 389.405 47.0117 389.514 47.2297 389.405C50.554 387.413 54.187 385.764 57.1116 383.264C63.9782 377.394 70.4996 371.125 77.1663 365.038C79.4551 362.937 81.7621 360.853 84.0509 358.752C83.288 358.299 82.852 358.262 82.4342 358.317C78.5832 358.878 74.7321 359.657 70.8629 360.002C63.7965 360.636 57.4749 363.027 52.1706 367.665C45.8128 373.227 41.0171 380.075 37.0934 387.539C36.8391 388.029 36.7664 388.626 36.6029 389.17C36.7664 389.297 36.9481 389.406 37.1115 389.532C39.8908 385.927 41.1261 380.891 46.7029 379.024C45.8854 381.289 45.2315 383.083 44.5594 384.894C45.7583 383.699 46.6484 382.34 47.2297 380.872C48.1198 378.644 48.7374 376.307 49.6275 374.079C49.8818 373.444 50.6629 373.01 51.1897 372.484C51.4259 372.629 51.662 372.774 51.9163 372.919C51.6257 375.039 51.335 377.158 51.0989 378.843C52.3705 379.006 53.6239 379.169 55.4223 379.387C53.0063 376.47 55.0408 373.952 55.4404 371.343C55.5313 370.763 56.2216 370.165 56.7847 369.803C57.039 369.64 58.0199 370.038 58.0381 370.256C58.1108 370.926 57.9654 371.651 57.7656 372.303C57.6021 372.883 57.257 373.39 57.0027 373.934C57.2388 374.042 57.475 374.133 57.7111 374.242C58.0562 373.408 58.4922 372.593 58.7102 371.723C59.2552 369.622 59.5821 367.448 60.2179 365.364C60.4723 364.549 61.3079 363.915 61.871 363.19C62.198 363.335 62.5068 363.462 62.8338 363.607C62.416 366.252 61.9981 368.915 61.5803 371.56C61.8347 371.85 62.0708 372.122 62.3251 372.412C62.7793 371.524 63.1426 370.6 63.6875 369.785C65.0318 367.719 66.4123 365.69 67.8292 363.698C69.5731 361.252 69.8819 361.27 71.5532 364.06C72.3343 363.498 73.0427 362.774 73.8965 362.466C74.6958 362.194 75.6585 362.375 76.5668 362.357C76.1853 363.082 75.9673 364.024 75.3679 364.495C73.0427 366.397 70.4632 368.009 68.2289 370.02C64.0872 373.734 60.2179 377.774 56.0399 381.47C52.9699 384.188 49.5912 386.561 45.9218 389.405ZM112.498 355.943C111.844 355.78 111.444 355.545 111.172 355.635C108.047 356.65 104.759 357.32 101.871 358.824C91.9529 363.969 82.8702 370.419 74.3143 377.593C73.7693 378.046 73.3697 378.68 72.5159 379.659C78.6195 377.738 104.741 362.158 112.498 355.943ZM131.935 352.845C133.479 355.001 135.532 355.69 137.639 354.911C139.655 354.168 141.635 353.371 143.688 352.773C144.106 352.646 144.742 353.298 145.268 353.588C144.96 354.041 144.76 354.657 144.342 354.893C142.816 355.726 141.217 356.433 139.655 357.194C141.744 357.502 143.67 357.973 143.597 360.871C146.867 360.092 149.755 359.386 153.116 358.589C151.081 356.976 149.664 355.871 148.266 354.748C144.851 351.958 141.599 348.932 137.984 346.45C134.206 343.841 133.624 344.095 130.155 346.867C129.81 347.157 129.337 347.338 129.101 347.7C128.647 348.371 128.32 349.113 127.957 349.82C128.829 349.929 129.791 350.309 130.573 350.074C132.353 349.53 134.024 348.606 135.804 348.044C136.494 347.827 137.348 348.189 138.148 348.298C137.784 348.968 137.603 349.929 137.058 350.273C135.441 351.269 133.679 352.012 131.935 352.864V352.845ZM49.028 406.78C46.1942 408.374 44.959 405.167 42.7065 404.37C43.1061 405.511 43.6329 406.617 44.4867 406.979C46.1761 407.704 48.0653 407.957 49.8637 408.501C51.0262 408.845 52.1343 409.352 53.5876 409.914C51.0989 412.523 48.9736 411.236 46.83 410.53C47.5385 412.215 48.1561 413.7 48.8282 415.15C48.9735 415.458 49.3187 415.766 49.6457 415.856C51.8982 416.545 54.1689 417.179 56.3305 417.795C55.1135 414.099 53.9145 410.349 52.6248 406.617C51.0444 402.015 48.029 398.518 43.9599 395.982C43.2333 395.529 41.5076 395.475 41.1079 395.964C40.454 396.761 40.2723 398.156 40.3813 399.243C40.454 399.895 41.3622 400.819 42.0525 401C43.9236 401.49 45.8854 401.598 47.7928 401.979C48.2469 402.069 48.9372 402.522 48.9735 402.885C49.1189 404.116 49.028 405.385 49.028 406.78ZM155.55 362.502C158.402 365.654 162.053 367.14 164.524 365.853C162.507 364.567 160.636 363.408 158.783 362.176C155.386 359.947 152.48 360.31 149.192 363.589C151.426 363.208 153.37 362.864 155.55 362.484V362.502ZM61.8528 429.118L62.3796 428.629C61.98 424.009 56.9845 419.534 51.2806 419.172C51.989 419.878 52.3523 420.585 52.7883 420.639C56.2397 420.983 57.5113 423.701 59.128 426.147C59.8546 427.252 60.9445 428.14 61.8528 429.118ZM199.365 286.773C197.512 289.69 195.423 292.987 193.152 296.538C196.368 296.067 199.601 290.197 199.365 286.773ZM125.795 345.508C123.706 344.131 118.801 346.631 118.22 349.059C120.8 347.845 123.143 346.758 125.795 345.508ZM118.602 340.78C118.965 340.78 119.31 340.78 119.673 340.761C119.51 338.207 119.364 335.652 119.201 333.116C119.001 333.116 118.801 333.134 118.602 333.152V340.798V340.78ZM116.731 385.728C120.055 385.547 121.236 384.405 120.127 382.63C119.019 383.59 116.803 383.246 116.731 385.728Z" fill="white"/>
</g>
<path d="M137.548 342.247C138.148 342.7 138.493 342.972 138.838 343.225C141.726 345.363 144.869 347.211 147.466 349.657C152.934 354.82 159.001 359.078 165.523 362.774C166.558 363.371 167.63 364.024 168.429 364.893C169.029 365.527 169.773 366.759 169.519 367.339C169.156 368.209 168.066 369.151 167.14 369.35C165.468 369.694 163.67 369.694 161.981 369.495C154.387 368.625 146.921 367.375 140.473 362.774C136.785 360.165 132.952 357.755 129.174 355.273C124.578 352.266 123.997 352.411 119.728 355.907C102.943 369.676 84.5233 380.655 64.0508 388.047C59.1825 389.804 54.187 391.199 49.2642 392.811C48.3923 393.101 47.6112 393.591 46.7756 393.989C46.7937 394.206 46.83 394.424 46.8482 394.641C47.8291 394.859 48.8101 395.185 49.791 395.257C52.8609 395.475 55.9672 395.873 59.019 395.674C63.415 395.384 67.9019 395.076 72.1344 393.989C76.8393 392.775 81.4715 390.982 85.8493 388.862C88.9011 387.376 91.9892 385.365 94.1327 382.793C98.6014 377.43 104.324 374.586 110.681 372.376C118.038 369.821 125.541 368.1 133.261 369.133C138.801 369.875 144.233 371.56 149.683 372.919C150.5 373.118 151.245 373.807 151.935 374.387C154.151 376.18 154.315 377.466 151.862 378.952C147.684 381.452 143.288 383.572 138.929 385.764C136.313 387.087 133.461 387.974 130.954 389.46C121.581 395.058 111.608 394.822 101.399 392.811C98.7468 392.286 96.0946 391.489 93.4061 391.38C90.9175 391.29 88.3198 391.688 85.9402 392.395C83.0882 393.246 80.4179 394.641 77.2934 395.964C78.0019 396.217 78.2562 396.381 78.5105 396.399C93.4969 397.214 104.832 404.823 113.915 416.056C118.002 421.11 121.145 426.944 124.669 432.451C127.103 436.256 129.483 440.097 131.79 443.992C132.262 444.789 132.643 446.401 132.262 446.728C131.572 447.325 130.155 447.688 129.301 447.398C126.54 446.456 123.833 445.278 121.199 444.01C114.841 440.948 108.556 437.723 102.18 434.662C97.3299 432.343 93.3153 428.937 89.7004 425.078C83.1427 418.121 76.6576 411.073 70.3361 403.899C67.4841 400.674 64.4868 398.446 59.9091 398.7C57.2025 398.844 54.4777 398.228 52.1162 397.975C54.7138 404.424 57.0935 410.784 59.8365 416.98C61.3442 420.404 63.4695 423.574 65.2861 426.853C66.2852 428.647 67.6113 430.93 66.0672 432.488C64.4505 434.118 62.2343 432.542 60.5267 431.527C53.8055 427.524 48.2106 422.378 44.5775 415.295C42.9971 412.215 41.1079 409.262 39.7637 406.091C37.5657 400.855 33.315 399.08 28.2468 398.971C23.9053 398.881 19.5274 399.37 15.1859 399.805C4.06866 400.892 -7.0304 401.29 -18.2203 400.71C-35.4593 399.805 -52.2986 396.725 -68.702 391.453C-85.6866 385.981 -101.636 378.282 -116.586 368.444C-136.059 355.635 -152.844 339.982 -166.85 321.376C-180.401 303.35 -190.737 283.657 -197.64 262.098C-201.709 249.398 -204.67 236.462 -205.887 223.273C-207.522 205.554 -207.504 187.764 -204.833 170.045C-201.164 145.75 -193.244 122.959 -181.091 101.726C-166.468 76.1812 -147.213 54.7488 -123.198 37.6102C-101.836 22.3557 -78.4023 11.6667 -52.9162 5.76052C-33.4611 1.24939 -13.6608 -0.562304 6.32117 0.959522C28.6828 2.66252 50.336 7.35481 71.0263 16.2865C111.735 33.8599 143.343 61.7963 165.941 99.842C178.438 120.876 186.413 143.685 190.591 167.853C193.298 183.452 193.461 199.159 192.607 214.794C190.991 243.944 182.725 271.337 168.684 296.973C161.763 309.6 153.57 321.286 144.197 332.174C142.398 334.257 140.382 336.178 138.475 338.171C138.583 338.334 138.711 338.515 138.82 338.678C141.563 337.265 144.396 336.015 147.012 334.384C155.877 328.859 162.707 321.249 168.211 312.463C169.428 310.542 170.282 308.187 170.609 305.941C171.481 299.962 174.042 294.889 178.057 290.523C184.433 283.584 190.773 276.555 199.601 272.551C206.25 269.544 213.243 267.804 220.546 267.605C224.833 267.496 226.068 269.616 223.67 273.095C219.347 279.363 214.751 285.414 210.264 291.574C209.901 292.063 209.483 292.516 209.192 293.023C203.125 303.495 193.243 308.386 182.18 311.611C179.873 312.282 177.585 313.042 175.314 313.858C171.608 315.18 168.538 317.282 166.249 320.615C164.651 322.952 162.58 324.963 160.382 327.518C161.29 327.282 161.781 327.246 162.18 327.047C170.736 322.735 179.819 321.811 189.21 322.644C202.035 323.804 213.116 329.366 223.761 336.142C228.448 339.131 233.389 341.74 238.148 344.62C239.093 345.2 239.765 346.233 240.564 347.066C239.565 347.881 238.675 349.077 237.53 349.421C235.75 349.947 233.825 350.001 231.936 350.074C222.98 350.418 214.006 350.472 205.069 351.052C197.476 351.541 190.409 349.512 183.416 347.211C175.078 344.457 166.885 341.214 158.638 338.171C158.22 338.008 157.803 337.826 157.385 337.645C153.588 335.924 150.028 335.779 146.304 338.225C143.706 339.928 140.618 340.888 137.457 342.319L137.548 342.247ZM60.2361 383.916C60.3814 384.133 60.5268 384.351 60.6539 384.568C62.3796 383.916 64.069 383.119 65.8492 382.63C67.6658 382.122 69.1735 381.651 69.2098 379.26C69.2098 378.463 70.1363 377.575 70.8084 376.905C78.1472 369.658 86.4488 363.716 95.368 358.589C100.654 355.545 105.795 352.266 110.972 349.041C113.988 347.157 115.731 344.512 115.532 340.78C115.423 338.75 115.532 336.703 115.495 334.674C115.386 326.974 116.622 319.492 119.183 312.263C122.271 303.549 128.411 297.154 135.859 292.009C139.564 289.436 143.397 287.045 147.339 284.834C148.302 284.291 150.1 284.472 151.081 285.052C151.735 285.432 151.953 287.208 151.735 288.222C151.263 290.414 150.391 292.516 149.628 294.636C146.467 303.332 142.998 311.937 140.218 320.742C137.984 327.826 135.386 334.511 129.755 339.638C129.446 339.928 129.319 340.417 129.101 340.834C129.919 340.834 130.391 340.544 130.736 340.145C136.349 333.641 142.235 327.355 147.503 320.579C166.231 296.538 178.965 269.634 184.724 239.632C186.522 230.248 188.084 220.737 188.575 211.225C189.247 198.054 188.793 184.883 186.649 171.748C184.433 158.142 181.254 144.844 176.349 132.036C165.196 102.994 148.229 77.8479 125.286 56.7417C106.285 39.2769 84.7049 26.1059 60.5631 17.1199C47.7746 12.3551 34.6229 8.93099 21.017 7.19176C7.7199 5.48876 -5.50451 3.85824 -19.0196 5.3076C-31.8444 6.68449 -44.542 8.35125 -57.0398 11.6667C-86.0863 19.3482 -111.99 33.0084 -134.606 52.7197C-168.176 82.0149 -189.865 118.43 -198.621 162.255C-201.709 177.727 -203.653 193.38 -202.472 209.232C-201.437 223.219 -199.856 237.15 -196.114 250.738C-185.015 291.139 -163.489 324.891 -131.3 351.632C-102.253 375.763 -68.7928 390.112 -31.3902 395.094C-25.9951 395.819 -20.4183 395.982 -14.9869 395.62C-9.15576 395.239 -3.41549 393.627 2.41561 393.101C10.0632 392.395 17.7472 392.105 25.413 391.888C30.136 391.761 33.0062 389.478 35.1679 385.456C37.3659 381.362 39.7455 377.285 42.5248 373.571C49.2279 364.64 57.7111 358.281 69.1917 357.012C74.0418 356.469 78.9465 356.143 83.833 356.016C85.1409 355.98 86.4669 357.121 87.7749 357.719C87.1936 358.806 86.8302 360.128 85.9765 360.907C82.7249 363.915 79.2553 366.705 75.9492 369.658C70.6994 374.368 65.4859 379.133 60.2724 383.88L60.2361 383.916ZM179.183 334.928C179.565 336.305 179.801 337.211 180.128 338.388C176.458 337.935 175.568 334.149 172.607 333.025C172.734 333.388 172.825 333.641 172.916 333.895C173.189 334.747 173.461 335.616 173.752 336.468C172.934 336.015 172.062 335.634 171.299 335.091C170.427 334.457 169.646 333.678 168.829 332.953C168.702 333.116 168.575 333.261 168.429 333.424C169.265 334.366 170.155 335.272 170.918 336.268C171.245 336.721 171.299 337.374 171.481 337.935C170.882 337.845 170.191 337.881 169.683 337.627C168.684 337.102 167.721 336.486 166.849 335.779C165.396 334.602 164.179 333.08 161.962 334.511C161.526 334.801 160.455 334.113 159.674 333.859C159.201 333.714 158.711 333.569 158.238 333.406C158.148 333.605 158.057 333.804 157.966 334.004C158.475 334.348 158.947 334.801 159.51 335.018C163.888 336.776 168.211 338.696 172.698 340.145C180.055 342.537 187.485 344.747 194.951 346.758C199.928 348.099 205.033 347.773 210.192 347.428C217.149 346.957 224.179 347.284 231.173 347.265C232.226 347.265 233.298 347.265 234.352 347.265C233.879 346.323 233.371 345.889 232.807 345.526C227.921 342.41 223.18 339.022 218.093 336.287C212.153 333.098 206.05 330.072 199.728 327.772C190.882 324.547 181.636 325.398 172.48 326.703C170.791 326.938 169.138 327.391 167.466 327.753C172.898 327.898 178.239 327.319 183.525 327.608C188.829 327.898 194.224 328.551 199.31 329.982C204.397 331.413 209.211 333.895 214.061 336.087C222.017 339.693 226.886 342.863 227.013 344.077C224.96 344.421 222.944 344.783 220.909 345.073C220.673 345.109 220.255 344.928 220.128 344.729C218.729 342.446 216.568 341.396 214.533 341.015C214.606 342.229 214.678 343.551 214.769 344.892C214.479 345.001 214.206 345.128 213.915 345.236C212.934 344.167 211.863 343.171 210.991 342.03C210.083 340.834 209.429 339.439 208.502 338.261C208.084 337.718 207.267 337.5 206.631 337.12C206.631 337.826 206.413 338.624 206.667 339.203C207.067 340.145 207.903 340.924 208.339 341.848C208.793 342.809 209.011 343.878 209.392 345.146C205.723 345.11 205.832 341.83 203.906 340.399C204.597 342.084 205.196 343.57 205.814 345.073C205.341 345.417 204.869 345.762 204.379 346.106C203.688 345.037 203.034 343.95 202.326 342.881C200.128 339.566 197.966 336.232 195.714 332.953C195.205 332.228 194.406 331.703 193.752 331.087C193.57 331.304 193.389 331.522 193.207 331.757C195.132 334.131 197.04 336.504 198.983 338.859C200.509 340.707 200.727 341.83 199.637 343.497C196.313 339.584 193.007 335.707 189.719 331.848C189.574 331.975 189.428 332.102 189.283 332.228C190.827 335.145 194.115 337.011 194.26 340.87C193.007 340.309 191.935 339.584 191.063 338.66C189.447 336.975 188.048 335.073 186.359 333.478C185.759 332.899 184.615 332.917 183.706 332.645C183.888 333.569 183.797 334.674 184.288 335.381C185.596 337.301 187.23 339.004 188.575 340.906C189.065 341.595 189.156 342.591 189.447 343.443C189.21 343.588 188.992 343.733 188.756 343.878C184.742 342.048 183.089 337.537 179.183 334.928ZM82.852 400.004C91.8258 403.645 100.182 408.066 106.939 415.113C113.679 422.143 123.07 436.22 122.634 438.666C120.872 437.796 119.092 436.963 117.384 436.002C117.057 435.821 117.039 435.115 116.821 434.662C116.222 433.375 115.586 432.125 114.859 430.622C114.242 431.274 114.078 431.527 113.824 431.691C113.079 432.18 112.316 432.614 111.553 433.086C111.281 432.288 110.863 431.509 110.754 430.694C110.554 429.045 110.609 427.379 110.409 425.73C110.336 425.114 109.918 424.534 109.664 423.936C109.428 423.973 109.192 423.991 108.956 424.027C108.701 426.382 108.429 428.737 108.175 431.075L107.121 431.183C106.703 430.259 106.285 429.335 105.94 428.574C104.996 428.23 103.125 427.777 103.143 427.56C103.379 425.694 101.581 425.386 100.963 424.281C100.4 423.266 100.055 422.107 99.8003 420.965C99.4007 419.117 99.1282 417.233 98.8194 415.367C98.3471 418.652 97.7598 420.53 97.0574 421.001C95.259 417.614 95.9675 413.284 92.952 409.787C90.7358 413.9 94.823 417.541 92.8793 421.255C92.407 421.02 91.6623 420.911 91.5533 420.585C90.3543 417.016 89.2462 413.41 88.0837 409.715C87.902 410.657 87.7204 411.544 87.5205 412.541C84.9774 412.015 85.5405 409.678 84.7412 408.338C84.5959 408.265 84.5232 408.211 84.4506 408.211C84.1599 408.229 83.8511 408.211 83.5605 408.32C80.5632 409.298 78.7466 408.03 77.693 405.258C77.5841 404.986 77.3479 404.769 77.2208 404.497C76.4396 402.975 75.2589 402.341 72.9337 402.885C77.7657 408.265 82.3071 413.447 86.9938 418.519C93.2427 425.277 100.182 431.093 109.101 434.1C109.592 434.263 110.009 434.607 110.482 434.861C115.641 437.651 120.781 440.441 125.959 443.177C126.34 443.376 126.885 443.285 127.394 443.34C124.487 438.158 121.744 433.049 118.801 428.085C112.334 417.197 104.251 407.921 92.3889 402.667C89.3553 401.326 86.3398 399.714 82.8702 400.004H82.852ZM149.047 287.389C147.866 287.914 147.212 288.095 146.685 288.458C142.307 291.519 137.839 294.473 133.588 297.715C129.156 301.085 125.341 305.18 123.543 310.524C121.617 316.267 120.273 322.228 118.783 328.116C118.511 329.167 118.747 330.326 118.747 331.467C119.837 331.522 120.745 331.558 121.889 331.612C121.526 331.014 121.163 330.688 121.199 330.38C121.272 329.42 121.49 328.46 121.653 327.5C122.307 328.17 123.143 328.75 123.579 329.547C123.906 330.145 123.688 331.015 123.779 331.757C123.851 332.337 124.033 332.917 124.16 333.497L124.869 333.442C124.923 332.536 125.159 331.594 125.032 330.707C124.56 327.355 123.924 324.039 123.47 320.688C123.343 319.728 123.652 318.695 123.761 317.699L124.632 317.662C126.921 320.76 126.849 324.637 127.757 328.243C128.011 327.627 128.138 326.974 127.975 326.395C127.503 324.782 127.811 323.895 129.682 323.532C131.39 323.188 131.426 322.101 129.955 320.833C127.866 319.003 127.048 314.927 128.502 311.647C129.537 313.568 130.409 315.162 131.263 316.775C130.772 313.622 129.864 310.633 129.246 307.571C128.992 306.357 127.539 304.473 129.555 303.875C131.317 303.368 131.227 305.56 131.771 306.702C132.643 308.477 133.479 310.271 134.333 312.064C134.569 311.974 134.805 311.883 135.059 311.792C134.878 309.473 134.605 307.154 134.551 304.835C134.533 304.056 134.787 303.006 135.314 302.517C136.167 301.719 136.585 301.176 135.859 300.071C135.641 299.745 135.822 298.821 136.149 298.567C136.458 298.313 137.221 298.422 137.712 298.603C138.166 298.766 138.493 299.237 139.165 299.817C139.637 298.766 139.837 297.77 140.436 297.118C141.236 296.248 142.344 295.668 143.325 294.98C143.288 295.994 143.343 297.009 143.216 298.005C143.143 298.567 142.707 299.092 142.471 299.636C140.455 304.564 138.02 309.365 136.513 314.456C134.187 322.282 131.699 329.964 127.357 336.957C127.157 337.283 127.103 337.718 126.849 338.497C127.539 338.134 127.939 338.044 128.138 337.808C131.953 333.261 134.86 328.261 136.603 322.518C138.747 315.506 141.072 308.531 143.488 301.611C145.105 297.027 147.03 292.552 149.065 287.407L149.047 287.389ZM175.568 307.571C175.95 307.698 176.313 307.807 176.695 307.933C177.548 305.433 178.311 302.897 179.274 300.433C179.601 299.6 180.346 298.386 181 298.331C182.689 298.168 183.161 297.172 183.452 295.868C183.797 294.328 183.979 292.751 184.378 291.212C184.76 289.78 185.505 288.729 187.866 289.907C186.776 294.092 185.668 298.35 184.56 302.607C185.269 302.19 185.85 301.665 185.995 301.031C186.54 298.676 187.394 296.665 189.737 295.451C190.391 295.125 190.773 293.983 190.973 293.15C191.663 290.233 192.244 287.262 192.825 284.327C193.062 283.113 193.37 282.479 194.914 282.95C196.477 283.421 198.202 283.385 200.073 283.602C200.073 282.171 200.146 281.193 200.055 280.233C199.91 278.82 200.673 278.312 201.872 278.222C203.398 278.113 203.325 279.309 203.289 280.251C203.216 281.7 202.944 283.131 202.744 284.581C206.05 283.928 206.704 281.356 207.067 278.457C207.231 277.243 207.848 276.084 208.266 274.906C209.083 275.794 209.901 276.664 210.736 277.569C212.262 276.337 214.043 274.906 216.132 273.221C216.404 275.649 209.029 286.175 203.053 291.954C197.567 297.244 191.699 302.118 186.068 307.136C186.268 307.1 186.74 307.136 187.103 306.973C194.006 303.785 200.419 299.98 204.887 293.53C207.685 289.509 210.773 285.704 213.697 281.791C216.295 278.33 218.875 274.834 221.472 271.355C221.291 271.084 221.109 270.812 220.909 270.54C212.244 271.428 203.852 273.384 196.331 278.113C189.247 282.57 173.952 297.643 174.66 303.585C175.701 301.436 176.882 300.373 178.202 300.397C177.312 302.806 176.422 305.216 175.532 307.607L175.568 307.571ZM106.267 382.539C109.464 380.8 110.282 376.307 115.132 376.289C112.28 380.583 109.392 384.115 105.813 387.159C107.575 386.38 109.047 385.202 110.609 384.17C111.426 383.626 112.534 382.883 113.297 383.065C114.75 383.427 115.332 382.811 116.095 381.851C117.893 379.622 119.746 377.448 121.672 375.347C122.017 374.966 122.816 375.021 123.397 374.876C123.361 375.546 123.506 376.325 123.216 376.85C122.616 377.937 121.78 378.898 121.036 379.93C121.199 380.039 121.363 380.148 121.508 380.256C122.271 379.351 122.979 378.372 123.833 377.557C124.269 377.14 124.959 376.977 125.541 376.687C125.486 377.358 125.632 378.137 125.359 378.698C124.923 379.568 124.196 380.311 123.597 381.09C123.779 381.235 123.96 381.398 124.142 381.543C125.014 380.51 125.904 379.496 126.721 378.427C127.684 377.177 128.52 375.818 129.592 374.658C129.919 374.296 130.791 374.405 131.39 374.296C131.426 374.876 131.699 375.582 131.481 376.035C130.754 377.485 129.846 378.825 128.956 380.275C132.407 379.912 133.134 379.423 135.405 376.289C136.095 375.329 136.567 373.825 138.42 374.513C138.475 375.419 138.547 376.361 138.602 377.412C139.092 377.358 139.455 377.358 139.801 377.249C140.727 376.959 141.653 376.325 142.544 376.361C143.288 376.398 143.997 377.177 144.723 377.629C144.197 378.137 143.742 378.825 143.107 379.115C141.89 379.677 140.491 379.876 139.292 380.456C129.392 385.184 119.092 388.608 108.138 389.822C107.848 389.858 107.575 390.148 106.758 390.619C114.078 390.964 120.691 391.054 126.958 387.992C134.042 384.532 141.254 381.289 148.375 377.919C148.847 377.684 149.501 377.177 149.519 376.778C149.519 376.379 148.901 375.691 148.447 375.6C142.525 374.242 136.658 372.43 130.663 371.778C123.161 370.944 116.204 374.151 109.156 376.216C106.467 377.013 103.888 378.245 101.09 379.351C102.362 381.325 101.744 382.521 100.436 383.626C99.2917 384.586 98.2745 385.692 97.2027 386.742L97.9656 387.558C100.491 385.112 103.016 382.666 105.74 380.021C105.977 381.09 106.104 381.67 106.267 382.43V382.539ZM45.9218 389.405C46.6666 389.405 47.0117 389.514 47.2297 389.405C50.554 387.413 54.187 385.764 57.1116 383.264C63.9782 377.394 70.4996 371.125 77.1663 365.038C79.4551 362.937 81.7621 360.853 84.0509 358.752C83.288 358.299 82.852 358.262 82.4342 358.317C78.5832 358.878 74.7321 359.657 70.8629 360.002C63.7965 360.636 57.4749 363.027 52.1706 367.665C45.8128 373.227 41.0171 380.075 37.0934 387.539C36.8391 388.029 36.7664 388.626 36.6029 389.17C36.7664 389.297 36.9481 389.406 37.1115 389.532C39.8908 385.927 41.1261 380.891 46.7029 379.024C45.8854 381.289 45.2315 383.083 44.5594 384.894C45.7583 383.699 46.6484 382.34 47.2297 380.872C48.1198 378.644 48.7374 376.307 49.6275 374.079C49.8818 373.444 50.6629 373.01 51.1897 372.484C51.4259 372.629 51.662 372.774 51.9163 372.919C51.6257 375.039 51.335 377.158 51.0989 378.843C52.3705 379.006 53.6239 379.169 55.4223 379.387C53.0063 376.47 55.0408 373.952 55.4404 371.343C55.5313 370.763 56.2216 370.165 56.7847 369.803C57.039 369.64 58.0199 370.038 58.0381 370.256C58.1108 370.926 57.9654 371.651 57.7656 372.303C57.6021 372.883 57.257 373.39 57.0027 373.934C57.2388 374.042 57.475 374.133 57.7111 374.242C58.0562 373.408 58.4922 372.593 58.7102 371.723C59.2552 369.622 59.5821 367.448 60.2179 365.364C60.4723 364.549 61.3079 363.915 61.871 363.19C62.198 363.335 62.5068 363.462 62.8338 363.607C62.416 366.252 61.9981 368.915 61.5803 371.56C61.8347 371.85 62.0708 372.122 62.3251 372.412C62.7793 371.524 63.1426 370.6 63.6875 369.785C65.0318 367.719 66.4123 365.69 67.8292 363.698C69.5731 361.252 69.8819 361.27 71.5532 364.06C72.3343 363.498 73.0427 362.774 73.8965 362.466C74.6958 362.194 75.6585 362.375 76.5668 362.357C76.1853 363.082 75.9673 364.024 75.3679 364.495C73.0427 366.397 70.4632 368.009 68.2289 370.02C64.0872 373.734 60.2179 377.774 56.0399 381.47C52.9699 384.188 49.5912 386.561 45.9218 389.405ZM112.498 355.943C111.844 355.78 111.444 355.545 111.172 355.635C108.047 356.65 104.759 357.32 101.871 358.824C91.9529 363.969 82.8702 370.419 74.3143 377.593C73.7693 378.046 73.3697 378.68 72.5159 379.659C78.6195 377.738 104.741 362.158 112.498 355.943ZM131.935 352.845C133.479 355.001 135.532 355.69 137.639 354.911C139.655 354.168 141.635 353.371 143.688 352.773C144.106 352.646 144.742 353.298 145.268 353.588C144.96 354.041 144.76 354.657 144.342 354.893C142.816 355.726 141.217 356.433 139.655 357.194C141.744 357.502 143.67 357.973 143.597 360.871C146.867 360.092 149.755 359.386 153.116 358.589C151.081 356.976 149.664 355.871 148.266 354.748C144.851 351.958 141.599 348.932 137.984 346.45C134.206 343.841 133.624 344.095 130.155 346.867C129.81 347.157 129.337 347.338 129.101 347.7C128.647 348.371 128.32 349.113 127.957 349.82C128.829 349.929 129.791 350.309 130.573 350.074C132.353 349.53 134.024 348.606 135.804 348.044C136.494 347.827 137.348 348.189 138.148 348.298C137.784 348.968 137.603 349.929 137.058 350.273C135.441 351.269 133.679 352.012 131.935 352.864V352.845ZM49.028 406.78C46.1942 408.374 44.959 405.167 42.7065 404.37C43.1061 405.511 43.6329 406.617 44.4867 406.979C46.1761 407.704 48.0653 407.957 49.8637 408.501C51.0262 408.845 52.1343 409.352 53.5876 409.914C51.0989 412.523 48.9736 411.236 46.83 410.53C47.5385 412.215 48.1561 413.7 48.8282 415.15C48.9735 415.458 49.3187 415.766 49.6457 415.856C51.8982 416.545 54.1689 417.179 56.3305 417.795C55.1135 414.099 53.9145 410.349 52.6248 406.617C51.0444 402.015 48.029 398.518 43.9599 395.982C43.2333 395.529 41.5076 395.475 41.1079 395.964C40.454 396.761 40.2723 398.156 40.3813 399.243C40.454 399.895 41.3622 400.819 42.0525 401C43.9236 401.49 45.8854 401.598 47.7928 401.979C48.2469 402.069 48.9372 402.522 48.9735 402.885C49.1189 404.116 49.028 405.385 49.028 406.78ZM155.55 362.502C158.402 365.654 162.053 367.14 164.524 365.853C162.507 364.567 160.636 363.408 158.783 362.176C155.386 359.947 152.48 360.31 149.192 363.589C151.426 363.208 153.37 362.864 155.55 362.484V362.502ZM61.8528 429.118L62.3796 428.629C61.98 424.009 56.9845 419.534 51.2806 419.172C51.989 419.878 52.3523 420.585 52.7883 420.639C56.2397 420.983 57.5113 423.701 59.128 426.147C59.8546 427.252 60.9445 428.14 61.8528 429.118ZM199.365 286.773C197.512 289.69 195.423 292.987 193.152 296.538C196.368 296.067 199.601 290.197 199.365 286.773ZM125.795 345.508C123.706 344.131 118.801 346.631 118.22 349.059C120.8 347.845 123.143 346.758 125.795 345.508ZM118.602 340.78C118.965 340.78 119.31 340.78 119.673 340.761C119.51 338.207 119.364 335.652 119.201 333.116C119.001 333.116 118.801 333.134 118.602 333.152V340.798V340.78ZM116.731 385.728C120.055 385.547 121.236 384.405 120.127 382.63C119.019 383.59 116.803 383.246 116.731 385.728Z" stroke="black" stroke-width="2" mask="url(#path-1-inside-1_2073_8)"/>
<path d="M-9.79309 167.744C-5.48789 167.744 -1.437 167.762 2.61388 167.744C17.5458 167.671 32.4596 167.617 47.3916 167.472C54.6941 167.399 61.4335 168.812 67.1192 173.795C71.0611 177.255 74.24 181.277 74.4217 186.603C74.7123 195.626 75.2028 204.738 74.2037 213.652C73.1683 222.873 66.5743 228.544 58.3272 232.167C57.0738 232.729 55.5842 232.747 53.8585 233.073C54.3489 233.599 54.6577 234.052 55.0937 234.341C61.0156 238.345 64.9212 243.925 67.0829 250.611C69.6079 258.419 71.7332 266.336 74.0402 274.217C75.4571 279.054 76.9285 283.891 78.3273 288.729C78.6906 290.015 78.854 291.356 79.1629 292.968C76.9104 292.968 74.9485 293.149 73.0411 292.877C72.3145 292.769 71.3881 291.7 71.1519 290.885C69.2991 284.761 67.6279 278.583 65.8113 272.441C63.9221 266.01 62.0147 259.597 59.9621 253.219C58.5088 248.69 55.8748 244.849 52.4961 241.498C48.5542 237.603 43.813 235.573 38.2907 235.555C25.9201 235.519 13.5676 235.537 1.19698 235.555C0.0707245 235.555 -1.03738 235.736 -2.41795 235.863V292.805H-9.55695V227.348C-10.4289 228.526 -11.0283 229.323 -11.6278 230.138C-17.7495 238.563 -26.0875 243.472 -36.3327 244.27C-46.905 245.085 -57.6044 245.719 -68.1222 243.835C-81.5464 241.407 -90.0297 232.82 -94.68 220.283C-97.1505 213.652 -97.9498 206.749 -97.8226 199.629C-97.6046 186.658 -97.6773 173.668 -97.9134 160.696C-98.0588 152.398 -96.8962 144.355 -93.2994 136.945C-87.0869 124.136 -76.9687 116.672 -62.3456 116.364C-53.9895 116.183 -45.6153 116.183 -37.241 116.309C-21.1101 116.563 -7.03195 129.48 -5.17908 145.55C-4.97926 147.344 -4.63411 149.119 -4.3798 150.913C-4.14365 152.543 -4.63412 153.558 -6.50516 153.522C-13.1537 153.377 -11.8276 154.572 -12.4089 148.449C-13.6623 135.296 -23.7804 123.448 -38.9849 123.194C-45.9241 123.085 -52.8633 123.158 -59.7843 123.121C-73.3175 123.031 -81.8189 130.296 -87.1232 142.054C-90.1387 148.739 -90.4838 155.967 -90.502 163.124C-90.5565 176.856 -90.502 190.589 -90.1387 204.322C-89.9025 213.688 -86.996 222.257 -80.4565 229.269C-75.4065 234.686 -68.976 237.367 -61.728 237.584C-53.6807 237.838 -45.5789 237.911 -37.568 237.276C-22.5452 236.081 -14.171 223.725 -12.4816 213.127C-12.0819 210.681 -11.8821 208.199 -11.5915 205.717C-11.537 205.282 -11.5006 204.521 -11.3008 204.467C-8.97565 203.851 -9.77493 201.966 -9.75677 200.553C-9.70227 190.372 -9.72043 180.172 -9.72043 169.99C-9.72043 169.175 -9.72043 168.378 -9.72043 167.78L-9.79309 167.744ZM-2.36343 174.084C-2.47243 175.081 -2.5451 175.443 -2.5451 175.806C-2.5451 185.607 -2.5451 195.408 -2.5451 205.209C-2.5451 212.076 -2.41795 218.924 -2.49061 225.79C-2.50877 228.671 -2.67226 228.689 0.234207 228.689C13.5676 228.689 26.901 228.761 40.2344 228.671C43.595 228.653 47.0101 228.309 50.3162 227.693C59.1809 226.044 66.2291 219.522 67.319 210.916C68.1546 204.322 68.1728 197.51 67.6642 190.861C67.1192 183.741 63.1955 178.396 56.2381 175.987C53.5133 175.045 50.5342 174.519 47.6459 174.447C36.2744 174.193 24.9028 174.175 13.5313 174.103C8.28149 174.066 3.01352 174.103 -2.39977 174.103L-2.36343 174.084Z" fill="white"/>
<path d="M84.0867 130.928C83.1966 133.156 82.1975 134.877 81.8523 136.725C81.3437 139.533 83.796 142.178 86.7025 142.323C88.3919 142.414 90.0813 142.323 91.9886 142.323C90.6989 145.294 86.8297 146.146 82.5608 144.878C77.8378 143.483 76.4209 140.385 77.5108 133.247C76.657 133.718 76.0212 134.243 75.3128 134.388C73.2964 134.787 71.1711 135.547 69.2637 135.221C64.1411 134.352 61.7251 130.058 63.033 124.985C64.904 117.738 70.3355 114.079 76.6207 115.891C79.5998 116.742 81.3982 118.97 82.47 121.724C82.7243 122.395 82.2701 123.826 81.6888 124.206C80.8532 124.75 79.5635 124.931 78.5644 124.75C78.0921 124.659 77.6743 123.373 77.529 122.594C77.2565 121.144 78.2011 119.333 76.0757 118.536C74.1139 117.793 71.934 118.264 70.4263 120.202C69.3727 121.543 68.4099 123.065 67.865 124.659C66.3754 129.062 69.5907 132.612 74.2047 132.123C77.0385 131.815 79.1638 130.692 81.2347 128.681C86.43 123.645 93.5145 124.713 96.2575 130.656C97.3292 132.975 97.1113 135.203 95.876 137.359C94.8043 139.243 93.9687 139.406 92.3156 138.029C90.2992 136.345 88.3555 134.569 86.3573 132.83C85.7942 132.341 85.2129 131.888 84.0867 130.946V130.928ZM91.48 134.026C91.7888 133.953 92.0976 133.899 92.4064 133.826C92.4064 132.812 92.8242 131.435 92.3156 130.855C91.371 129.75 89.9359 129.025 88.6099 128.337C88.2647 128.156 87.3019 128.482 87.1203 128.844C86.9386 129.206 87.1929 130.058 87.5381 130.402C88.7915 131.67 90.1539 132.83 91.48 134.044V134.026Z" fill="white"/>
<path d="M46.0258 108.61C47.2974 108.483 48.3691 108.61 49.1866 108.248C51.3483 107.233 52.9105 107.27 53.3283 109.951C54.8179 109.715 56.1621 109.299 57.47 109.353C61.2121 109.498 63.2284 111.545 62.9196 115.295C62.6653 118.43 61.9569 121.546 61.1757 124.589C60.6853 126.474 60.5581 128.068 61.9932 129.553C62.2112 129.771 62.1748 130.242 62.3928 131.202C59.1412 130.586 56.2348 130.043 53.0558 129.445C53.4191 128.648 53.51 128.14 53.8006 127.887C57.8878 124.426 57.3973 119.335 58.4146 114.806C58.7779 113.139 56.3982 111.636 54.7815 112.542C53.6916 113.139 52.529 114.226 52.1657 115.35C51.3119 117.977 50.8033 120.749 50.4218 123.502C50.2765 124.499 50.8578 125.604 51.1666 126.637C51.3846 127.379 51.6934 128.086 51.8387 128.485C45.8078 128.086 39.8859 127.687 33.419 127.253C33.964 126.51 34.3636 125.495 35.1084 125.024C36.38 124.245 36.7796 123.376 36.6888 121.89C36.5435 119.48 36.5435 117.053 36.7614 114.661C36.9431 112.687 36.3981 111.491 34.4363 110.984C33.9095 110.839 33.4917 110.368 32.7651 109.878C35.1811 107.722 38.0875 107.904 40.885 106.907C40.885 112.451 40.885 117.705 40.885 122.959C40.885 124.807 41.8114 125.604 43.5553 125.079C44.2274 124.879 45.0994 124.191 45.2629 123.557C46.153 120.133 46.9341 116.69 47.5517 113.212C47.697 112.36 47.1339 111.346 46.8251 110.44C46.6253 109.86 46.3346 109.299 46.0258 108.61Z" fill="white"/>
<path d="M15.4759 131.819C14.386 128.992 13.3324 126.347 12.3697 123.684C12.2425 123.304 12.4786 122.398 12.6421 122.38C13.2416 122.307 14.0409 122.271 14.4587 122.615C15.258 123.267 15.8211 124.21 16.5295 124.989C18.5641 127.217 21.1799 127.924 23.941 127.036C25.2671 126.619 27.0292 125.351 27.2471 124.21C27.5015 122.923 26.5568 120.985 25.5214 119.97C24.3588 118.829 22.5241 118.358 20.9437 117.687C18.4006 116.6 15.6213 115.894 13.2961 114.463C8.86373 111.709 8.95456 105.187 13.2234 102.234C15.5304 100.639 17.9646 99.6973 20.8711 100.241C21.525 100.368 22.3243 99.8604 23.0146 99.5343C23.6685 99.2263 24.2317 98.7552 25.1036 98.1936C26.3025 101.781 27.4106 105.096 28.5187 108.412L27.6286 109.009C26.6113 108.122 25.6667 107.143 24.5586 106.382C22.7966 105.187 21.0527 103.828 19.0909 103.14C17.3106 102.524 15.7303 103.737 14.8583 105.404C14.0227 106.998 14.9673 108.321 16.1299 109.118C17.7103 110.205 19.4905 111.039 21.2707 111.781C23.4142 112.687 25.7394 113.176 27.8103 114.191C31.2617 115.912 33.2235 119.717 32.5151 122.67C31.4978 126.8 27.6468 129.971 23.6322 129.989C22.288 129.989 20.8892 129.88 19.5813 130.152C18.2916 130.424 17.0745 131.13 15.4578 131.819H15.4759Z" fill="white"/>
<path d="M99.5436 170.17C101.996 175.551 105.502 179.681 111.769 181.022C111.478 180.279 111.315 179.681 111.042 179.138C107.918 173.014 110.297 167.724 117.001 166.384C121.088 165.568 124.939 166.257 127.882 169.681C130.407 172.634 130.734 176.656 128.626 179.917C126.828 182.689 124.321 184.428 121.124 185.316C111.224 188.033 101.233 182.816 98.054 173.087C97.7997 172.326 98.2902 171.33 98.4173 170.442C98.7988 170.351 99.1621 170.261 99.5436 170.17ZM117.4 180.66C120.47 180.062 124.158 179.609 126.792 176.547C127.863 175.297 127.918 174.264 126.792 173.014C123.758 169.627 115.438 170.786 113.513 174.917C112.405 177.308 114.367 180.696 117.418 180.66H117.4Z" fill="white"/>
<path d="M120.728 189.792C122.035 189.502 122.671 189.194 123.271 189.249C126.995 189.557 131.173 195.137 130.7 199.068C130.083 204.159 125.778 207.909 121.236 206.804C118.856 206.224 116.368 205.029 114.533 203.398C111.736 200.934 109.447 197.872 106.976 195.028C106.595 194.593 106.413 193.977 106.141 193.452C105.886 193.615 105.632 193.778 105.378 193.941C105.105 196.894 104.724 199.847 104.615 202.8C104.597 203.434 105.578 204.05 105.941 204.757C106.304 205.427 106.468 206.188 106.722 206.913C105.995 206.895 105.142 207.094 104.542 206.804C99.5103 204.304 99.6193 204.304 100.546 198.651C101.054 195.535 101.182 192.347 101.509 189.213C101.599 188.27 101.763 187.328 101.999 185.68C103.707 187.546 105.014 188.941 106.286 190.372C108.775 193.108 111.009 196.115 113.807 198.488C115.659 200.046 118.184 201.079 120.582 201.659C123.035 202.239 125.451 200.445 126.304 198.199C127.213 195.771 125.887 194.177 124.197 192.745C123.234 191.93 122.272 191.133 120.764 189.847L120.728 189.792Z" fill="white"/>
<path d="M117.691 226.766C119.217 223.378 120.634 220.353 121.887 217.255C122.051 216.838 121.451 216.095 121.179 215.497C120.779 214.628 120.38 213.758 120.289 212.689C123.032 213.287 124.376 215.425 126.011 217.164C126.283 217.436 126.065 218.342 125.866 218.867C124.213 222.907 122.578 226.947 120.816 230.933C119.853 233.107 119.417 233.071 117.6 231.477C111.043 225.806 104.467 220.19 97.9091 214.537C96.8373 213.613 95.5839 212.707 96.7465 210.968C97.6366 209.628 98.5085 209.573 99.6711 210.624C105.212 215.624 110.77 220.57 116.329 225.552C116.656 225.842 116.983 226.132 117.709 226.766H117.691Z" fill="white"/>
<path d="M114.458 145.878C118.581 146.839 120.398 149.937 123.631 151.875C122.324 152.709 121.47 153.397 120.507 153.868C113.731 157.129 106.919 160.3 100.198 163.633C99.5805 163.941 99.2535 165.082 99.0537 165.898C98.9084 166.55 99.1808 167.293 98.872 168.162C94.803 165.608 94.5486 160.861 92.169 157.383C92.387 157.147 92.6231 156.912 92.8411 156.676C93.6041 157.202 94.4578 157.636 95.1299 158.289C96.238 159.357 97.2371 159.575 98.7267 158.832C103.922 156.278 109.172 153.886 114.44 151.477C116.002 150.77 116.511 149.846 115.566 148.306C115.221 147.744 115.021 147.11 114.476 145.897L114.458 145.878Z" fill="white"/>
<path d="M38.9121 104.57C36.9866 104.462 35.8604 103.755 35.8967 101.962C35.933 100.186 37.0593 99.4252 38.6941 99.389C40.4017 99.3528 41.3463 100.241 41.3826 101.998C41.4371 103.9 40.1837 104.389 38.9121 104.57Z" fill="white"/>
</g>
<defs>
<filter id="filter0_d_2073_8" x="-211" y="0.430664" width="455.564" height="455.069" filterUnits="userSpaceOnUse" color-interpolation-filters="sRGB">
<feFlood flood-opacity="0" result="BackgroundImageFix"/>
<feColorMatrix in="SourceAlpha" type="matrix" values="0 0 0 0 0 0 0 0 0 0 0 0 0 0 0 0 0 0 127 0" result="hardAlpha"/>
<feOffset dy="4"/>
<feGaussianBlur stdDeviation="2"/>
<feComposite in2="hardAlpha" operator="out"/>
<feColorMatrix type="matrix" values="0 0 0 0 0 0 0 0 0 0 0 0 0 0 0 0 0 0 0.25 0"/>
<feBlend mode="normal" in2="BackgroundImageFix" result="effect1_dropShadow_2073_8"/>
<feBlend mode="normal" in="SourceGraphic" in2="effect1_dropShadow_2073_8" result="shape"/>
</filter>
<filter id="filter1_i_2073_8" x="-207" y="0.430664" width="447.564" height="451.069" filterUnits="userSpaceOnUse" color-interpolation-filters="sRGB">
<feFlood flood-opacity="0" result="BackgroundImageFix"/>
<feBlend mode="normal" in="SourceGraphic" in2="BackgroundImageFix" result="shape"/>
<feColorMatrix in="SourceAlpha" type="matrix" values="0 0 0 0 0 0 0 0 0 0 0 0 0 0 0 0 0 0 127 0" result="hardAlpha"/>
<feOffset dy="4"/>
<feGaussianBlur stdDeviation="2"/>
<feComposite in2="hardAlpha" operator="arithmetic" k2="-1" k3="1"/>
<feColorMatrix type="matrix" values="0 0 0 0 0 0 0 0 0 0 0 0 0 0 0 0 0 0 0.25 0"/>
<feBlend mode="normal" in2="shape" result="effect1_innerShadow_2073_8"/>
</filter>
</defs>
</svg>
