<svg width="321" height="230" viewBox="0 0 321 230" fill="none" xmlns="http://www.w3.org/2000/svg">
<path d="M0.64 25.52C0.8 25.52 0.96 25.52 2.112 25.52V4.4H0.64V3.92H8.8C12.288 3.92 14.304 6.416 14.304 8.976C14.304 11.312 12.64 13.904 8.928 14.512C13.312 14.672 15.584 17.264 15.584 19.952C15.584 22.928 12.768 26 6.88 26H0.64V25.52ZM5.312 4.4L5.152 14.352C5.632 14.352 6.976 14.352 7.04 14.352C8.896 14.352 11.104 12.688 11.104 8.976C11.104 5.808 9.184 4.4 7.04 4.4H5.312ZM5.312 25.52H6.88C10.272 25.52 12.32 23.504 12.32 19.952C12.32 16.976 9.888 14.64 7.04 14.64H5.312V25.52ZM30.3948 4.4H23.4508V14.768C24.1228 14.768 26.2988 14.768 29.5308 14.768C30.2668 14.768 30.5548 14.48 30.5548 13.744H31.0348C31.0348 14.064 31.0348 14.064 31.0348 16.368H30.5548V16.208C30.5548 15.6 30.1388 15.248 29.5308 15.248H23.4508V25.52H30.3948C31.7068 25.52 32.5708 24.656 32.5708 23.344H33.0508C33.0508 23.984 33.0508 21.392 33.0508 26H18.7788V25.52C18.9388 25.52 19.0988 25.52 20.2508 25.52V4.4C19.7708 4.4 19.3228 4.4 18.7788 4.4V3.92H33.0508C33.0508 4.56 33.0508 1.968 33.0508 6.576H32.5708C32.5708 5.264 31.7068 4.4 30.3948 4.4ZM47.8773 4.4H40.9333V14.768C41.6053 14.768 43.7813 14.768 47.0133 14.768C47.7493 14.768 48.0373 14.48 48.0373 13.744H48.5173C48.5173 14.064 48.5173 14.064 48.5173 16.368H48.0373V16.208C48.0373 15.6 47.6213 15.248 47.0133 15.248H40.9333V25.52H47.8773C49.1893 25.52 50.0533 24.656 50.0533 23.344H50.5333C50.5333 23.984 50.5333 21.392 50.5333 26H36.2613V25.52C36.4213 25.52 36.5813 25.52 37.7333 25.52V4.4C37.2533 4.4 36.8053 4.4 36.2613 4.4V3.92H50.5333C50.5333 4.56 50.5333 1.968 50.5333 6.576H50.0533C50.0533 5.264 49.1893 4.4 47.8773 4.4ZM53.7437 3.92H61.9037C65.3917 3.92 67.4077 6.416 67.4077 8.976C67.4077 12.368 64.7517 14.16 61.8717 14.672L65.0717 19.888C66.7997 22.736 67.5997 23.568 68.1757 23.568C68.3677 23.568 68.5597 23.472 68.7197 23.312L68.8157 23.472C68.1757 25.072 67.6317 26 66.4797 26C65.4237 26 64.8477 25.552 62.4797 21.744L58.4157 15.184V25.52H59.8877V26C57.8717 26 55.7597 26 53.7437 26V25.52C53.9037 25.52 54.0637 25.52 55.2157 25.52V4.4H53.7437V3.92ZM58.4157 4.4V14.352C58.8957 14.352 60.0797 14.352 60.1437 14.352C61.9997 14.352 64.2077 12.688 64.2077 8.976C64.2077 5.808 62.2877 4.4 60.1437 4.4H58.4157ZM77.3195 25.744C79.3675 25.744 82.5355 24.752 82.5355 21.616C82.5355 14.992 72.0075 16.752 72.0075 10.096C72.0075 6.192 75.5915 3.792 79.1115 3.792C80.9995 3.792 82.7595 4.496 84.2315 6.032C84.2315 6.672 84.2315 4.08 84.2315 8.688H83.7515C83.7515 5.968 81.4155 4.272 79.1435 4.272C76.9995 4.272 74.4395 5.84 74.4395 8.496C74.4395 14.128 84.7755 12.144 84.7755 20.368C84.7755 23.184 82.2795 26.224 77.3835 26.224C75.3035 26.224 73.6075 25.648 72.0075 23.984C72.0075 23.344 72.0075 25.936 72.0075 21.328H72.4875C72.4875 23.856 74.7915 25.744 77.3195 25.744ZM97.91 25.52C98.07 25.52 98.23 25.52 99.382 25.52V4.4H97.91V3.92H106.07C109.558 3.92 111.574 6.416 111.574 8.976C111.574 11.312 109.91 13.904 106.198 14.512C110.582 14.672 112.854 17.264 112.854 19.952C112.854 22.928 110.038 26 104.15 26H97.91V25.52ZM102.582 4.4L102.422 14.352C102.902 14.352 104.246 14.352 104.31 14.352C106.166 14.352 108.374 12.688 108.374 8.976C108.374 5.808 106.454 4.4 104.31 4.4H102.582ZM102.582 25.52H104.15C107.542 25.52 109.59 23.504 109.59 19.952C109.59 16.976 107.158 14.64 104.31 14.64H102.582V25.52ZM116.049 15.344C116.049 8.464 119.441 3.792 123.633 3.792C127.857 3.792 131.057 8.496 131.057 15.376C131.057 22.256 127.505 26.224 123.569 26.224C119.505 26.224 116.049 22.32 116.049 15.344ZM119.249 15.344C119.249 19.632 120.337 25.744 123.569 25.744C126.801 25.744 127.889 19.6 127.889 15.376C127.889 11.12 126.833 4.272 123.665 4.272C120.433 4.272 119.249 11.12 119.249 15.344ZM142.704 4.4C141.232 4.4 140.88 4.4 140.624 4.4V25.52H142.096V26C140.08 26 137.968 26 135.952 26V25.52C136.112 25.52 136.464 25.52 137.616 25.52V4.4C137.232 4.4 136.88 4.4 135.408 4.4C134.096 4.4 133.168 5.264 133.168 6.576H132.688C132.688 1.968 132.688 4.56 132.688 3.92H145.36C145.36 4.56 145.36 1.968 145.36 6.576H144.88C144.88 5.264 144.016 4.4 142.704 4.4ZM158.561 4.4C157.089 4.4 156.737 4.4 156.481 4.4V25.52H157.953V26C155.937 26 153.825 26 151.809 26V25.52C151.969 25.52 152.321 25.52 153.473 25.52V4.4C153.089 4.4 152.737 4.4 151.265 4.4C149.953 4.4 149.025 5.264 149.025 6.576H148.545C148.545 1.968 148.545 4.56 148.545 3.92H161.217C161.217 4.56 161.217 1.968 161.217 6.576H160.737C160.737 5.264 159.873 4.4 158.561 4.4ZM175.826 23.344H176.306C176.306 23.984 176.306 21.392 176.306 26H164.402V25.52C164.658 25.52 164.562 25.52 165.874 25.52V4.4H164.402V3.92H170.546V4.4C169.714 4.4 169.298 4.4 169.074 4.4V25.52C170.29 25.52 171.314 25.52 173.65 25.52C174.962 25.52 175.826 24.656 175.826 23.344ZM191.126 4.4H184.182V14.768C184.854 14.768 187.03 14.768 190.262 14.768C190.998 14.768 191.286 14.48 191.286 13.744H191.766C191.766 14.064 191.766 14.064 191.766 16.368H191.286V16.208C191.286 15.6 190.87 15.248 190.262 15.248H184.182V25.52H191.126C192.438 25.52 193.302 24.656 193.302 23.344H193.782C193.782 23.984 193.782 21.392 193.782 26H179.51V25.52C179.67 25.52 179.83 25.52 180.982 25.52V4.4C180.502 4.4 180.054 4.4 179.51 4.4V3.92H193.782C193.782 4.56 193.782 1.968 193.782 6.576H193.302C193.302 5.264 192.438 4.4 191.126 4.4Z" fill="#FFFBFB"/>
<path d="M9.568 68.92L16.448 90.52H18.016V91C14.944 91 14.784 91 11.744 91V90.52H13.152L12.512 88.472C11.296 85.336 7.072 85.816 4.16 85.848L2.624 90.52H4.064V91C2.048 91 2.656 91 0.64 91V90.52H2.144L9.056 68.92H9.568ZM12 86.84L7.968 73.912L4.32 85.368C7.968 85.272 10.464 85.304 12 86.84ZM21.2163 68.92H29.3763C32.8643 68.92 34.8803 71.416 34.8803 74.648C34.8803 79.608 31.0083 81.112 27.5523 81.144C26.9763 81.144 26.4323 81.144 25.8883 81.144V90.52H27.3603V91C25.3443 91 23.2323 91 21.2163 91V90.52C21.3763 90.52 21.5363 90.52 22.6883 90.52V69.4H21.2163V68.92ZM25.8883 69.4V80.664C26.3683 80.664 27.5523 80.664 27.6163 80.664C29.4723 80.664 31.6803 79.192 31.6803 74.648C31.6803 70.808 29.7603 69.4 27.6163 69.4H25.8883ZM48.596 69.4H41.652V79.768C42.324 79.768 44.5 79.768 47.732 79.768C48.468 79.768 48.756 79.48 48.756 78.744H49.236C49.236 79.064 49.236 79.064 49.236 81.368H48.756V81.208C48.756 80.6 48.34 80.248 47.732 80.248H41.652V90.52H48.596C49.908 90.52 50.772 89.656 50.772 88.344H51.252C51.252 88.984 51.252 86.392 51.252 91H36.98V90.52C37.14 90.52 37.3 90.52 38.452 90.52V69.4C37.972 69.4 37.524 69.4 36.98 69.4V68.92H51.252C51.252 69.56 51.252 66.968 51.252 71.576H50.772C50.772 70.264 49.908 69.4 48.596 69.4ZM54.4625 68.92H62.6225C66.1105 68.92 68.1265 71.416 68.1265 73.976C68.1265 77.368 65.4705 79.16 62.5905 79.672L65.7905 84.888C67.5185 87.736 68.3185 88.568 68.8945 88.568C69.0865 88.568 69.2785 88.472 69.4385 88.312L69.5345 88.472C68.8945 90.072 68.3505 91 67.1985 91C66.1425 91 65.5665 90.552 63.1985 86.744L59.1345 80.184V90.52H60.6065V91C58.5905 91 56.4785 91 54.4625 91V90.52C54.6225 90.52 54.7825 90.52 55.9345 90.52V69.4H54.4625V68.92ZM59.1345 69.4V79.352C59.6145 79.352 60.7985 79.352 60.8625 79.352C62.7185 79.352 64.9265 77.688 64.9265 73.976C64.9265 70.808 63.0065 69.4 60.8625 69.4H59.1345ZM72.7263 90.52C72.9823 90.52 72.8863 90.52 74.1983 90.52V69.4H72.7263V68.92H78.8703V69.4C78.0383 69.4 77.6223 69.4 77.3983 69.4V90.52H78.8703V91H72.7263V90.52ZM92.0997 69.4C90.6277 69.4 90.2757 69.4 90.0197 69.4V90.52H91.4917V91C89.4757 91 87.3637 91 85.3477 91V90.52C85.5077 90.52 85.8597 90.52 87.0117 90.52V69.4C86.6277 69.4 86.2757 69.4 84.8037 69.4C83.4917 69.4 82.5637 70.264 82.5637 71.576H82.0837C82.0837 66.968 82.0837 69.56 82.0837 68.92H94.7557C94.7557 69.56 94.7557 66.968 94.7557 71.576H94.2757C94.2757 70.264 93.4117 69.4 92.0997 69.4ZM97.9412 90.52C98.1972 90.52 98.1012 90.52 99.4132 90.52V69.4H97.9412V68.92H104.085V69.4C103.253 69.4 102.837 69.4 102.613 69.4V90.52H104.085V91H97.9412V90.52ZM118.915 69.4H111.971V80.568C112.643 80.568 114.819 80.568 118.051 80.568C118.787 80.568 119.075 80.28 119.075 79.544H119.555C119.555 79.864 119.555 79.864 119.555 82.168H119.075V82.008C119.075 81.4 118.659 81.048 118.051 81.048C116.195 81.048 113.539 81.048 111.971 81.048V90.52H113.443V91C111.427 91 109.315 91 107.299 91V90.52C107.459 90.52 107.619 90.52 108.771 90.52V69.4C108.291 69.4 107.843 69.4 107.299 69.4V68.92H121.571C121.571 69.56 121.571 66.968 121.571 71.576H121.091C121.091 70.264 120.227 69.4 118.915 69.4ZM129 90.744C131.048 90.744 134.216 89.752 134.216 86.616C134.216 79.992 123.688 81.752 123.688 75.096C123.688 71.192 127.272 68.792 130.792 68.792C132.68 68.792 134.44 69.496 135.912 71.032C135.912 71.672 135.912 69.08 135.912 73.688H135.432C135.432 70.968 133.096 69.272 130.824 69.272C128.68 69.272 126.12 70.84 126.12 73.496C126.12 79.128 136.456 77.144 136.456 85.368C136.456 88.184 133.96 91.224 129.064 91.224C126.984 91.224 125.288 90.648 123.688 88.984C123.688 88.344 123.688 90.936 123.688 86.328H124.168C124.168 88.856 126.472 90.744 129 90.744ZM148.086 68.92L140.47 91H139.99L147.606 68.92H148.086ZM148.746 90.52C148.906 90.52 149.066 90.52 150.218 90.52V69.4H148.746V68.92H154.762C159.658 68.92 162.474 72.6 162.474 79.928C162.474 84.856 160.106 91 154.762 91H148.746V90.52ZM153.418 69.4L153.386 90.52C153.45 90.52 154.762 90.52 154.762 90.52C156.234 90.52 159.274 87.32 159.274 79.896C159.274 72.984 156.97 69.4 154.762 69.4H153.418ZM176.251 69.4H169.307V79.768C169.979 79.768 172.155 79.768 175.387 79.768C176.123 79.768 176.411 79.48 176.411 78.744H176.891C176.891 79.064 176.891 79.064 176.891 81.368H176.411V81.208C176.411 80.6 175.995 80.248 175.387 80.248H169.307V90.52H176.251C177.563 90.52 178.427 89.656 178.427 88.344H178.907C178.907 88.984 178.907 86.392 178.907 91H164.635V90.52C164.795 90.52 164.955 90.52 166.107 90.52V69.4C165.627 69.4 165.179 69.4 164.635 69.4V68.92H178.907C178.907 69.56 178.907 66.968 178.907 71.576H178.427C178.427 70.264 177.563 69.4 176.251 69.4ZM193.285 88.792C192.453 90.296 191.557 91.224 189.637 91.224C185.221 91.224 182.117 86.712 182.117 80.44C182.117 74.68 184.581 68.792 189.893 68.792C191.205 68.792 192.517 69.304 193.413 70.2C193.669 70.456 193.861 70.616 194.021 70.616C194.213 70.616 194.277 70.328 194.277 69.752C194.277 69.4 194.277 69.112 194.277 68.92H194.629C194.629 69.24 194.629 71.64 194.629 73.944H194.277C194.117 71.096 192.005 69.272 189.893 69.272C187.077 69.272 185.317 75.032 185.317 80.44C185.317 85.752 186.789 90.744 189.893 90.744C192.581 90.744 193.893 86.936 193.893 84.728C193.893 83.96 193.477 83.448 192.805 83.448H192.773V82.968C193.253 82.968 193.381 82.968 196.773 82.968V83.448C196.197 83.448 195.749 83.96 195.749 84.728V91H193.957V88.888C193.957 88.216 193.925 87.928 193.829 87.928C193.733 87.928 193.573 88.248 193.285 88.792ZM211.591 69.4H204.647V79.768C205.319 79.768 207.495 79.768 210.727 79.768C211.463 79.768 211.751 79.48 211.751 78.744H212.231C212.231 79.064 212.231 79.064 212.231 81.368H211.751V81.208C211.751 80.6 211.335 80.248 210.727 80.248H204.647V90.52H211.591C212.903 90.52 213.767 89.656 213.767 88.344H214.247C214.247 88.984 214.247 86.392 214.247 91H199.975V90.52C200.135 90.52 200.295 90.52 201.447 90.52V69.4C200.967 69.4 200.519 69.4 199.975 69.4V68.92H214.247C214.247 69.56 214.247 66.968 214.247 71.576H213.767C213.767 70.264 212.903 69.4 211.591 69.4ZM222.77 90.744C224.818 90.744 227.986 89.752 227.986 86.616C227.986 79.992 217.458 81.752 217.458 75.096C217.458 71.192 221.042 68.792 224.562 68.792C226.45 68.792 228.21 69.496 229.682 71.032C229.682 71.672 229.682 69.08 229.682 73.688H229.202C229.202 70.968 226.866 69.272 224.594 69.272C222.45 69.272 219.89 70.84 219.89 73.496C219.89 79.128 230.226 77.144 230.226 85.368C230.226 88.184 227.73 91.224 222.834 91.224C220.754 91.224 219.058 90.648 217.458 88.984C217.458 88.344 217.458 90.936 217.458 86.328H217.938C217.938 88.856 220.242 90.744 222.77 90.744ZM243.456 69.4C241.984 69.4 241.632 69.4 241.376 69.4V90.52H242.848V91C240.832 91 238.72 91 236.704 91V90.52C236.864 90.52 237.216 90.52 238.368 90.52V69.4C237.984 69.4 237.632 69.4 236.16 69.4C234.848 69.4 233.92 70.264 233.92 71.576H233.44C233.44 66.968 233.44 69.56 233.44 68.92H246.112C246.112 69.56 246.112 66.968 246.112 71.576H245.632C245.632 70.264 244.768 69.4 243.456 69.4ZM249.298 90.52C249.554 90.52 249.458 90.52 250.77 90.52V69.4H249.298V68.92H255.442V69.4C254.61 69.4 254.194 69.4 253.97 69.4V90.52H255.442V91H249.298V90.52ZM267.103 91L260.223 69.4H258.655V68.92C261.727 68.92 261.887 68.92 264.927 68.92V69.4H263.519L268.703 86.008L273.983 69.4H272.607V68.92C274.623 68.92 274.015 68.92 276.031 68.92V69.4H274.527L267.615 91H267.103ZM290.847 69.4H283.903V79.768C284.575 79.768 286.751 79.768 289.983 79.768C290.719 79.768 291.007 79.48 291.007 78.744H291.487C291.487 79.064 291.487 79.064 291.487 81.368H291.007V81.208C291.007 80.6 290.591 80.248 289.983 80.248H283.903V90.52H290.847C292.159 90.52 293.023 89.656 293.023 88.344H293.503C293.503 88.984 293.503 86.392 293.503 91H279.231V90.52C279.391 90.52 279.551 90.52 280.703 90.52V69.4C280.223 69.4 279.775 69.4 279.231 69.4V68.92H293.503C293.503 69.56 293.503 66.968 293.503 71.576H293.023C293.023 70.264 292.159 69.4 290.847 69.4ZM302.026 90.744C304.074 90.744 307.242 89.752 307.242 86.616C307.242 79.992 296.714 81.752 296.714 75.096C296.714 71.192 300.298 68.792 303.818 68.792C305.706 68.792 307.466 69.496 308.938 71.032C308.938 71.672 308.938 69.08 308.938 73.688H308.458C308.458 70.968 306.122 69.272 303.85 69.272C301.706 69.272 299.146 70.84 299.146 73.496C299.146 79.128 309.482 77.144 309.482 85.368C309.482 88.184 306.986 91.224 302.09 91.224C300.01 91.224 298.314 90.648 296.714 88.984C296.714 88.344 296.714 90.936 296.714 86.328H297.194C297.194 88.856 299.498 90.744 302.026 90.744Z" fill="#FFFBFB"/>
<path d="M0.64 155.52C0.8 155.52 0.96 155.52 2.112 155.52V134.4H0.64V133.92H6.656C11.552 133.92 14.368 137.6 14.368 144.928C14.368 149.856 12 156 6.656 156H0.64V155.52ZM5.312 134.4L5.28 155.52C5.344 155.52 6.656 155.52 6.656 155.52C8.128 155.52 11.168 152.32 11.168 144.896C11.168 137.984 8.864 134.4 6.656 134.4H5.312ZM17.56 133.92H25.72C29.208 133.92 31.224 136.416 31.224 138.976C31.224 142.368 28.568 144.16 25.688 144.672L28.888 149.888C30.616 152.736 31.416 153.568 31.992 153.568C32.184 153.568 32.376 153.472 32.536 153.312L32.632 153.472C31.992 155.072 31.448 156 30.296 156C29.24 156 28.664 155.552 26.296 151.744L22.232 145.184V155.52H23.704V156C21.688 156 19.576 156 17.56 156V155.52C17.72 155.52 17.88 155.52 19.032 155.52V134.4H17.56V133.92ZM22.232 134.4V144.352C22.712 144.352 23.896 144.352 23.96 144.352C25.816 144.352 28.024 142.688 28.024 138.976C28.024 135.808 26.104 134.4 23.96 134.4H22.232ZM44.7518 133.92L51.6318 155.52H53.1998V156C50.1278 156 49.9678 156 46.9278 156V155.52H48.3358L47.6958 153.472C46.4798 150.336 42.2558 150.816 39.3438 150.848L37.8078 155.52H39.2478V156C37.2318 156 37.8398 156 35.8238 156V155.52H37.3278L44.2398 133.92H44.7518ZM47.1838 151.84L43.1518 138.912L39.5038 150.368C43.1518 150.272 45.6478 150.304 47.1838 151.84ZM68.016 134.4H61.072V145.568C61.744 145.568 63.92 145.568 67.152 145.568C67.888 145.568 68.176 145.28 68.176 144.544H68.656C68.656 144.864 68.656 144.864 68.656 147.168H68.176V147.008C68.176 146.4 67.76 146.048 67.152 146.048C65.296 146.048 62.64 146.048 61.072 146.048V155.52H62.544V156C60.528 156 58.416 156 56.4 156V155.52C56.56 155.52 56.72 155.52 57.872 155.52V134.4C57.392 134.4 56.944 134.4 56.4 134.4V133.92H70.672C70.672 134.56 70.672 131.968 70.672 136.576H70.192C70.192 135.264 69.328 134.4 68.016 134.4ZM83.8985 134.4C82.4265 134.4 82.0745 134.4 81.8185 134.4V155.52H83.2905V156C81.2745 156 79.1625 156 77.1465 156V155.52C77.3065 155.52 77.6585 155.52 78.8105 155.52V134.4C78.4265 134.4 78.0745 134.4 76.6025 134.4C75.2905 134.4 74.3625 135.264 74.3625 136.576H73.8825C73.8825 131.968 73.8825 134.56 73.8825 133.92H86.5545C86.5545 134.56 86.5545 131.968 86.5545 136.576H86.0745C86.0745 135.264 85.2105 134.4 83.8985 134.4ZM99.66 155.52C99.82 155.52 99.98 155.52 101.132 155.52V134.4H99.66V133.92H107.82C111.308 133.92 113.324 136.416 113.324 138.976C113.324 141.312 111.66 143.904 107.948 144.512C112.332 144.672 114.604 147.264 114.604 149.952C114.604 152.928 111.788 156 105.9 156H99.66V155.52ZM104.332 134.4L104.172 144.352C104.652 144.352 105.996 144.352 106.06 144.352C107.916 144.352 110.124 142.688 110.124 138.976C110.124 135.808 108.204 134.4 106.06 134.4H104.332ZM104.332 155.52H105.9C109.292 155.52 111.34 153.504 111.34 149.952C111.34 146.976 108.908 144.64 106.06 144.64H104.332V155.52ZM129.415 134.4H122.471V144.768C123.143 144.768 125.319 144.768 128.551 144.768C129.287 144.768 129.575 144.48 129.575 143.744H130.055C130.055 144.064 130.055 144.064 130.055 146.368H129.575V146.208C129.575 145.6 129.159 145.248 128.551 145.248H122.471V155.52H129.415C130.727 155.52 131.591 154.656 131.591 153.344H132.071C132.071 153.984 132.071 151.392 132.071 156H117.799V155.52C117.959 155.52 118.119 155.52 119.271 155.52V134.4C118.791 134.4 118.343 134.4 117.799 134.4V133.92H132.071C132.071 134.56 132.071 131.968 132.071 136.576H131.591C131.591 135.264 130.727 134.4 129.415 134.4ZM146.897 134.4H139.953V144.768C140.625 144.768 142.801 144.768 146.033 144.768C146.769 144.768 147.057 144.48 147.057 143.744H147.537C147.537 144.064 147.537 144.064 147.537 146.368H147.057V146.208C147.057 145.6 146.641 145.248 146.033 145.248H139.953V155.52H146.897C148.209 155.52 149.073 154.656 149.073 153.344H149.553C149.553 153.984 149.553 151.392 149.553 156H135.281V155.52C135.441 155.52 135.601 155.52 136.753 155.52V134.4C136.273 134.4 135.825 134.4 135.281 134.4V133.92H149.553C149.553 134.56 149.553 131.968 149.553 136.576H149.073C149.073 135.264 148.209 134.4 146.897 134.4ZM152.764 133.92H160.924C164.412 133.92 166.428 136.416 166.428 138.976C166.428 142.368 163.772 144.16 160.892 144.672L164.092 149.888C165.82 152.736 166.62 153.568 167.196 153.568C167.388 153.568 167.58 153.472 167.74 153.312L167.836 153.472C167.196 155.072 166.652 156 165.5 156C164.444 156 163.868 155.552 161.5 151.744L157.436 145.184V155.52H158.908V156C156.892 156 154.78 156 152.764 156V155.52C152.924 155.52 153.084 155.52 154.236 155.52V134.4H152.764V133.92ZM157.436 134.4V144.352C157.916 144.352 159.1 144.352 159.164 144.352C161.02 144.352 163.228 142.688 163.228 138.976C163.228 135.808 161.308 134.4 159.164 134.4H157.436ZM176.339 155.744C178.387 155.744 181.555 154.752 181.555 151.616C181.555 144.992 171.027 146.752 171.027 140.096C171.027 136.192 174.611 133.792 178.131 133.792C180.019 133.792 181.779 134.496 183.251 136.032C183.251 136.672 183.251 134.08 183.251 138.688H182.771C182.771 135.968 180.435 134.272 178.163 134.272C176.019 134.272 173.459 135.84 173.459 138.496C173.459 144.128 183.795 142.144 183.795 150.368C183.795 153.184 181.299 156.224 176.403 156.224C174.323 156.224 172.627 155.648 171.027 153.984C171.027 153.344 171.027 155.936 171.027 151.328H171.507C171.507 153.856 173.811 155.744 176.339 155.744Z" fill="#FFFBFB"/>
<path d="M5.952 220.744C8 220.744 11.168 219.752 11.168 216.616C11.168 209.992 0.64 211.752 0.64 205.096C0.64 201.192 4.224 198.792 7.744 198.792C9.632 198.792 11.392 199.496 12.864 201.032C12.864 201.672 12.864 199.08 12.864 203.688H12.384C12.384 200.968 10.048 199.272 7.776 199.272C5.632 199.272 3.072 200.84 3.072 203.496C3.072 209.128 13.408 207.144 13.408 215.368C13.408 218.184 10.912 221.224 6.016 221.224C3.936 221.224 2.24 220.648 0.64 218.984C0.64 218.344 0.64 220.936 0.64 216.328H1.12C1.12 218.856 3.424 220.744 5.952 220.744ZM16.6225 210.344C16.6225 203.464 20.0145 198.792 24.2065 198.792C28.4305 198.792 31.6305 203.496 31.6305 210.376C31.6305 217.256 28.0785 221.224 24.1425 221.224C20.0785 221.224 16.6225 217.32 16.6225 210.344ZM19.8225 210.344C19.8225 214.632 20.9105 220.744 24.1425 220.744C27.3745 220.744 28.4625 214.6 28.4625 210.376C28.4625 206.12 27.4065 199.272 24.2385 199.272C21.0065 199.272 19.8225 206.12 19.8225 210.344ZM45.4085 199.4H38.4645V210.568C39.1365 210.568 41.3125 210.568 44.5445 210.568C45.2805 210.568 45.5685 210.28 45.5685 209.544H46.0485C46.0485 209.864 46.0485 209.864 46.0485 212.168H45.5685V212.008C45.5685 211.4 45.1525 211.048 44.5445 211.048C42.6885 211.048 40.0325 211.048 38.4645 211.048V220.52H39.9365V221C37.9205 221 35.8085 221 33.7925 221V220.52C33.9525 220.52 34.1125 220.52 35.2645 220.52V199.4C34.7845 199.4 34.3365 199.4 33.7925 199.4V198.92H48.0645C48.0645 199.56 48.0645 196.968 48.0645 201.576H47.5845C47.5845 200.264 46.7205 199.4 45.4085 199.4ZM61.291 199.4C59.819 199.4 59.467 199.4 59.211 199.4V220.52H60.683V221C58.667 221 56.555 221 54.539 221V220.52C54.699 220.52 55.051 220.52 56.203 220.52V199.4C55.819 199.4 55.467 199.4 53.995 199.4C52.683 199.4 51.755 200.264 51.755 201.576H51.275C51.275 196.968 51.275 199.56 51.275 198.92H63.947C63.947 199.56 63.947 196.968 63.947 201.576H63.467C63.467 200.264 62.603 199.4 61.291 199.4ZM77.0525 220.52C77.2125 220.52 77.3725 220.52 78.5245 220.52V199.4H77.0525V198.92H83.0685C87.9645 198.92 90.7805 202.6 90.7805 209.928C90.7805 214.856 88.4125 221 83.0685 221H77.0525V220.52ZM81.7245 199.4L81.6925 220.52C81.7565 220.52 83.0685 220.52 83.0685 220.52C84.5405 220.52 87.5805 217.32 87.5805 209.896C87.5805 202.984 85.2765 199.4 83.0685 199.4H81.7245ZM93.9725 198.92H102.132C105.62 198.92 107.636 201.416 107.636 203.976C107.636 207.368 104.98 209.16 102.1 209.672L105.3 214.888C107.028 217.736 107.828 218.568 108.404 218.568C108.596 218.568 108.788 218.472 108.948 218.312L109.044 218.472C108.404 220.072 107.86 221 106.708 221C105.652 221 105.076 220.552 102.708 216.744L98.6445 210.184V220.52H100.116V221C98.1005 221 95.9885 221 93.9725 221V220.52C94.1325 220.52 94.2925 220.52 95.4445 220.52V199.4H93.9725V198.92ZM98.6445 199.4V209.352C99.1245 209.352 100.308 209.352 100.372 209.352C102.228 209.352 104.436 207.688 104.436 203.976C104.436 200.808 102.516 199.4 100.372 199.4H98.6445ZM112.236 220.52C112.492 220.52 112.396 220.52 113.708 220.52V199.4H112.236V198.92H118.38V199.4C117.548 199.4 117.132 199.4 116.908 199.4V220.52H118.38V221H112.236V220.52ZM121.594 198.92H126.81L132.474 212.616V199.4H131.002V198.92C131.706 198.92 129.402 198.92 134.426 198.92V199.4H132.954C132.954 202.024 132.954 218.984 132.954 221H132.474L123.546 199.4V220.52H125.018V221C122.842 221 123.994 221 121.594 221V220.52H123.066V199.4H121.594V198.92ZM137.639 220.52C137.799 220.52 137.959 220.52 139.111 220.52V199.4C138.631 199.4 138.119 199.4 137.639 199.4V198.92C138.279 198.92 139.175 198.92 143.783 198.92V199.4C143.303 199.4 142.823 199.4 142.311 199.4V208.584L148.711 199.4H146.343V198.92C146.983 198.92 147.111 198.92 151.719 198.92V199.4C150.759 199.4 149.991 199.4 149.191 199.4L144.007 206.824L148.967 214.888C150.695 217.736 151.495 218.568 152.071 218.568C152.263 218.568 152.455 218.472 152.615 218.312L152.711 218.472C152.071 220.072 151.527 221 150.375 221C149.319 221 148.743 220.552 146.375 216.744L142.311 210.184V220.52H143.783V221C141.767 221 139.655 221 137.639 221V220.52ZM161.214 220.744C163.262 220.744 166.43 219.752 166.43 216.616C166.43 209.992 155.902 211.752 155.902 205.096C155.902 201.192 159.486 198.792 163.006 198.792C164.894 198.792 166.654 199.496 168.126 201.032C168.126 201.672 168.126 199.08 168.126 203.688H167.646C167.646 200.968 165.31 199.272 163.038 199.272C160.894 199.272 158.334 200.84 158.334 203.496C158.334 209.128 168.67 207.144 168.67 215.368C168.67 218.184 166.174 221.224 161.278 221.224C159.198 221.224 157.502 220.648 155.902 218.984C155.902 218.344 155.902 220.936 155.902 216.328H156.382C156.382 218.856 158.686 220.744 161.214 220.744Z" fill="#FFFBFB"/>
</svg>
