<svg width="233" height="46" viewBox="0 0 233 46" fill="none" xmlns="http://www.w3.org/2000/svg">
<path d="M16.1 9.00234L13.85 2.65234C12.9 2.15234 11.8 1.85234 10.75 1.85234C8.3 1.85234 6.05 3.40234 6.25 6.85234C6.8 15.8023 20.55 16.3523 20.55 25.9023C20.55 33.3523 15.95 35.6523 11.45 35.6523C8.15 35.6523 2.45 33.5523 0.85 28.7023L0.95 28.3523C1.45 27.7523 2.7 26.5523 3.3 26.5523C3.45 26.5523 3.6 26.5523 3.75 26.6023L6.9 33.8523C7.8 34.6523 10.05 35.1523 11.2 35.1523C14.25 35.1523 17.95 34.1523 17.95 29.4023C17.95 20.7023 4.5 19.9523 3.75 10.9023C3.2 3.90234 6.55 1.35234 10.2 1.35234C13.75 1.35234 18 3.60234 19.05 7.15234L18.95 7.50234C18.3 8.25234 16.8 9.15234 16.1 9.00234ZM33.6855 27.6023H33.9855C35.0355 31.5523 33.6855 36.0023 29.9355 36.0023C26.7855 36.0023 24.1855 33.2523 24.1855 27.6523V12.0023H20.9855V11.5023H21.1355C27.2355 11.2023 25.6355 3.75234 25.6355 3.75234C26.3855 2.15234 28.6355 1.80234 28.6355 1.80234L28.9355 1.95234C29.2855 2.70234 29.1355 9.65234 23.4355 11.5023H32.7355V12.0023H28.3855L28.4355 28.4523C28.4355 32.6023 28.3855 35.6523 30.9855 35.2523C33.5855 34.8023 34.6355 31.5023 33.6855 27.6023ZM54.7039 31.6523L54.9539 32.0523C53.1039 34.1023 52.2039 35.9023 52.2039 35.9023L51.8539 36.0023L47.8039 34.1523V30.8523C47.1039 33.7523 45.5039 36.0023 42.4039 36.0023C38.7539 36.0023 35.6039 33.2023 35.6039 28.1523C35.6039 21.8523 39.5539 18.9523 43.3039 18.9523C44.7039 18.9523 46.3039 19.7523 47.1539 20.8523C45.9539 18.3523 43.2039 16.2023 40.0539 16.2023C38.8539 15.9023 37.4039 13.8523 37.4039 13.8523L37.3539 13.5023C37.8539 12.8523 37.9539 11.5023 44.1039 11.5023C51.0539 11.5023 52.1039 18.7023 52.1039 18.7023V31.7023C52.1039 32.8523 52.0539 34.6023 52.4039 34.6023C52.5039 34.6023 53.0039 34.0523 53.5039 33.4523C54.1539 32.6523 54.7039 31.6523 54.7039 31.6523ZM47.8039 21.8523V18.7023C47.8039 18.2523 47.6039 12.0023 44.1539 12.0023C43.9539 12.0023 41.3539 14.3523 40.6539 15.5523C44.0539 16.1523 46.9039 18.7023 47.8039 21.8523ZM47.8039 28.7023V23.1523C47.2539 20.9023 45.7539 19.7023 44.3539 19.7023C41.7039 19.7023 39.8539 23.3023 39.8539 27.7023C39.8539 31.5523 41.3039 35.1023 43.8539 35.1023C46.3039 35.1023 47.4539 31.3523 47.8039 28.7023ZM71.068 11.9023C71.368 12.6523 72.218 13.6523 70.668 21.6023C68.068 29.7523 65.668 37.5023 63.068 45.6523L60.068 45.8023L57.668 44.7523L58.468 39.9523C58.468 39.9523 58.768 39.5523 58.918 39.9523C59.418 41.7023 60.818 44.3523 62.818 45.1523L65.768 35.8523H61.618L56.168 16.2023L53.268 15.9523L53.218 15.6023C55.418 14.2523 58.518 12.2023 58.818 11.6523C59.018 11.2523 59.568 11.7023 59.568 11.7023L65.918 35.2523L69.618 23.6523C70.118 21.0023 67.518 14.4023 67.568 14.1523C67.968 12.5023 70.768 11.8523 70.768 11.8523L71.068 11.9023ZM85.3617 9.00234C84.1117 9.00234 83.1117 7.65234 83.1117 6.00234C83.1117 4.35234 84.1117 3.00234 85.3617 3.00234C86.6117 3.00234 87.6117 4.35234 87.6117 6.00234C87.6117 7.65234 86.6117 9.00234 85.3617 9.00234ZM87.5617 32.2523L88.1617 35.7523L87.8617 36.0023C87.8617 36.0023 86.0117 35.4023 81.5117 35.4023V34.9523C81.5117 34.9523 83.3117 35.4023 83.3117 32.2023V15.3523L80.7617 14.1523C80.0117 14.1523 79.3117 13.9523 78.6617 13.6023L78.7117 13.3523C79.3617 13.7023 80.0617 13.8523 80.8117 13.8023C83.1617 13.3023 84.9617 11.9523 85.3117 11.5023C85.5617 11.2523 87.5617 11.8523 87.5617 11.8523V32.2523ZM109.275 32.3523L109.875 35.8023L109.525 36.0523C109.525 36.0523 105.325 35.4523 100.775 35.4523V35.0023C100.775 35.0023 105.125 35.8023 104.975 32.6523V19.7523C104.975 19.7523 105.175 12.9023 102.425 12.9023C99.925 12.9023 97.925 18.0023 97.825 22.1523L97.625 20.7523C98.075 17.4523 99.425 11.5523 103.475 11.5523C107.375 11.5523 109.275 15.5523 109.275 19.7523V32.3523ZM97.825 11.9523V32.3523L98.425 35.8023L98.125 36.0523C98.125 36.0523 96.325 35.4523 91.775 35.4523V35.0023C91.775 35.0023 93.375 35.4023 93.575 32.6523V14.7023L97.525 11.6523C97.675 11.7523 97.825 11.9523 97.825 11.9523ZM97.825 12.7023L94.075 15.7023L91.075 14.2523V13.9023C93.425 13.4523 96.625 12.0523 97.025 11.6023C97.275 11.3523 97.675 11.8023 97.675 11.8023L97.825 12.7023ZM119.386 1.85234C121.836 1.85234 124.236 2.60234 125.186 3.85234V4.25234C125.186 4.25234 123.686 6.95234 122.236 7.10234C122.236 7.10234 118.636 2.40234 118.436 2.40234C115.436 2.40234 113.886 11.3023 118.886 11.4023H123.636V11.9523H119.086V32.1523L119.686 35.7023L119.386 35.9523C119.386 35.9523 117.586 35.3523 113.036 35.3523V34.9023C113.036 34.9023 114.586 35.2523 114.836 32.7523V13.0023L111.336 11.9523V11.4023H116.036C114.136 10.9023 111.936 9.65234 111.936 7.30234C111.936 3.70234 115.486 1.85234 119.386 1.85234ZM133.055 11.5023C138.555 11.5023 142.755 16.4023 142.755 23.7523C142.755 31.0523 138.555 36.0023 133.055 36.0023C127.505 36.0023 123.355 31.0523 123.355 23.7523C123.355 16.4023 127.505 11.5023 133.055 11.5023ZM138.505 24.5023C138.905 17.5023 137.005 12.5023 133.705 12.0023C130.455 11.5523 128.005 15.9523 127.605 22.9523C127.205 30.0023 129.155 35.0023 132.405 35.4523C135.705 35.9023 138.105 31.5023 138.505 24.5023ZM155.746 11.4023C158.296 11.4023 159.246 16.4523 160.946 16.4523C161.096 16.4523 161.296 16.4023 161.496 16.3023L161.646 16.6023C161.096 18.0023 159.746 20.2023 158.396 20.1023C156.246 19.9523 155.896 14.9023 153.296 14.9023C152.596 14.9023 151.296 17.3523 150.846 21.4523V32.3023L151.446 35.8023L151.146 36.0023C151.146 36.0023 149.346 35.4523 144.796 35.4523V35.0023C144.796 35.0023 146.446 35.3523 146.596 32.6523V15.4523L144.096 14.2023V13.9023C146.446 13.4023 149.796 12.0023 150.146 11.6023C150.396 11.3023 150.846 11.9523 150.846 11.9523V19.4023C151.596 16.3023 152.446 11.4023 155.746 11.4023ZM168.82 11.9523V18.1523C169.27 15.0023 170.42 11.5523 173.47 11.5523C176.97 11.5523 178.87 14.7023 179.27 18.3023C179.72 15.1523 180.87 11.5523 183.97 11.5523C187.92 11.5523 189.82 15.5523 189.82 19.7523V32.3523L190.42 35.8023L190.07 36.0523C190.07 36.0523 186.72 35.4523 182.17 35.4523V35.0023C182.17 35.0023 185.52 35.4023 185.52 32.6523V19.7523C185.52 19.7523 185.72 12.9023 182.92 12.9023C180.67 12.9023 179.57 17.0523 179.32 20.9023V32.3523L179.92 35.8023L179.62 36.0523C179.62 36.0523 176.02 35.4523 171.47 35.4523V35.0023C171.47 35.0023 174.92 35.4023 175.07 32.6523V19.7523C175.07 19.7523 175.22 12.9023 172.47 12.9023C170.07 12.9023 168.97 17.6523 168.82 21.6523V32.3523L169.42 35.8023L169.12 36.0523C169.12 36.0523 167.32 35.4523 162.77 35.4523V35.0023C162.77 35.0023 164.42 35.4023 164.57 32.6523V15.4523L162.07 14.2523V13.9023C164.42 13.4023 167.52 12.0023 167.97 11.6523C168.52 11.3023 168.82 11.9523 168.82 11.9523ZM202.95 17.6023C207.15 18.5023 210.35 22.2023 210.35 27.2523C210.3 32.5523 206.9 36.0023 202.55 36.0023C196.5 36.0023 192.25 31.2023 192.25 23.7523C192.25 16.2523 196.25 11.5023 202.35 11.5023C204.2 11.5023 209.3 13.8023 209.35 16.8023C208.9 17.4523 208.05 18.2523 207.4 18.2523C207 18.2523 206.75 18.0023 206.55 17.6023H202.95ZM202.4 11.9023C200 11.9023 198.45 14.2023 197.55 17.1023H206.3C205.6 15.2523 205.25 11.9023 202.4 11.9023ZM197.4 17.6023C196.75 20.0023 196.45 22.7023 196.45 24.7523C196.45 30.4523 198.75 35.5023 202.9 35.5023C206.75 35.5023 210 32.0023 210 27.2523C210 22.1523 206.1 17.6023 200.9 17.6023H197.4ZM231.071 1.25234V32.8523C231.221 34.8523 232.471 35.0523 232.821 35.0023V35.4023C229.971 35.4023 226.621 35.8023 226.521 36.0023L226.221 35.8023C226.221 35.5523 226.771 32.3523 226.821 32.2523V28.5523C225.771 32.5023 223.571 36.0023 220.621 36.0023C216.171 36.0023 212.571 31.1023 212.571 23.7523C212.571 16.5023 215.821 11.0523 221.171 11.5523C224.671 11.8523 226.521 14.9023 226.721 16.6023C226.621 17.0523 225.771 18.1523 225.121 18.1523C224.921 18.1523 224.771 18.0523 224.671 17.8523C223.521 16.4523 223.521 12.3523 221.671 12.1023C218.321 11.4023 217.071 17.8523 216.821 23.8523C216.621 29.6523 217.471 35.1523 220.571 35.4523C223.121 35.7023 225.921 31.7523 226.821 26.8523V4.80234L224.121 3.50234V3.15234C226.321 2.80234 229.771 1.40234 230.421 0.852342C230.621 0.652341 231.071 1.15234 231.071 1.25234Z" fill="white"/>
</svg>
