<svg width="287" height="230" viewBox="0 0 287 230" fill="none" xmlns="http://www.w3.org/2000/svg">
<path d="M0.64 3.92H8.8C12.288 3.92 14.304 6.416 14.304 8.976C14.304 12.368 11.648 14.16 8.768 14.672L11.968 19.888C13.696 22.736 14.496 23.568 15.072 23.568C15.264 23.568 15.456 23.472 15.616 23.312L15.712 23.472C15.072 25.072 14.528 26 13.376 26C12.32 26 11.744 25.552 9.376 21.744L5.312 15.184V25.52H6.784V26C4.768 26 2.656 26 0.64 26V25.52C0.8 25.52 0.96 25.52 2.112 25.52V4.4H0.64V3.92ZM5.312 4.4V14.352C5.792 14.352 6.976 14.352 7.04 14.352C8.896 14.352 11.104 12.688 11.104 8.976C11.104 5.808 9.184 4.4 7.04 4.4H5.312ZM30.5198 4.4H23.5758V14.768C24.2478 14.768 26.4238 14.768 29.6558 14.768C30.3918 14.768 30.6798 14.48 30.6798 13.744H31.1598C31.1598 14.064 31.1598 14.064 31.1598 16.368H30.6798V16.208C30.6798 15.6 30.2638 15.248 29.6558 15.248H23.5758V25.52H30.5198C31.8318 25.52 32.6958 24.656 32.6958 23.344H33.1758C33.1758 23.984 33.1758 21.392 33.1758 26H18.9038V25.52C19.0638 25.52 19.2238 25.52 20.3758 25.52V4.4C19.8958 4.4 19.4478 4.4 18.9038 4.4V3.92H33.1758C33.1758 4.56 33.1758 1.968 33.1758 6.576H32.6958C32.6958 5.264 31.8318 4.4 30.5198 4.4ZM48.0023 4.4H41.0583V15.568C41.7303 15.568 43.9063 15.568 47.1383 15.568C47.8743 15.568 48.1623 15.28 48.1623 14.544H48.6423C48.6423 14.864 48.6423 14.864 48.6423 17.168H48.1623V17.008C48.1623 16.4 47.7463 16.048 47.1383 16.048C45.2823 16.048 42.6263 16.048 41.0583 16.048V25.52H42.5303V26C40.5143 26 38.4023 26 36.3863 26V25.52C36.5463 25.52 36.7063 25.52 37.8583 25.52V4.4C37.3783 4.4 36.9303 4.4 36.3863 4.4V3.92H50.6583C50.6583 4.56 50.6583 1.968 50.6583 6.576H50.1783C50.1783 5.264 49.3143 4.4 48.0023 4.4ZM53.8687 3.92H62.0287C65.5167 3.92 67.5327 6.416 67.5327 8.976C67.5327 12.368 64.8767 14.16 61.9967 14.672L65.1967 19.888C66.9247 22.736 67.7247 23.568 68.3007 23.568C68.4927 23.568 68.6847 23.472 68.8447 23.312L68.9407 23.472C68.3007 25.072 67.7567 26 66.6047 26C65.5487 26 64.9727 25.552 62.6047 21.744L58.5407 15.184V25.52H60.0127V26C57.9967 26 55.8847 26 53.8687 26V25.52C54.0287 25.52 54.1887 25.52 55.3407 25.52V4.4H53.8687V3.92ZM58.5407 4.4V14.352C59.0207 14.352 60.2047 14.352 60.2687 14.352C62.1247 14.352 64.3327 12.688 64.3327 8.976C64.3327 5.808 62.4127 4.4 60.2687 4.4H58.5407ZM83.7485 4.4H76.8045V14.768C77.4765 14.768 79.6525 14.768 82.8845 14.768C83.6205 14.768 83.9085 14.48 83.9085 13.744H84.3885C84.3885 14.064 84.3885 14.064 84.3885 16.368H83.9085V16.208C83.9085 15.6 83.4925 15.248 82.8845 15.248H76.8045V25.52H83.7485C85.0605 25.52 85.9245 24.656 85.9245 23.344H86.4045C86.4045 23.984 86.4045 21.392 86.4045 26H72.1325V25.52C72.2925 25.52 72.4525 25.52 73.6045 25.52V4.4C73.1245 4.4 72.6765 4.4 72.1325 4.4V3.92H86.4045C86.4045 4.56 86.4045 1.968 86.4045 6.576H85.9245C85.9245 5.264 85.0605 4.4 83.7485 4.4ZM94.927 25.744C96.975 25.744 100.143 24.752 100.143 21.616C100.143 14.992 89.615 16.752 89.615 10.096C89.615 6.192 93.199 3.792 96.719 3.792C98.607 3.792 100.367 4.496 101.839 6.032C101.839 6.672 101.839 4.08 101.839 8.688H101.359C101.359 5.968 99.023 4.272 96.751 4.272C94.607 4.272 92.047 5.84 92.047 8.496C92.047 14.128 102.383 12.144 102.383 20.368C102.383 23.184 99.887 26.224 94.991 26.224C92.911 26.224 91.215 25.648 89.615 23.984C89.615 23.344 89.615 25.936 89.615 21.328H90.095C90.095 23.856 92.399 25.744 94.927 25.744ZM105.597 25.52C105.757 25.52 105.917 25.52 107.069 25.52V4.4C106.589 4.4 106.141 4.4 105.597 4.4V3.92H111.741V4.4C110.909 4.4 110.493 4.4 110.269 4.4V14.864H117.725V4.4C117.245 4.4 116.797 4.4 116.253 4.4V3.92H122.397V4.4C121.565 4.4 121.149 4.4 120.925 4.4V25.52H122.397V26H116.253V25.52C116.413 25.52 116.573 25.52 117.725 25.52V15.344H110.269V25.52H111.741V26H105.597V25.52ZM125.611 3.92H130.827L134.763 13.392L138.699 3.92H143.403V4.4C142.507 4.4 142.123 4.4 141.931 4.4V25.52H143.403V26H137.259V25.52H138.731V5.072L133.291 18.16L127.563 4.4V25.52H129.035V26C126.859 26 128.011 26 125.611 26V25.52H127.083V4.4C126.667 4.4 127.467 4.4 125.611 4.4V3.92ZM158.21 4.4H151.266V14.768C151.938 14.768 154.114 14.768 157.346 14.768C158.082 14.768 158.37 14.48 158.37 13.744H158.85C158.85 14.064 158.85 14.064 158.85 16.368H158.37V16.208C158.37 15.6 157.954 15.248 157.346 15.248H151.266V25.52H158.21C159.522 25.52 160.386 24.656 160.386 23.344H160.866C160.866 23.984 160.866 21.392 160.866 26H146.594V25.52C146.754 25.52 146.914 25.52 148.066 25.52V4.4C147.586 4.4 147.138 4.4 146.594 4.4V3.92H160.866C160.866 4.56 160.866 1.968 160.866 6.576H160.386C160.386 5.264 159.522 4.4 158.21 4.4ZM164.076 3.92H169.292L174.956 17.616V4.4H173.484V3.92C174.188 3.92 171.884 3.92 176.908 3.92V4.4H175.436C175.436 7.024 175.436 23.984 175.436 26H174.956L166.028 4.4V25.52H167.5V26C165.324 26 166.476 26 164.076 26V25.52H165.548V4.4H164.076V3.92ZM190.137 4.4C188.665 4.4 188.313 4.4 188.057 4.4V25.52H189.529V26C187.513 26 185.401 26 183.385 26V25.52C183.545 25.52 183.897 25.52 185.049 25.52V4.4C184.665 4.4 184.313 4.4 182.841 4.4C181.529 4.4 180.601 5.264 180.601 6.576H180.121C180.121 1.968 180.121 4.56 180.121 3.92H192.793C192.793 4.56 192.793 1.968 192.793 6.576H192.313C192.313 5.264 191.449 4.4 190.137 4.4ZM200.259 25.744C202.307 25.744 205.475 24.752 205.475 21.616C205.475 14.992 194.947 16.752 194.947 10.096C194.947 6.192 198.531 3.792 202.051 3.792C203.939 3.792 205.699 4.496 207.171 6.032C207.171 6.672 207.171 4.08 207.171 8.688H206.691C206.691 5.968 204.355 4.272 202.083 4.272C199.939 4.272 197.379 5.84 197.379 8.496C197.379 14.128 207.715 12.144 207.715 20.368C207.715 23.184 205.219 26.224 200.323 26.224C198.243 26.224 196.547 25.648 194.947 23.984C194.947 23.344 194.947 25.936 194.947 21.328H195.427C195.427 23.856 197.731 25.744 200.259 25.744Z" fill="white"/>
<path d="M0.64 68.92H8.8C12.288 68.92 14.304 71.416 14.304 74.648C14.304 79.608 10.432 81.112 6.976 81.144C6.4 81.144 5.856 81.144 5.312 81.144V90.52H6.784V91C4.768 91 2.656 91 0.64 91V90.52C0.8 90.52 0.96 90.52 2.112 90.52V69.4H0.64V68.92ZM5.312 69.4V80.664C5.792 80.664 6.976 80.664 7.04 80.664C8.896 80.664 11.104 79.192 11.104 74.648C11.104 70.808 9.184 69.4 7.04 69.4H5.312ZM20.8943 68.92L27.7743 90.52H29.3423V91C26.2703 91 26.1103 91 23.0703 91V90.52H24.4783L23.8383 88.472C22.6223 85.336 18.3983 85.816 15.4863 85.848L13.9503 90.52H15.3903V91C13.3743 91 13.9823 91 11.9663 91V90.52H13.4703L20.3823 68.92H20.8943ZM23.3263 86.84L19.2943 73.912L15.6463 85.368C19.2943 85.272 21.7903 85.304 23.3263 86.84ZM32.5425 68.92H37.7585L43.4225 82.616V69.4H41.9505V68.92C42.6545 68.92 40.3505 68.92 45.3745 68.92V69.4H43.9025C43.9025 72.024 43.9025 88.984 43.9025 91H43.4225L34.4945 69.4V90.52H35.9665V91C33.7905 91 34.9425 91 32.5425 91V90.52H34.0145V69.4H32.5425V68.92ZM59.7162 69.752C59.7162 69.4 59.7162 69.112 59.7162 68.92H60.0682C60.0682 69.24 60.0682 71.64 60.0682 73.944H59.7162C59.5562 71.096 57.4122 69.272 55.3002 69.272C52.5162 69.272 50.7562 74.424 50.7562 80.376C50.7562 86.712 52.4842 90.744 55.3002 90.744C56.6122 90.744 58.7562 89.848 59.8122 87.416L60.0682 87.928C58.9482 90.264 56.8682 91.224 55.0762 91.224C50.6922 91.224 47.5562 86.712 47.5562 80.44C47.5562 74.68 50.0202 68.792 55.3002 68.792C56.6442 68.792 57.9562 69.304 58.8522 70.2C59.1082 70.456 59.3002 70.616 59.4602 70.616C59.6522 70.616 59.7162 70.328 59.7162 69.752ZM70.4043 68.92L77.2843 90.52H78.8523V91C75.7803 91 75.6203 91 72.5803 91V90.52H73.9883L73.3483 88.472C72.1323 85.336 67.9083 85.816 64.9963 85.848L63.4603 90.52H64.9003V91C62.8843 91 63.4923 91 61.4763 91V90.52H62.9803L69.8923 68.92H70.4043ZM72.8363 86.84L68.8043 73.912L65.1563 85.368C68.8043 85.272 71.3003 85.304 72.8363 86.84ZM82.0525 90.52C82.2125 90.52 82.3725 90.52 83.5245 90.52V69.4C83.0445 69.4 82.5325 69.4 82.0525 69.4V68.92C82.6925 68.92 83.5885 68.92 88.1965 68.92V69.4C87.7165 69.4 87.2365 69.4 86.7245 69.4V78.584L93.1245 69.4H90.7565V68.92C91.3965 68.92 91.5245 68.92 96.1325 68.92V69.4C95.1725 69.4 94.4045 69.4 93.6045 69.4L88.4205 76.824L93.3805 84.888C95.1085 87.736 95.9085 88.568 96.4845 88.568C96.6765 88.568 96.8685 88.472 97.0285 88.312L97.1245 88.472C96.4845 90.072 95.9405 91 94.7885 91C93.7325 91 93.1565 90.552 90.7885 86.744L86.7245 80.184V90.52H88.1965V91C86.1805 91 84.0685 91 82.0525 91V90.52ZM111.932 69.4H104.988V79.768C105.66 79.768 107.836 79.768 111.068 79.768C111.804 79.768 112.092 79.48 112.092 78.744H112.572C112.572 79.064 112.572 79.064 112.572 81.368H112.092V81.208C112.092 80.6 111.676 80.248 111.068 80.248H104.988V90.52H111.932C113.244 90.52 114.108 89.656 114.108 88.344H114.588C114.588 88.984 114.588 86.392 114.588 91H100.316V90.52C100.476 90.52 100.636 90.52 101.788 90.52V69.4C101.308 69.4 100.86 69.4 100.316 69.4V68.92H114.588C114.588 69.56 114.588 66.968 114.588 71.576H114.108C114.108 70.264 113.244 69.4 111.932 69.4ZM123.111 90.744C125.159 90.744 128.327 89.752 128.327 86.616C128.327 79.992 117.799 81.752 117.799 75.096C117.799 71.192 121.383 68.792 124.903 68.792C126.791 68.792 128.551 69.496 130.023 71.032C130.023 71.672 130.023 69.08 130.023 73.688H129.543C129.543 70.968 127.207 69.272 124.935 69.272C122.791 69.272 120.231 70.84 120.231 73.496C120.231 79.128 130.567 77.144 130.567 85.368C130.567 88.184 128.071 91.224 123.175 91.224C121.095 91.224 119.399 90.648 117.799 88.984C117.799 88.344 117.799 90.936 117.799 86.328H118.279C118.279 88.856 120.583 90.744 123.111 90.744ZM152.117 68.92L144.501 91H144.021L151.637 68.92H152.117ZM170.729 91L164.265 69.4H162.697V68.92C165.769 68.92 165.929 68.92 168.969 68.92V69.4H167.561L172.457 85.56L177.769 68.92H178.313L182.089 85.08L187.081 69.4H185.705V68.92C187.721 68.92 187.113 68.92 189.129 68.92V69.4C188.841 69.4 189.033 69.4 187.625 69.4L180.713 91H180.201L176.425 74.84L171.241 91H170.729ZM193.483 68.92L200.363 90.52H201.931V91C198.859 91 198.699 91 195.659 91V90.52H197.067L196.427 88.472C195.211 85.336 190.987 85.816 188.075 85.848L186.539 90.52H187.979V91C185.963 91 186.571 91 184.555 91V90.52H186.059L192.971 68.92H193.483ZM195.915 86.84L191.883 73.912L188.235 85.368C191.883 85.272 194.379 85.304 195.915 86.84ZM216.747 69.4H209.803V80.568C210.475 80.568 212.651 80.568 215.883 80.568C216.619 80.568 216.907 80.28 216.907 79.544H217.387C217.387 79.864 217.387 79.864 217.387 82.168H216.907V82.008C216.907 81.4 216.491 81.048 215.883 81.048C214.027 81.048 211.371 81.048 209.803 81.048V90.52H211.275V91C209.259 91 207.147 91 205.131 91V90.52C205.291 90.52 205.451 90.52 206.603 90.52V69.4C206.123 69.4 205.675 69.4 205.131 69.4V68.92H219.403C219.403 69.56 219.403 66.968 219.403 71.576H218.923C218.923 70.264 218.059 69.4 216.747 69.4ZM234.23 69.4H227.286V80.568C227.958 80.568 230.134 80.568 233.366 80.568C234.102 80.568 234.39 80.28 234.39 79.544H234.87C234.87 79.864 234.87 79.864 234.87 82.168H234.39V82.008C234.39 81.4 233.974 81.048 233.366 81.048C231.51 81.048 228.854 81.048 227.286 81.048V90.52H228.758V91C226.742 91 224.63 91 222.614 91V90.52C222.774 90.52 222.934 90.52 224.086 90.52V69.4C223.606 69.4 223.158 69.4 222.614 69.4V68.92H236.886C236.886 69.56 236.886 66.968 236.886 71.576H236.406C236.406 70.264 235.542 69.4 234.23 69.4ZM251.52 88.344H252C252 88.984 252 86.392 252 91H240.096V90.52C240.352 90.52 240.256 90.52 241.568 90.52V69.4H240.096V68.92H246.24V69.4C245.408 69.4 244.992 69.4 244.768 69.4V90.52C245.984 90.52 247.008 90.52 249.344 90.52C250.656 90.52 251.52 89.656 251.52 88.344ZM266.82 69.4H259.876V79.768C260.548 79.768 262.724 79.768 265.956 79.768C266.692 79.768 266.98 79.48 266.98 78.744H267.46C267.46 79.064 267.46 79.064 267.46 81.368H266.98V81.208C266.98 80.6 266.564 80.248 265.956 80.248H259.876V90.52H266.82C268.132 90.52 268.996 89.656 268.996 88.344H269.476C269.476 88.984 269.476 86.392 269.476 91H255.204V90.52C255.364 90.52 255.524 90.52 256.676 90.52V69.4C256.196 69.4 255.748 69.4 255.204 69.4V68.92H269.476C269.476 69.56 269.476 66.968 269.476 71.576H268.996C268.996 70.264 268.132 69.4 266.82 69.4ZM277.998 90.744C280.046 90.744 283.214 89.752 283.214 86.616C283.214 79.992 272.686 81.752 272.686 75.096C272.686 71.192 276.27 68.792 279.79 68.792C281.678 68.792 283.438 69.496 284.91 71.032C284.91 71.672 284.91 69.08 284.91 73.688H284.43C284.43 70.968 282.094 69.272 279.822 69.272C277.678 69.272 275.118 70.84 275.118 73.496C275.118 79.128 285.454 77.144 285.454 85.368C285.454 88.184 282.958 91.224 278.062 91.224C275.982 91.224 274.286 90.648 272.686 88.984C272.686 88.344 272.686 90.936 272.686 86.328H273.166C273.166 88.856 275.47 90.744 277.998 90.744Z" fill="white"/>
<path d="M5.952 155.744C8 155.744 11.168 154.752 11.168 151.616C11.168 144.992 0.64 146.752 0.64 140.096C0.64 136.192 4.224 133.792 7.744 133.792C9.632 133.792 11.392 134.496 12.864 136.032C12.864 136.672 12.864 134.08 12.864 138.688H12.384C12.384 135.968 10.048 134.272 7.776 134.272C5.632 134.272 3.072 135.84 3.072 138.496C3.072 144.128 13.408 142.144 13.408 150.368C13.408 153.184 10.912 156.224 6.016 156.224C3.936 156.224 2.24 155.648 0.64 153.984C0.64 153.344 0.64 155.936 0.64 151.328H1.12C1.12 153.856 3.424 155.744 5.952 155.744ZM23.2068 133.92L30.0868 155.52H31.6548V156C28.5828 156 28.4228 156 25.3828 156V155.52H26.7908L26.1508 153.472C24.9348 150.336 20.7108 150.816 17.7988 150.848L16.2628 155.52H17.7028V156C15.6868 156 16.2948 156 14.2788 156V155.52H15.7828L22.6948 133.92H23.2068ZM25.6388 151.84L21.6068 138.912L17.9588 150.368C21.6068 150.272 24.1028 150.304 25.6388 151.84ZM35.678 156L28.798 134.4H27.23V133.92C30.302 133.92 30.462 133.92 33.502 133.92V134.4H32.094L37.278 151.008L42.558 134.4H41.182V133.92C43.198 133.92 42.59 133.92 44.606 133.92V134.4H43.102L36.19 156H35.678ZM44.65 145.344C44.65 138.464 48.042 133.792 52.234 133.792C56.458 133.792 59.658 138.496 59.658 145.376C59.658 152.256 56.106 156.224 52.17 156.224C48.106 156.224 44.65 152.32 44.65 145.344ZM47.85 145.344C47.85 149.632 48.938 155.744 52.17 155.744C55.402 155.744 56.49 149.6 56.49 145.376C56.49 141.12 55.434 134.272 52.266 134.272C49.034 134.272 47.85 141.12 47.85 145.344ZM61.82 133.92H69.98C73.468 133.92 75.484 136.416 75.484 138.976C75.484 142.368 72.828 144.16 69.948 144.672L73.148 149.888C74.876 152.736 75.676 153.568 76.252 153.568C76.444 153.568 76.636 153.472 76.796 153.312L76.892 153.472C76.252 155.072 75.708 156 74.556 156C73.5 156 72.924 155.552 70.556 151.744L66.492 145.184V155.52H67.964V156C65.948 156 63.836 156 61.82 156V155.52C61.98 155.52 62.14 155.52 63.292 155.52V134.4H61.82V133.92ZM66.492 134.4V144.352C66.972 144.352 68.156 144.352 68.22 144.352C70.076 144.352 72.284 142.688 72.284 138.976C72.284 135.808 70.364 134.4 68.22 134.4H66.492ZM86.299 145.632V155.52H87.771V156H81.627V155.52C81.883 155.52 81.787 155.52 83.099 155.52V145.632L78.843 134.4C78.459 134.4 78.043 134.4 77.115 134.4V133.92H83.547V134.4C82.843 134.4 82.427 134.4 82.267 134.4L86.139 144.704L89.883 134.4C89.563 134.4 89.339 134.4 88.539 134.4V133.92H91.995V134.4C91.067 134.4 90.683 134.4 90.395 134.4L86.299 145.632Z" fill="white"/>
<path d="M12.064 218.344H12.544C12.544 218.984 12.544 216.392 12.544 221H0.64V220.52C0.896 220.52 0.8 220.52 2.112 220.52V199.4H0.64V198.92H6.784V199.4C5.952 199.4 5.536 199.4 5.312 199.4V220.52C6.528 220.52 7.552 220.52 9.888 220.52C11.2 220.52 12.064 219.656 12.064 218.344ZM15.7475 220.52C16.0035 220.52 15.9075 220.52 17.2195 220.52V199.4H15.7475V198.92H21.8915V199.4C21.0595 199.4 20.6435 199.4 20.4195 199.4V220.52H21.8915V221H15.7475V220.52ZM35.121 199.4C33.649 199.4 33.297 199.4 33.041 199.4V220.52H34.513V221C32.497 221 30.385 221 28.369 221V220.52C28.529 220.52 28.881 220.52 30.033 220.52V199.4C29.649 199.4 29.297 199.4 27.825 199.4C26.513 199.4 25.585 200.264 25.585 201.576H25.105C25.105 196.968 25.105 199.56 25.105 198.92H37.777C37.777 199.56 37.777 196.968 37.777 201.576H37.297C37.297 200.264 36.433 199.4 35.121 199.4ZM50.9785 199.4C49.5065 199.4 49.1545 199.4 48.8985 199.4V220.52H50.3705V221C48.3545 221 46.2425 221 44.2265 221V220.52C44.3865 220.52 44.7385 220.52 45.8905 220.52V199.4C45.5065 199.4 45.1545 199.4 43.6825 199.4C42.3705 199.4 41.4425 200.264 41.4425 201.576H40.9625C40.9625 196.968 40.9625 199.56 40.9625 198.92H53.6345C53.6345 199.56 53.6345 196.968 53.6345 201.576H53.1545C53.1545 200.264 52.2905 199.4 50.9785 199.4ZM68.244 218.344H68.724C68.724 218.984 68.724 216.392 68.724 221H56.82V220.52C57.076 220.52 56.98 220.52 58.292 220.52V199.4H56.82V198.92H62.964V199.4C62.132 199.4 61.716 199.4 61.492 199.4V220.52C62.708 220.52 63.732 220.52 66.068 220.52C67.38 220.52 68.244 219.656 68.244 218.344ZM83.5435 199.4H76.5995V209.768C77.2715 209.768 79.4475 209.768 82.6795 209.768C83.4155 209.768 83.7035 209.48 83.7035 208.744H84.1835C84.1835 209.064 84.1835 209.064 84.1835 211.368H83.7035V211.208C83.7035 210.6 83.2875 210.248 82.6795 210.248H76.5995V220.52H83.5435C84.8555 220.52 85.7195 219.656 85.7195 218.344H86.1995C86.1995 218.984 86.1995 216.392 86.1995 221H71.9275V220.52C72.0875 220.52 72.2475 220.52 73.3995 220.52V199.4C72.9195 199.4 72.4715 199.4 71.9275 199.4V198.92H86.1995C86.1995 199.56 86.1995 196.968 86.1995 201.576H85.7195C85.7195 200.264 84.8555 199.4 83.5435 199.4ZM99.33 220.52C99.49 220.52 99.65 220.52 100.802 220.52V199.4C100.322 199.4 99.874 199.4 99.33 199.4V198.92H105.474V199.4C104.642 199.4 104.226 199.4 104.002 199.4V209.864H111.458V199.4C110.978 199.4 110.53 199.4 109.986 199.4V198.92H116.13V199.4C115.298 199.4 114.882 199.4 114.658 199.4V220.52H116.13V221H109.986V220.52C110.146 220.52 110.306 220.52 111.458 220.52V210.344H104.002V220.52H105.474V221H99.33V220.52ZM119.344 198.92H125.552V199.4C124.72 199.4 124.304 199.4 124.08 199.4V215.784C124.08 219.208 125.648 220.424 127.344 220.424C129.36 220.424 131.536 219.016 131.536 215.784V199.4C131.248 199.4 131.024 199.4 130.064 199.4V198.92C130.768 198.92 128.464 198.92 133.488 198.92V199.4H132.016V215.784C132.016 219.784 129.104 221.224 126.224 221.224C123.536 221.224 120.88 219.624 120.88 215.784V199.4C120.4 199.4 119.888 199.4 119.344 199.4V198.92ZM136.701 198.92H141.917L147.581 212.616V199.4H146.109V198.92C146.813 198.92 144.509 198.92 149.533 198.92V199.4H148.061C148.061 202.024 148.061 218.984 148.061 221H147.581L138.653 199.4V220.52H140.125V221C137.949 221 139.101 221 136.701 221V220.52H138.173V199.4H136.701V198.92ZM162.82 218.792C161.988 220.296 161.092 221.224 159.172 221.224C154.756 221.224 151.652 216.712 151.652 210.44C151.652 204.68 154.116 198.792 159.428 198.792C160.74 198.792 162.052 199.304 162.948 200.2C163.204 200.456 163.396 200.616 163.556 200.616C163.748 200.616 163.812 200.328 163.812 199.752C163.812 199.4 163.812 199.112 163.812 198.92H164.164C164.164 199.24 164.164 201.64 164.164 203.944H163.812C163.652 201.096 161.54 199.272 159.428 199.272C156.612 199.272 154.852 205.032 154.852 210.44C154.852 215.752 156.324 220.744 159.428 220.744C162.116 220.744 163.428 216.936 163.428 214.728C163.428 213.96 163.012 213.448 162.34 213.448H162.308V212.968C162.788 212.968 162.916 212.968 166.308 212.968V213.448C165.732 213.448 165.284 213.96 165.284 214.728V221H163.492V218.888C163.492 218.216 163.46 217.928 163.364 217.928C163.268 217.928 163.108 218.248 162.82 218.792ZM181.126 199.4H174.182V209.768C174.854 209.768 177.03 209.768 180.262 209.768C180.998 209.768 181.286 209.48 181.286 208.744H181.766C181.766 209.064 181.766 209.064 181.766 211.368H181.286V211.208C181.286 210.6 180.87 210.248 180.262 210.248H174.182V220.52H181.126C182.438 220.52 183.302 219.656 183.302 218.344H183.782C183.782 218.984 183.782 216.392 183.782 221H169.51V220.52C169.67 220.52 169.83 220.52 170.982 220.52V199.4C170.502 199.4 170.054 199.4 169.51 199.4V198.92H183.782C183.782 199.56 183.782 196.968 183.782 201.576H183.302C183.302 200.264 182.438 199.4 181.126 199.4ZM186.992 198.92H195.152C198.64 198.92 200.656 201.416 200.656 203.976C200.656 207.368 198 209.16 195.12 209.672L198.32 214.888C200.048 217.736 200.848 218.568 201.424 218.568C201.616 218.568 201.808 218.472 201.968 218.312L202.064 218.472C201.424 220.072 200.88 221 199.728 221C198.672 221 198.096 220.552 195.728 216.744L191.664 210.184V220.52H193.136V221C191.12 221 189.008 221 186.992 221V220.52C187.152 220.52 187.312 220.52 188.464 220.52V199.4H186.992V198.92ZM191.664 199.4V209.352C192.144 209.352 193.328 209.352 193.392 209.352C195.248 209.352 197.456 207.688 197.456 203.976C197.456 200.808 195.536 199.4 193.392 199.4H191.664Z" fill="white"/>
</svg>
