<svg width="962" height="495" viewBox="0 0 962 495" fill="none" xmlns="http://www.w3.org/2000/svg">
<path d="M117.423 63.26V114.92C108.963 123.56 98.3426 127.16 87.9026 127.16C59.6426 127.16 36.6026 105.02 36.6026 64.34C36.6026 22.76 60.5426 1.33999 88.6226 1.33999C90.7826 1.33999 92.4026 1.51999 94.2026 1.88C102.483 2.95999 119.223 13.04 119.223 26.36L119.043 27.8C117.063 29.78 113.823 32.3 111.303 32.3C104.283 32.3 106.983 9.61999 97.8026 4.93999C95.6426 3.85999 90.9626 2.78 88.8026 2.78C64.1426 2.78 52.0826 35 52.0826 67.58C52.0826 100.52 63.9626 125.72 88.0826 125.72C97.9826 125.72 109.503 119.96 115.443 112.58C113.283 90.44 109.143 74.42 100.683 68.48L71.3426 75.14C67.7426 71.9 67.3826 60.2 67.3826 60.2L67.7426 58.94C69.0026 58.22 71.1626 57.86 73.3226 57.86C80.1626 57.86 116.883 62.72 117.423 63.26ZM165.65 60.92C180.77 64.16 192.29 77.48 192.29 95.66C192.11 114.74 179.87 127.16 164.21 127.16C142.43 127.16 127.13 109.88 127.13 83.06C127.13 56.06 141.53 38.96 163.49 38.96C170.15 38.96 188.51 47.24 188.69 58.04C187.07 60.38 184.01 63.26 181.67 63.26C180.23 63.26 179.33 62.36 178.61 60.92H165.65ZM163.67 40.4C155.03 40.4 149.45 48.68 146.21 59.12H177.71C175.19 52.46 173.93 40.4 163.67 40.4ZM145.67 60.92C143.33 69.56 142.25 79.28 142.25 86.66C142.25 107.18 150.53 125.36 165.47 125.36C179.33 125.36 191.03 112.76 191.03 95.66C191.03 77.3 176.99 60.92 158.27 60.92H145.67ZM262.95 114.02L265.11 126.44L263.85 127.34C263.85 127.34 248.73 125.18 232.35 125.18V123.56C232.35 123.56 248.01 126.44 247.47 115.1V68.66C247.47 68.66 248.19 44 238.29 44C229.29 44 222.09 62.36 221.73 77.3L221.01 72.26C222.63 60.38 227.49 39.14 242.07 39.14C256.11 39.14 262.95 53.54 262.95 68.66V114.02ZM221.73 40.58V114.02L223.89 126.44L222.81 127.34C222.81 127.34 216.33 125.18 199.95 125.18V123.56C199.95 123.56 205.71 125 206.43 115.1V50.48L220.65 39.5C221.19 39.86 221.73 40.58 221.73 40.58ZM221.73 43.28L208.23 54.08L197.43 48.86V47.6C205.89 45.98 217.41 40.94 218.85 39.32C219.75 38.42 221.19 40.04 221.19 40.04L221.73 43.28ZM288.131 29.96C283.631 29.96 280.031 25.1 280.031 19.16C280.031 13.22 283.631 8.36 288.131 8.36C292.631 8.36 296.231 13.22 296.231 19.16C296.231 25.1 292.631 29.96 288.131 29.96ZM296.051 113.66L298.211 126.26L297.131 127.16C297.131 127.16 290.471 125 274.271 125V123.38C274.271 123.38 280.751 125 280.751 113.48V52.82L271.571 48.5C268.871 48.5 266.351 47.78 264.011 46.52L264.191 45.62C266.531 46.88 269.051 47.42 271.751 47.24C280.211 45.44 286.691 40.58 287.951 38.96C288.851 38.06 296.051 40.22 296.051 40.22V113.66ZM347.056 60.92C362.176 64.16 373.696 77.48 373.696 95.66C373.516 114.74 361.276 127.16 345.616 127.16C323.836 127.16 308.536 109.88 308.536 83.06C308.536 56.06 322.936 38.96 344.896 38.96C351.556 38.96 369.916 47.24 370.096 58.04C368.476 60.38 365.416 63.26 363.076 63.26C361.636 63.26 360.736 62.36 360.016 60.92H347.056ZM345.076 40.4C336.436 40.4 330.856 48.68 327.616 59.12H359.116C356.596 52.46 355.336 40.4 345.076 40.4ZM327.076 60.92C324.736 69.56 323.656 79.28 323.656 86.66C323.656 107.18 331.936 125.36 346.876 125.36C360.736 125.36 372.436 112.76 372.436 95.66C372.436 77.3 358.396 60.92 339.676 60.92H327.076ZM420.437 96.92H421.517C425.297 111.14 420.437 127.16 406.937 127.16C395.597 127.16 386.237 117.26 386.237 97.1V40.76H374.717V38.96H375.257C397.217 37.88 391.457 11.06 391.457 11.06C394.157 5.3 402.257 4.03999 402.257 4.03999L403.337 4.57999C404.597 7.27999 404.057 32.3 383.537 38.96H417.017V40.76H401.357L401.537 99.98C401.537 114.92 401.357 125.9 410.717 124.46C420.077 122.84 423.857 110.96 420.437 96.92ZM537.292 34.28C529.012 61.82 520.552 89.72 512.272 117.26L517.672 125.72L516.772 127.16C511.552 124.64 489.412 125.18 489.412 125.18V123.56C489.412 123.56 494.812 124.82 495.712 116.18C485.812 83.42 475.912 50.3 466.012 17.54L456.652 16.64L456.472 15.56C464.392 10.52 469.792 3.13999 470.692 1.16C470.872 0.79999 471.952 0.619992 473.032 0.619992C475.732 0.619992 479.872 1.33999 479.872 1.33999L482.392 13.4L511.192 115.46L532.792 44.54C534.592 34.82 524.692 9.61999 524.872 8.72C526.672 3.5 537.112 0.979998 537.112 0.979998L538.192 1.33999C539.272 3.85999 542.872 5.65999 537.292 34.28ZM599.111 111.5L600.011 112.94C593.351 120.32 590.111 126.8 590.111 126.8L588.851 127.16L574.271 120.5V108.62C571.751 119.06 565.991 127.16 554.831 127.16C541.691 127.16 530.351 117.08 530.351 98.9C530.351 76.22 544.571 65.78 558.071 65.78C563.111 65.78 568.871 68.66 571.931 72.62C567.611 63.62 557.711 55.88 546.371 55.88C542.051 54.8 536.831 47.42 536.831 47.42L536.651 46.16C538.451 43.82 538.811 38.96 560.951 38.96C585.971 38.96 589.751 64.88 589.751 64.88V111.68C589.751 115.82 589.571 122.12 590.831 122.12C591.191 122.12 592.991 120.14 594.791 117.98C597.131 115.1 599.111 111.5 599.111 111.5ZM574.271 76.22V64.88C574.271 63.26 573.551 40.76 561.131 40.76C560.411 40.76 551.051 49.22 548.531 53.54C560.771 55.7 571.031 64.88 574.271 76.22ZM574.271 100.88V80.9C572.291 72.8 566.891 68.48 561.851 68.48C552.311 68.48 545.651 81.44 545.651 97.28C545.651 111.14 550.871 123.92 560.051 123.92C568.871 123.92 573.011 110.42 574.271 100.88ZM665.489 114.02L667.649 126.44L666.389 127.34C666.389 127.34 651.269 125.18 634.889 125.18V123.56C634.889 123.56 650.549 126.44 650.009 115.1V68.66C650.009 68.66 650.729 44 640.829 44C631.829 44 624.629 62.36 624.269 77.3L623.549 72.26C625.169 60.38 630.029 39.14 644.609 39.14C658.649 39.14 665.489 53.54 665.489 68.66V114.02ZM624.269 40.58V114.02L626.429 126.44L625.349 127.34C625.349 127.34 618.869 125.18 602.489 125.18V123.56C602.489 123.56 608.249 125 608.969 115.1V50.48L623.189 39.5C623.729 39.86 624.269 40.58 624.269 40.58ZM624.269 43.28L610.769 54.08L599.969 48.86V47.6C608.429 45.98 619.949 40.94 621.389 39.32C622.289 38.42 623.729 40.04 623.729 40.04L624.269 43.28ZM707.216 127.16V125.72C710.996 126.08 714.956 121.58 716.756 117.8V14.48L708.116 10.16V9.07999C713.156 7.99999 722.696 5.47999 725.576 0.79999C725.756 0.439994 750.416 1.16 763.736 1.88C769.856 2.41999 776.876 2.41999 779.936 4.75999L780.296 6.02C780.296 6.02 777.056 22.76 773.276 28.52L772.556 28.16C773.996 12.32 748.436 4.93999 732.236 2.6V57.32C736.916 58.22 741.596 58.76 745.556 58.76C752.396 58.76 757.796 57.32 759.956 54.08C760.136 53.72 760.856 54.8 761.216 54.62C762.296 58.4 762.296 75.5 758.696 73.7L732.236 59.66V125.54C745.196 124.1 773.456 115.1 770.396 98.18L771.116 97.46C774.536 106.28 776.876 123.2 776.876 123.2L776.696 124.46C773.996 126.44 735.476 127.34 730.976 127.16H707.216ZM826.236 60.92C841.356 64.16 852.876 77.48 852.876 95.66C852.696 114.74 840.456 127.16 824.796 127.16C803.016 127.16 787.716 109.88 787.716 83.06C787.716 56.06 802.116 38.96 824.076 38.96C830.736 38.96 849.096 47.24 849.276 58.04C847.656 60.38 844.596 63.26 842.256 63.26C840.816 63.26 839.916 62.36 839.196 60.92H826.236ZM824.256 40.4C815.616 40.4 810.036 48.68 806.796 59.12H838.296C835.776 52.46 834.516 40.4 824.256 40.4ZM806.256 60.92C803.916 69.56 802.836 79.28 802.836 86.66C802.836 107.18 811.116 125.36 826.056 125.36C839.916 125.36 851.616 112.76 851.616 95.66C851.616 77.3 837.576 60.92 818.856 60.92H806.256ZM923.536 114.02L925.696 126.44L924.436 127.34C924.436 127.34 909.316 125.18 892.936 125.18V123.56C892.936 123.56 908.596 126.44 908.056 115.1V68.66C908.056 68.66 908.776 44 898.876 44C889.876 44 882.676 62.36 882.316 77.3L881.596 72.26C883.216 60.38 888.076 39.14 902.656 39.14C916.696 39.14 923.536 53.54 923.536 68.66V114.02ZM882.316 40.58V114.02L884.476 126.44L883.396 127.34C883.396 127.34 876.916 125.18 860.536 125.18V123.56C860.536 123.56 866.296 125 867.016 115.1V50.48L881.236 39.5C881.776 39.86 882.316 40.58 882.316 40.58ZM882.316 43.28L868.816 54.08L858.016 48.86V47.6C866.476 45.98 877.996 40.94 879.436 39.32C880.336 38.42 881.776 40.04 881.776 40.04L882.316 43.28ZM81.5632 228.26V279.92C73.1032 288.56 62.4832 292.16 52.0432 292.16C23.7832 292.16 0.743203 270.02 0.743203 229.34C0.743203 187.76 24.6832 166.34 52.7632 166.34C54.9232 166.34 56.5432 166.52 58.3432 166.88C66.6232 167.96 83.3632 178.04 83.3632 191.36L83.1832 192.8C81.2032 194.78 77.9632 197.3 75.4432 197.3C68.4232 197.3 71.1232 174.62 61.9432 169.94C59.7832 168.86 55.1032 167.78 52.9432 167.78C28.2832 167.78 16.2232 200 16.2232 232.58C16.2232 265.52 28.1032 290.72 52.2232 290.72C62.1232 290.72 73.6432 284.96 79.5832 277.58C77.4232 255.44 73.2832 239.42 64.8232 233.48L35.4832 240.14C31.8832 236.9 31.5232 225.2 31.5232 225.2L31.8832 223.94C33.1432 223.22 35.3032 222.86 37.4632 222.86C44.3032 222.86 81.0232 227.72 81.5632 228.26ZM129.791 225.92C144.911 229.16 156.431 242.48 156.431 260.66C156.251 279.74 144.011 292.16 128.351 292.16C106.571 292.16 91.2705 274.88 91.2705 248.06C91.2705 221.06 105.671 203.96 127.631 203.96C134.291 203.96 152.651 212.24 152.831 223.04C151.211 225.38 148.151 228.26 145.811 228.26C144.371 228.26 143.471 227.36 142.751 225.92H129.791ZM127.811 205.4C119.171 205.4 113.591 213.68 110.351 224.12H141.851C139.331 217.46 138.071 205.4 127.811 205.4ZM109.811 225.92C107.471 234.56 106.391 244.28 106.391 251.66C106.391 272.18 114.671 290.36 129.611 290.36C143.471 290.36 155.171 277.76 155.171 260.66C155.171 242.3 141.131 225.92 122.411 225.92H109.811ZM219.564 207.74C206.964 233.12 196.164 259.04 183.924 284.6C185.004 289.28 187.344 290.18 188.784 290.36C193.464 290.36 195.444 290.18 200.124 290.36C209.484 286.94 213.984 275.42 215.784 270.2C216.324 268.76 217.404 270.2 217.404 270.2L217.584 292.16C205.164 292.16 168.624 290.18 161.244 293.96L160.164 292.34L166.464 282.8L201.204 209.18H190.224C182.664 208.82 170.784 227.36 170.064 227C165.924 225.56 162.864 214.4 162.864 214.4L163.044 212.96C164.664 210.98 164.844 207.2 187.524 207.74H219.564ZM265.142 225.92C280.262 229.16 291.782 242.48 291.782 260.66C291.602 279.74 279.362 292.16 263.702 292.16C241.922 292.16 226.622 274.88 226.622 248.06C226.622 221.06 241.022 203.96 262.982 203.96C269.642 203.96 288.002 212.24 288.182 223.04C286.562 225.38 283.502 228.26 281.162 228.26C279.722 228.26 278.822 227.36 278.102 225.92H265.142ZM263.162 205.4C254.522 205.4 248.942 213.68 245.702 224.12H277.202C274.682 217.46 273.422 205.4 263.162 205.4ZM245.162 225.92C242.822 234.56 241.742 244.28 241.742 251.66C241.742 272.18 250.022 290.36 264.962 290.36C278.822 290.36 290.522 277.76 290.522 260.66C290.522 242.3 276.482 225.92 257.762 225.92H245.162ZM317.81 280.46L319.61 291.44L318.53 292.16C318.53 292.16 312.23 290 295.85 290V288.56C295.85 288.56 302.33 290 302.33 278.48V179.48L293.51 175.16V174.08C302.15 172.28 313.13 167.6 315.11 165.8C316.01 164.9 317.81 167.06 317.81 167.06V174.26C317.81 209.72 317.81 245 317.81 280.46ZM350.857 280.46L352.657 291.44L351.577 292.16C351.577 292.16 345.277 290 328.897 290V288.56C328.897 288.56 335.377 290 335.377 278.48V179.48L326.557 175.16V174.08C335.197 172.28 346.177 167.6 348.157 165.8C349.057 164.9 350.857 167.06 350.857 167.06V174.26C350.857 209.72 350.857 245 350.857 280.46ZM377.956 194.96C373.456 194.96 369.856 190.1 369.856 184.16C369.856 178.22 373.456 173.36 377.956 173.36C382.456 173.36 386.056 178.22 386.056 184.16C386.056 190.1 382.456 194.96 377.956 194.96ZM385.876 278.66L388.036 291.26L386.956 292.16C386.956 292.16 380.296 290 364.096 290V288.38C364.096 288.38 370.576 290 370.576 278.48V217.82L361.396 213.5C358.696 213.5 356.176 212.78 353.836 211.52L354.016 210.62C356.356 211.88 358.876 212.42 361.576 212.24C370.036 210.44 376.516 205.58 377.776 203.96C378.676 203.06 385.876 205.22 385.876 205.22V278.66ZM452.746 274.7C482.266 274.7 480.826 329.96 449.326 329.96C440.506 329.96 432.046 320.06 425.026 308.72C421.246 319.52 417.106 329.96 407.206 329.96C383.086 329.96 383.446 283.7 409.546 283.7C418.006 283.7 424.126 288.02 428.626 293.96C431.506 286.4 434.386 279.92 440.506 273.08C437.086 274.52 433.486 275.42 429.706 275.42C413.866 275.42 398.746 261.2 398.746 239.96C398.746 217.46 413.866 204.68 429.706 204.68C432.946 204.68 436.006 205.22 438.886 206.3C443.206 201.98 457.786 192.62 463.186 192.62C464.806 192.62 465.526 193.16 466.426 193.52L466.786 194.78C466.786 194.78 465.526 204.14 462.106 207.56C462.106 207.56 443.746 204.5 443.026 204.86C442.126 205.58 441.406 206.3 440.686 207.02C451.126 211.88 460.846 222.5 460.846 239.96C460.846 255.08 453.106 265.34 444.826 270.56C436.006 280.1 432.946 286.4 429.706 295.4C439.246 308.54 442.486 328.16 449.326 328.16C463.546 328.16 458.866 276.14 452.386 276.14C448.966 276.14 446.086 290.9 444.106 306.74H443.026V276.86C444.646 275.78 448.606 274.7 452.746 274.7ZM427.906 273.8C437.986 275.24 444.646 262.64 445.906 242.3C447.166 221.96 442.126 207.38 431.866 206.12C421.786 204.86 415.486 217.64 414.226 237.8C412.966 258.14 417.646 272.54 427.906 273.8ZM413.326 323.84C418.726 323.84 422.146 312.68 424.126 307.1C419.626 300.08 415.666 285.5 410.806 285.5C400.906 285.5 403.246 323.84 413.326 323.84ZM508.599 225.92C523.719 229.16 535.239 242.48 535.239 260.66C535.059 279.74 522.819 292.16 507.159 292.16C485.379 292.16 470.079 274.88 470.079 248.06C470.079 221.06 484.479 203.96 506.439 203.96C513.099 203.96 531.459 212.24 531.639 223.04C530.019 225.38 526.959 228.26 524.619 228.26C523.179 228.26 522.279 227.36 521.559 225.92H508.599ZM506.619 205.4C497.979 205.4 492.399 213.68 489.159 224.12H520.659C518.139 217.46 516.879 205.4 506.619 205.4ZM488.619 225.92C486.279 234.56 485.199 244.28 485.199 251.66C485.199 272.18 493.479 290.36 508.419 290.36C522.279 290.36 533.979 277.76 533.979 260.66C533.979 242.3 519.939 225.92 501.219 225.92H488.619ZM568.763 165.44H639.863V178.94L634.643 194.96H633.743C633.023 188.84 629.063 171.02 624.563 167.42H611.783C611.783 204.5 611.783 241.58 611.783 278.84L614.483 291.26L613.043 292.16C613.043 292.16 604.763 290 590.543 290V288.38C590.543 288.38 595.403 289.64 596.843 281.9C596.843 245.36 596.843 203.78 596.843 167.42H583.883C579.383 171.02 574.343 188.3 573.623 194.42H572.723L568.763 178.94V165.44ZM654.811 194.96C650.311 194.96 646.711 190.1 646.711 184.16C646.711 178.22 650.311 173.36 654.811 173.36C659.311 173.36 662.911 178.22 662.911 184.16C662.911 190.1 659.311 194.96 654.811 194.96ZM662.731 278.66L664.891 291.26L663.811 292.16C663.811 292.16 657.151 290 640.951 290V288.38C640.951 288.38 647.431 290 647.431 278.48V217.82L638.251 213.5C635.551 213.5 633.031 212.78 630.691 211.52L630.871 210.62C633.211 211.88 635.731 212.42 638.431 212.24C646.891 210.44 653.371 205.58 654.631 203.96C655.531 203.06 662.731 205.22 662.731 205.22V278.66ZM687.138 194.96C682.638 194.96 679.038 190.1 679.038 184.34C679.038 178.4 682.638 173.54 687.138 173.54C691.638 173.54 695.238 178.4 695.238 184.34C695.238 190.1 691.638 194.96 687.138 194.96ZM695.958 205.4V269.3C695.958 293.06 691.998 325.1 667.338 325.1C663.738 325.1 654.198 322.4 652.398 317.18C653.298 313.76 656.718 305.48 659.778 305.48C663.558 305.48 668.778 320.78 675.078 320.78C678.318 320.78 680.298 318.98 680.298 314.3V217.82L671.658 213.5V212.42C676.158 211.52 685.518 209.54 690.378 206.48C691.278 205.94 692.718 204.5 693.618 204.14C693.798 203.96 693.978 203.96 694.338 203.96C694.878 203.96 695.598 204.86 695.958 205.4ZM772.959 167.06V280.82C773.499 288.02 777.999 288.74 779.259 288.56V290C768.999 290 756.939 291.44 756.579 292.16L755.499 291.44C755.499 290.54 757.479 279.02 757.659 278.66V265.34C753.879 279.56 745.959 292.16 735.339 292.16C719.319 292.16 706.359 274.52 706.359 248.06C706.359 221.96 718.059 202.34 737.319 204.14C749.919 205.22 756.579 216.2 757.299 222.32C756.939 223.94 753.879 227.9 751.539 227.9C750.819 227.9 750.279 227.54 749.919 226.82C745.779 221.78 745.779 207.02 739.119 206.12C727.059 203.6 722.559 226.82 721.659 248.42C720.939 269.3 723.999 289.1 735.159 290.18C744.339 291.08 754.419 276.86 757.659 259.22V179.84L747.939 175.16V173.9C755.859 172.64 768.279 167.6 770.619 165.62C771.339 164.9 772.959 166.7 772.959 167.06ZM900.403 249.86C900.403 274.7 886.183 292.16 861.883 292.16H817.783V290.72C821.563 291.08 825.523 286.58 827.323 282.8V179.48L818.683 175.16V174.08C824.623 172.82 830.203 169.76 835.423 165.62L853.963 165.44C868.363 165.44 888.343 169.94 888.343 192.44C888.343 203.96 880.783 211.7 872.683 218.9C888.163 221.96 900.403 231.68 900.403 249.86ZM872.683 194.42C872.683 178.76 862.603 167.42 851.443 167.42H842.983L842.803 247.52C850.003 219.26 872.683 232.94 872.683 194.42ZM843.163 290.36H861.883C877.183 290.36 884.923 268.4 884.923 250.58C884.923 236.54 881.683 226.82 870.883 220.34C858.643 230.24 844.063 232.4 842.983 256.52L843.163 290.36ZM919.889 194.96C915.389 194.96 911.789 190.1 911.789 184.16C911.789 178.22 915.389 173.36 919.889 173.36C924.389 173.36 927.989 178.22 927.989 184.16C927.989 190.1 924.389 194.96 919.889 194.96ZM927.809 278.66L929.969 291.26L928.889 292.16C928.889 292.16 922.229 290 906.029 290V288.38C906.029 288.38 912.509 290 912.509 278.48V217.82L903.329 213.5C900.629 213.5 898.109 212.78 895.769 211.52L895.949 210.62C898.289 211.88 900.809 212.42 903.509 212.24C911.969 210.44 918.449 205.58 919.709 203.96C920.609 203.06 927.809 205.22 927.809 205.22V278.66ZM952.216 194.96C947.716 194.96 944.116 190.1 944.116 184.34C944.116 178.4 947.716 173.54 952.216 173.54C956.716 173.54 960.316 178.4 960.316 184.34C960.316 190.1 956.716 194.96 952.216 194.96ZM961.036 205.4V269.3C961.036 293.06 957.076 325.1 932.416 325.1C928.816 325.1 919.276 322.4 917.476 317.18C918.376 313.76 921.796 305.48 924.856 305.48C928.636 305.48 933.856 320.78 940.156 320.78C943.396 320.78 945.376 318.98 945.376 314.3V217.82L936.736 213.5V212.42C941.236 211.52 950.596 209.54 955.456 206.48C956.356 205.94 957.796 204.5 958.696 204.14C958.876 203.96 959.056 203.96 959.416 203.96C959.956 203.96 960.676 204.86 961.036 205.4ZM210.881 422.24H212.501C209.261 445.1 196.301 457.16 176.141 457.16C149.321 457.16 125.021 434.66 125.021 394.34C125.021 349.52 151.661 327.56 181.901 330.98C191.981 332.06 205.121 341.78 206.921 355.64L206.741 357.08C206.741 357.08 201.521 361.76 197.561 361.76C195.761 361.76 194.321 360.86 193.421 358.34C190.361 348.26 191.801 337.1 185.501 334.22C184.241 333.5 182.981 333.32 181.721 333.14C179.741 332.6 177.581 332.24 175.601 332.24C158.681 332.24 144.461 352.94 142.301 390.2C140.141 429.08 153.821 452.66 172.181 455.18C192.521 457.7 208.001 445.28 210.881 422.24ZM295.009 441.5L295.909 442.94C289.249 450.32 286.009 456.8 286.009 456.8L284.749 457.16L270.169 450.5V438.62C267.649 449.06 261.889 457.16 250.729 457.16C237.589 457.16 226.249 447.08 226.249 428.9C226.249 406.22 240.469 395.78 253.969 395.78C259.009 395.78 264.769 398.66 267.829 402.62C263.509 393.62 253.609 385.88 242.269 385.88C237.949 384.8 232.729 377.42 232.729 377.42L232.549 376.16C234.349 373.82 234.709 368.96 256.849 368.96C281.869 368.96 285.649 394.88 285.649 394.88V441.68C285.649 445.82 285.469 452.12 286.729 452.12C287.089 452.12 288.889 450.14 290.689 447.98C293.029 445.1 295.009 441.5 295.009 441.5ZM270.169 406.22V394.88C270.169 393.26 269.449 370.76 257.029 370.76C256.309 370.76 246.949 379.22 244.429 383.54C256.669 385.7 266.929 394.88 270.169 406.22ZM270.169 430.88V410.9C268.189 402.8 262.789 398.48 257.749 398.48C248.209 398.48 241.549 411.44 241.549 427.28C241.549 441.14 246.769 453.92 255.949 453.92C264.769 453.92 268.909 440.42 270.169 430.88ZM322.554 334.22C331.374 334.22 340.014 336.92 343.434 341.42V342.86C343.434 342.86 338.034 352.58 332.814 353.12C332.814 353.12 319.854 336.2 319.134 336.2C308.334 336.2 302.754 368.24 320.754 368.6H337.854V370.58H321.474V443.3L323.634 456.08L322.554 456.98C322.554 456.98 316.074 454.82 299.694 454.82V453.2C299.694 453.2 305.274 454.46 306.174 445.46V374.36L293.574 370.58V368.6H310.494C303.654 366.8 295.734 362.3 295.734 353.84C295.734 340.88 308.514 334.22 322.554 334.22ZM378.601 344.66L362.221 361.04L360.601 359.78L373.561 336.2L378.601 344.66ZM375.181 390.92C390.301 394.16 401.821 407.48 401.821 425.66C401.641 444.74 389.401 457.16 373.741 457.16C351.961 457.16 336.661 439.88 336.661 413.06C336.661 386.06 351.061 368.96 373.021 368.96C379.681 368.96 398.041 377.24 398.221 388.04C396.601 390.38 393.541 393.26 391.201 393.26C389.761 393.26 388.861 392.36 388.141 390.92H375.181ZM373.201 370.4C364.561 370.4 358.981 378.68 355.741 389.12H387.241C384.721 382.46 383.461 370.4 373.201 370.4ZM355.201 390.92C352.861 399.56 351.781 409.28 351.781 416.66C351.781 437.18 360.061 455.36 375.001 455.36C388.861 455.36 400.561 442.76 400.561 425.66C400.561 407.3 386.521 390.92 367.801 390.92H355.201ZM491.325 388.76L483.225 393.26C481.965 394.16 480.705 395.06 479.445 395.78C483.045 396.32 490.785 398.84 496.005 404.78C504.285 414.5 505.725 426.02 511.125 446.9C512.385 450.5 514.725 453.38 516.525 456.44L515.445 458.06C511.305 456.08 501.225 455.9 496.365 455.9H478.725V454.46C482.145 455.36 496.905 454.82 496.365 446.18C494.205 418.28 489.345 401.72 477.825 397.22C471.345 402.62 466.485 410 466.125 421.52L465.945 445.28C465.945 445.64 467.745 455.54 467.925 456.44L466.665 457.34C465.765 455.36 445.605 455.18 443.985 455.18V453.56C448.665 454.28 450.465 449.24 450.465 443.66V344.48L441.645 340.16V339.08C447.945 337.82 453.165 334.76 458.565 330.62L479.445 330.44C493.845 330.44 510.225 337.28 510.225 360.14C510.225 374.36 500.145 383.54 491.325 388.76ZM465.945 413.42C473.145 384.62 494.745 398.12 494.745 359.6C494.745 343.94 488.085 332.42 476.925 332.42H465.945V413.42ZM560.982 390.92C576.102 394.16 587.622 407.48 587.622 425.66C587.442 444.74 575.202 457.16 559.542 457.16C537.762 457.16 522.462 439.88 522.462 413.06C522.462 386.06 536.862 368.96 558.822 368.96C565.482 368.96 583.842 377.24 584.022 388.04C582.402 390.38 579.342 393.26 577.002 393.26C575.562 393.26 574.662 392.36 573.942 390.92H560.982ZM559.002 370.4C550.362 370.4 544.782 378.68 541.542 389.12H573.042C570.522 382.46 569.262 370.4 559.002 370.4ZM541.002 390.92C538.662 399.56 537.582 409.28 537.582 416.66C537.582 437.18 545.862 455.36 560.802 455.36C574.662 455.36 586.362 442.76 586.362 425.66C586.362 407.3 572.322 390.92 553.602 390.92H541.002ZM649.269 439.7C678.789 439.7 677.349 494.96 645.849 494.96C637.029 494.96 628.569 485.06 621.549 473.72C617.769 484.52 613.629 494.96 603.729 494.96C579.609 494.96 579.969 448.7 606.069 448.7C614.529 448.7 620.649 453.02 625.149 458.96C628.029 451.4 630.909 444.92 637.029 438.08C633.609 439.52 630.009 440.42 626.229 440.42C610.389 440.42 595.269 426.2 595.269 404.96C595.269 382.46 610.389 369.68 626.229 369.68C629.469 369.68 632.529 370.22 635.409 371.3C639.729 366.98 654.309 357.62 659.709 357.62C661.329 357.62 662.049 358.16 662.949 358.52L663.309 359.78C663.309 359.78 662.049 369.14 658.629 372.56C658.629 372.56 640.269 369.5 639.549 369.86C638.649 370.58 637.929 371.3 637.209 372.02C647.649 376.88 657.369 387.5 657.369 404.96C657.369 420.08 649.629 430.34 641.349 435.56C632.529 445.1 629.469 451.4 626.229 460.4C635.769 473.54 639.009 493.16 645.849 493.16C660.069 493.16 655.389 441.14 648.909 441.14C645.489 441.14 642.609 455.9 640.629 471.74H639.549V441.86C641.169 440.78 645.129 439.7 649.269 439.7ZM624.429 438.8C634.509 440.24 641.169 427.64 642.429 407.3C643.689 386.96 638.649 372.38 628.389 371.12C618.309 369.86 612.009 382.64 610.749 402.8C609.489 423.14 614.169 437.54 624.429 438.8ZM609.849 488.84C615.249 488.84 618.669 477.68 620.649 472.1C616.149 465.08 612.189 450.5 607.329 450.5C597.429 450.5 599.769 488.84 609.849 488.84ZM680.651 359.96C676.151 359.96 672.551 355.1 672.551 349.16C672.551 343.22 676.151 338.36 680.651 338.36C685.151 338.36 688.751 343.22 688.751 349.16C688.751 355.1 685.151 359.96 680.651 359.96ZM688.571 443.66L690.731 456.26L689.651 457.16C689.651 457.16 682.991 455 666.791 455V453.38C666.791 453.38 673.271 455 673.271 443.48V382.82L664.091 378.5C661.391 378.5 658.871 377.78 656.531 376.52L656.711 375.62C659.051 376.88 661.571 377.42 664.271 377.24C672.731 375.44 679.211 370.58 680.471 368.96C681.371 368.06 688.571 370.22 688.571 370.22V443.66ZM766.739 444.02L768.899 456.44L767.639 457.34C767.639 457.34 752.519 455.18 736.139 455.18V453.56C736.139 453.56 751.799 456.44 751.259 445.1V398.66C751.259 398.66 751.979 374 742.079 374C733.079 374 725.879 392.36 725.519 407.3L724.799 402.26C726.419 390.38 731.279 369.14 745.859 369.14C759.899 369.14 766.739 383.54 766.739 398.66V444.02ZM725.519 370.58V444.02L727.679 456.44L726.599 457.34C726.599 457.34 720.119 455.18 703.739 455.18V453.56C703.739 453.56 709.499 455 710.219 445.1V380.48L724.439 369.5C724.979 369.86 725.519 370.58 725.519 370.58ZM725.519 373.28L712.019 384.08L701.219 378.86V377.6C709.679 375.98 721.199 370.94 722.639 369.32C723.539 368.42 724.979 370.04 724.979 370.04L725.519 373.28ZM843.799 441.5L844.699 442.94C838.039 450.32 834.799 456.8 834.799 456.8L833.539 457.16L818.959 450.5V438.62C816.439 449.06 810.679 457.16 799.519 457.16C786.379 457.16 775.039 447.08 775.039 428.9C775.039 406.22 789.259 395.78 802.759 395.78C807.799 395.78 813.559 398.66 816.619 402.62C812.299 393.62 802.399 385.88 791.059 385.88C786.739 384.8 781.519 377.42 781.519 377.42L781.339 376.16C783.139 373.82 783.499 368.96 805.639 368.96C830.659 368.96 834.439 394.88 834.439 394.88V441.68C834.439 445.82 834.259 452.12 835.519 452.12C835.879 452.12 837.679 450.14 839.479 447.98C841.819 445.1 843.799 441.5 843.799 441.5ZM818.959 406.22V394.88C818.959 393.26 818.239 370.76 805.819 370.76C805.099 370.76 795.739 379.22 793.219 383.54C805.459 385.7 815.719 394.88 818.959 406.22ZM818.959 430.88V410.9C816.979 402.8 811.579 398.48 806.539 398.48C796.999 398.48 790.339 411.44 790.339 427.28C790.339 441.14 795.559 453.92 804.739 453.92C813.559 453.92 817.699 440.42 818.959 430.88Z" fill="white"/>
</svg>
