<svg width="330" height="100" viewBox="0 0 330 100" fill="none" xmlns="http://www.w3.org/2000/svg">
<path d="M22 5.48C22 4.875 22 4.38 22 4.05H22.605C22.605 4.6 22.605 8.725 22.605 12.685H22C21.725 7.79 18.04 4.655 14.41 4.655C9.625 4.655 6.6 13.51 6.6 23.74C6.6 34.63 9.57 41.56 14.41 41.56C16.665 41.56 20.35 40.02 22.165 35.84L22.605 36.72C20.68 40.735 17.105 42.385 14.025 42.385C6.49 42.385 1.1 34.63 1.1 23.85C1.1 13.95 5.335 3.83 14.41 3.83C16.72 3.83 18.975 4.71 20.515 6.25C20.955 6.69 21.285 6.965 21.56 6.965C21.89 6.965 22 6.47 22 5.48ZM37.07 4.05L48.895 41.175H51.59V42C46.31 42 46.035 42 40.81 42V41.175H43.23L42.13 37.655C40.04 32.265 32.78 33.09 27.775 33.145L25.135 41.175H27.61V42C24.145 42 25.19 42 21.725 42V41.175H24.31L36.19 4.05H37.07ZM41.25 34.85L34.32 12.63L28.05 32.32C34.32 32.155 38.61 32.21 41.25 34.85ZM73.7554 4.875H61.8204V24.07C62.9754 24.07 66.7154 24.07 72.2704 24.07C73.5354 24.07 74.0304 23.575 74.0304 22.31H74.8554C74.8554 22.86 74.8554 22.86 74.8554 26.82H74.0304V26.545C74.0304 25.5 73.3154 24.895 72.2704 24.895C69.0804 24.895 64.5154 24.895 61.8204 24.895V41.175H64.3504V42C60.8854 42 57.2554 42 53.7904 42V41.175C54.0654 41.175 54.3404 41.175 56.3204 41.175V4.875C55.4954 4.875 54.7254 4.875 53.7904 4.875V4.05H78.3204C78.3204 5.15 78.3204 0.694997 78.3204 8.615H77.4954C77.4954 6.36 76.0104 4.875 73.7554 4.875ZM100.503 4.875H88.5685V22.695C89.7235 22.695 93.4635 22.695 99.0185 22.695C100.283 22.695 100.778 22.2 100.778 20.935H101.603C101.603 21.485 101.603 21.485 101.603 25.445H100.778V25.17C100.778 24.125 100.063 23.52 99.0185 23.52H88.5685V41.175H100.503C102.758 41.175 104.243 39.69 104.243 37.435H105.068C105.068 38.535 105.068 34.08 105.068 42H80.5385V41.175C80.8135 41.175 81.0885 41.175 83.0685 41.175V4.875C82.2435 4.875 81.4735 4.875 80.5385 4.875V4.05H105.068C105.068 5.15 105.068 0.694997 105.068 8.615H104.243C104.243 6.36 102.758 4.875 100.503 4.875ZM1.1 55.05H15.125C21.12 55.05 24.585 59.34 24.585 63.74C24.585 69.57 20.02 72.65 15.07 73.53L20.57 82.495C23.54 87.39 24.915 88.82 25.905 88.82C26.235 88.82 26.565 88.655 26.84 88.38L27.005 88.655C25.905 91.405 24.97 93 22.99 93C21.175 93 20.185 92.23 16.115 85.685L9.13 74.41V92.175H11.66V93C8.195 93 4.565 93 1.1 93V92.175C1.375 92.175 1.65 92.175 3.63 92.175V55.875H1.1V55.05ZM9.13 55.875V72.98C9.955 72.98 11.99 72.98 12.1 72.98C15.29 72.98 19.085 70.12 19.085 63.74C19.085 58.295 15.785 55.875 12.1 55.875H9.13ZM47.7056 55.875H35.7706V73.695C36.9256 73.695 40.6656 73.695 46.2206 73.695C47.4856 73.695 47.9806 73.2 47.9806 71.935H48.8056C48.8056 72.485 48.8056 72.485 48.8056 76.445H47.9806V76.17C47.9806 75.125 47.2656 74.52 46.2206 74.52H35.7706V92.175H47.7056C49.9606 92.175 51.4456 90.69 51.4456 88.435H52.2706C52.2706 89.535 52.2706 85.08 52.2706 93H27.7406V92.175C28.0156 92.175 28.2906 92.175 30.2706 92.175V55.875C29.4456 55.875 28.6756 55.875 27.7406 55.875V55.05H52.2706C52.2706 56.15 52.2706 51.695 52.2706 59.615H51.4456C51.4456 57.36 49.9606 55.875 47.7056 55.875ZM72.6632 89.205C71.2332 91.79 69.6932 93.385 66.3932 93.385C58.8032 93.385 53.4682 85.63 53.4682 74.85C53.4682 64.95 57.7032 54.83 66.8332 54.83C69.0882 54.83 71.3432 55.71 72.8832 57.25C73.3232 57.69 73.6532 57.965 73.9282 57.965C74.2582 57.965 74.3682 57.47 74.3682 56.48C74.3682 55.875 74.3682 55.38 74.3682 55.05H74.9732C74.9732 55.6 74.9732 59.725 74.9732 63.685H74.3682C74.0932 58.79 70.4632 55.655 66.8332 55.655C61.9932 55.655 58.9682 65.555 58.9682 74.85C58.9682 83.98 61.4982 92.56 66.8332 92.56C71.4532 92.56 73.7082 86.015 73.7082 82.22C73.7082 80.9 72.9932 80.02 71.8382 80.02H71.7832V79.195C72.6082 79.195 72.8282 79.195 78.6582 79.195V80.02C77.6682 80.02 76.8982 80.9 76.8982 82.22V93H73.8182V89.37C73.8182 88.215 73.7632 87.72 73.5982 87.72C73.4332 87.72 73.1582 88.27 72.6632 89.205ZM78.9809 92.175C79.4209 92.175 79.2559 92.175 81.5109 92.175V55.875H78.9809V55.05H89.5409V55.875C88.1109 55.875 87.3959 55.875 87.0109 55.875V92.175H89.5409V93H78.9809V92.175ZM91.7641 55.05H100.729L110.464 78.59V55.875H107.934V55.05C109.144 55.05 105.184 55.05 113.819 55.05V55.875H111.289C111.289 60.385 111.289 89.535 111.289 93H110.464L95.1191 55.875V92.175H97.6491V93C93.9091 93 95.8891 93 91.7641 93V92.175H94.2941V55.875H91.7641V55.05ZM128.755 55.05L140.58 92.175H143.275V93C137.995 93 137.72 93 132.495 93V92.175H134.915L133.815 88.655C131.725 83.265 124.465 84.09 119.46 84.145L116.82 92.175H119.295V93C115.83 93 116.875 93 113.41 93V92.175H115.995L127.875 55.05H128.755ZM132.935 85.85L126.005 63.63L119.735 83.32C126.005 83.155 130.295 83.21 132.935 85.85Z" fill="white"/>
<line x1="120" y1="23.5" x2="330" y2="23.5" stroke="white"/>
<path d="M170.856 65.344C170.232 66.472 169.56 67.168 168.12 67.168C164.808 67.168 162.48 63.784 162.48 59.08C162.48 54.76 164.328 50.344 168.312 50.344C169.296 50.344 170.28 50.728 170.952 51.4C171.144 51.592 171.288 51.712 171.408 51.712C171.552 51.712 171.6 51.496 171.6 51.064C171.6 50.8 171.6 50.584 171.6 50.44H171.864C171.864 50.68 171.864 52.48 171.864 54.208H171.6C171.48 52.072 169.896 50.704 168.312 50.704C166.2 50.704 164.88 55.024 164.88 59.08C164.88 63.064 165.984 66.808 168.312 66.808C170.328 66.808 171.312 63.952 171.312 62.296C171.312 61.72 171 61.336 170.496 61.336H170.472V60.976C170.832 60.976 170.928 60.976 173.472 60.976V61.336C173.04 61.336 172.704 61.72 172.704 62.296V67H171.36V65.416C171.36 64.912 171.336 64.696 171.264 64.696C171.192 64.696 171.072 64.936 170.856 65.344ZM175.117 50.44H181.237C183.853 50.44 185.366 52.312 185.366 54.232C185.366 56.776 183.374 58.12 181.214 58.504L183.614 62.416C184.91 64.552 185.51 65.176 185.942 65.176C186.086 65.176 186.23 65.104 186.35 64.984L186.422 65.104C185.942 66.304 185.534 67 184.67 67C183.878 67 183.446 66.664 181.67 63.808L178.622 58.888V66.64H179.726V67C178.213 67 176.629 67 175.117 67V66.64C175.237 66.64 175.357 66.64 176.221 66.64V50.8H175.117V50.44ZM178.622 50.8V58.264C178.982 58.264 179.87 58.264 179.918 58.264C181.31 58.264 182.965 57.016 182.965 54.232C182.965 51.856 181.525 50.8 179.918 50.8H178.622ZM187.216 59.008C187.216 53.848 189.76 50.344 192.904 50.344C196.072 50.344 198.472 53.872 198.472 59.032C198.472 64.192 195.808 67.168 192.856 67.168C189.808 67.168 187.216 64.24 187.216 59.008ZM189.616 59.008C189.616 62.224 190.432 66.808 192.856 66.808C195.28 66.808 196.096 62.2 196.096 59.032C196.096 55.84 195.304 50.704 192.928 50.704C190.504 50.704 189.616 55.84 189.616 59.008ZM206.967 50.8C205.863 50.8 205.599 50.8 205.407 50.8V66.64H206.511V67C204.999 67 203.415 67 201.903 67V66.64C202.023 66.64 202.287 66.64 203.151 66.64V50.8C202.863 50.8 202.599 50.8 201.495 50.8C200.511 50.8 199.815 51.448 199.815 52.432H199.455C199.455 48.976 199.455 50.92 199.455 50.44H208.959C208.959 50.92 208.959 48.976 208.959 52.432H208.599C208.599 51.448 207.951 50.8 206.967 50.8ZM219.82 50.8H214.612V58.576C215.116 58.576 216.748 58.576 219.172 58.576C219.724 58.576 219.94 58.36 219.94 57.808H220.3C220.3 58.048 220.3 58.048 220.3 59.776H219.94V59.656C219.94 59.2 219.628 58.936 219.172 58.936H214.612V66.64H219.82C220.804 66.64 221.452 65.992 221.452 65.008H221.812C221.812 65.488 221.812 63.544 221.812 67H211.108V66.64C211.228 66.64 211.348 66.64 212.212 66.64V50.8C211.852 50.8 211.516 50.8 211.108 50.8V50.44H221.812C221.812 50.92 221.812 48.976 221.812 52.432H221.452C221.452 51.448 220.804 50.8 219.82 50.8ZM231.18 50.44H235.092L238.044 57.544L240.996 50.44H244.524V50.8C243.852 50.8 243.564 50.8 243.42 50.8V66.64H244.524V67H239.916V66.64H241.02V51.304L236.94 61.12L232.644 50.8V66.64H233.748V67C232.116 67 232.98 67 231.18 67V66.64H232.284V50.8C231.972 50.8 232.572 50.8 231.18 50.8V50.44ZM253.373 50.44L258.533 66.64H259.709V67C257.405 67 257.285 67 255.005 67V66.64H256.061L255.581 65.104C254.669 62.752 251.501 63.112 249.317 63.136L248.165 66.64H249.245V67C247.733 67 248.189 67 246.677 67V66.64H247.805L252.989 50.44H253.373ZM255.197 63.88L252.173 54.184L249.437 62.776C252.173 62.704 254.045 62.728 255.197 63.88ZM261.869 50.44H267.989C270.605 50.44 272.117 52.312 272.117 54.232C272.117 56.776 270.125 58.12 267.965 58.504L270.365 62.416C271.661 64.552 272.261 65.176 272.693 65.176C272.837 65.176 272.981 65.104 273.101 64.984L273.173 65.104C272.693 66.304 272.285 67 271.421 67C270.629 67 270.197 66.664 268.421 63.808L265.373 58.888V66.64H266.477V67C264.965 67 263.381 67 261.869 67V66.64C261.989 66.64 262.109 66.64 262.973 66.64V50.8H261.869V50.44ZM265.373 50.8V58.264C265.733 58.264 266.621 58.264 266.669 58.264C268.061 58.264 269.717 57.016 269.717 54.232C269.717 51.856 268.277 50.8 266.669 50.8H265.373ZM275.069 66.64C275.189 66.64 275.309 66.64 276.173 66.64V50.8C275.813 50.8 275.429 50.8 275.069 50.8V50.44C275.549 50.44 276.221 50.44 279.677 50.44V50.8C279.317 50.8 278.957 50.8 278.573 50.8V57.688L283.373 50.8H281.597V50.44C282.077 50.44 282.173 50.44 285.629 50.44V50.8C284.909 50.8 284.333 50.8 283.733 50.8L279.845 56.368L283.565 62.416C284.861 64.552 285.461 65.176 285.893 65.176C286.037 65.176 286.181 65.104 286.301 64.984L286.373 65.104C285.893 66.304 285.485 67 284.621 67C283.829 67 283.397 66.664 281.621 63.808L278.573 58.888V66.64H279.677V67C278.165 67 276.581 67 275.069 67V66.64ZM296.039 50.8C294.935 50.8 294.671 50.8 294.479 50.8V66.64H295.583V67C294.071 67 292.487 67 290.975 67V66.64C291.095 66.64 291.359 66.64 292.223 66.64V50.8C291.935 50.8 291.671 50.8 290.567 50.8C289.583 50.8 288.887 51.448 288.887 52.432H288.527C288.527 48.976 288.527 50.92 288.527 50.44H298.031C298.031 50.92 298.031 48.976 298.031 52.432H297.671C297.671 51.448 297.023 50.8 296.039 50.8ZM311.028 50.44V66.64H312.132V67H307.524V66.64C307.716 66.64 307.644 66.64 308.628 66.64V52.168C308.268 52.264 307.788 52.36 307.38 52.384V52.168C308.796 51.808 309.66 51.16 310.692 50.44H311.028ZM317.635 66.64C320.323 66.64 321.811 63.496 321.811 60.904C321.811 56.752 318.931 55.312 315.667 55.312L317.011 50.464C317.011 50.44 317.011 50.44 317.035 50.44H317.299C317.419 50.44 318.691 50.416 321.451 50.416C322.435 50.416 323.083 49.792 323.083 48.808H323.443C323.443 49.096 323.443 50.68 323.443 52.816H316.699L316.099 54.952C320.347 54.952 324.235 56.344 324.235 60.904C324.235 63.712 322.339 67 317.947 67C315.283 67 314.299 65.2 314.299 63.928C314.299 63.376 314.515 62.92 314.899 62.92C315.043 62.92 315.211 62.968 315.403 63.136C315.187 63.424 315.091 63.808 315.091 64.216C315.091 65.896 316.219 66.64 317.635 66.64ZM327.957 67.264C327.453 67.264 327.117 66.976 327.117 66.472C327.117 66.016 327.453 65.656 327.933 65.656C328.389 65.656 328.725 65.992 328.725 66.448C328.725 67.096 328.413 67.552 328.005 67.96C327.981 67.96 327.885 67.912 327.885 67.864C328.005 67.696 328.197 67.48 328.221 67.24C328.149 67.264 328.053 67.264 327.957 67.264Z" fill="white"/>
<path d="M167.184 76.344C170.568 76.344 172.032 79.536 172.032 83.136C172.032 87.816 170.352 93.168 167.016 93.168C164.904 93.168 164.328 91.92 164.328 91.2C164.328 90.696 164.664 90.408 164.976 90.408C165.144 90.408 165.312 90.48 165.432 90.624C165.072 91.416 165.672 92.808 167.016 92.808C168.864 92.808 169.392 89.976 169.536 87.264C169.032 88.584 167.664 89.136 166.584 89.136C163.992 89.136 162.48 86.352 162.48 82.92C162.48 79.128 164.376 76.344 167.184 76.344ZM167.328 88.512C168.024 88.512 169.536 87.96 169.584 85.8C169.584 84.648 169.56 83.64 169.56 83.016C169.56 79.656 168.84 76.704 167.16 76.704C165.864 76.704 164.88 79.8 164.88 82.944C164.88 86.592 166.128 88.512 167.328 88.512ZM174.203 84.984C174.203 79.824 176.387 76.32 179.051 76.32C181.763 76.32 183.803 79.848 183.803 85.008C183.803 90.168 181.547 93.168 179.027 93.168C176.411 93.168 174.203 90.216 174.203 84.984ZM176.603 84.984C176.603 88.2 177.083 92.808 179.027 92.808C180.947 92.808 181.403 88.176 181.403 85.008C181.403 81.816 180.971 76.68 179.075 76.68C177.131 76.68 176.603 81.816 176.603 84.984ZM190.845 93.168C187.461 93.168 185.997 89.976 185.997 86.376C185.997 81.696 187.677 76.344 191.013 76.344C193.125 76.344 193.701 77.592 193.701 78.312C193.701 78.816 193.365 79.104 193.053 79.104C192.885 79.104 192.717 79.032 192.597 78.888C192.957 78.096 192.357 76.704 191.013 76.704C189.165 76.704 188.637 79.536 188.493 82.248C188.997 80.928 190.365 80.376 191.445 80.376C194.037 80.376 195.549 83.16 195.549 86.592C195.549 90.384 193.653 93.168 190.845 93.168ZM190.869 92.808C192.165 92.808 193.149 89.712 193.149 86.568C193.149 82.92 191.901 81 190.701 81C190.005 81 188.493 81.552 188.445 83.712C188.445 84.864 188.469 85.872 188.469 86.496C188.469 89.856 189.189 92.808 190.869 92.808ZM197.721 84.984C197.721 79.824 199.905 76.32 202.569 76.32C205.281 76.32 207.321 79.848 207.321 85.008C207.321 90.168 205.065 93.168 202.545 93.168C199.929 93.168 197.721 90.216 197.721 84.984ZM200.121 84.984C200.121 88.2 200.601 92.808 202.545 92.808C204.465 92.808 204.921 88.176 204.921 85.008C204.921 81.816 204.489 76.68 202.593 76.68C200.649 76.68 200.121 81.816 200.121 84.984ZM225.042 91.008H225.402C225.402 91.488 225.402 89.544 225.402 93H216.714L223.65 76.8C222.498 76.8 220.53 76.8 218.73 76.8C217.746 76.8 217.098 77.448 217.098 78.432H216.738C216.738 77.952 216.738 79.896 216.738 76.44H225.378L218.442 92.64C219.594 92.64 221.61 92.64 223.41 92.64C224.394 92.64 225.042 91.992 225.042 91.008ZM236.283 76.8H231.075V84.576C231.579 84.576 233.211 84.576 235.635 84.576C236.187 84.576 236.403 84.36 236.403 83.808H236.763C236.763 84.048 236.763 84.048 236.763 85.776H236.403V85.656C236.403 85.2 236.091 84.936 235.635 84.936H231.075V92.64H236.283C237.267 92.64 237.915 91.992 237.915 91.008H238.275C238.275 91.488 238.275 89.544 238.275 93H227.571V92.64C227.691 92.64 227.811 92.64 228.675 92.64V76.8C228.315 76.8 227.979 76.8 227.571 76.8V76.44H238.275C238.275 76.92 238.275 74.976 238.275 78.432H237.915C237.915 77.448 237.267 76.8 236.283 76.8ZM249.011 91.008H249.371C249.371 91.488 249.371 89.544 249.371 93H240.443V92.64C240.635 92.64 240.563 92.64 241.547 92.64V76.8H240.443V76.44H245.051V76.8C244.427 76.8 244.115 76.8 243.947 76.8V92.64C244.859 92.64 245.627 92.64 247.379 92.64C248.363 92.64 249.011 91.992 249.011 91.008ZM259.861 91.008H260.221C260.221 91.488 260.221 89.544 260.221 93H251.533L258.469 76.8C257.317 76.8 255.349 76.8 253.549 76.8C252.565 76.8 251.917 77.448 251.917 78.432H251.557C251.557 77.952 251.557 79.896 251.557 76.44H260.197L253.261 92.64C254.413 92.64 256.429 92.64 258.229 92.64C259.213 92.64 259.861 91.992 259.861 91.008ZM269.085 76.44L274.245 92.64H275.421V93C273.117 93 272.997 93 270.717 93V92.64H271.773L271.293 91.104C270.381 88.752 267.213 89.112 265.029 89.136L263.877 92.64H264.957V93C263.445 93 263.901 93 262.389 93V92.64H263.517L268.701 76.44H269.085ZM270.909 89.88L267.885 80.184L265.149 88.776C267.885 88.704 269.757 88.728 270.909 89.88ZM282.82 76.8C281.716 76.8 281.452 76.8 281.26 76.8V92.64H282.364V93C280.852 93 279.268 93 277.756 93V92.64C277.876 92.64 278.14 92.64 279.004 92.64V76.8C278.716 76.8 278.452 76.8 277.348 76.8C276.364 76.8 275.668 77.448 275.668 78.432H275.308C275.308 74.976 275.308 76.92 275.308 76.44H284.812C284.812 76.92 284.812 74.976 284.812 78.432H284.452C284.452 77.448 283.804 76.8 282.82 76.8ZM295.673 76.8H290.465V84.576C290.969 84.576 292.601 84.576 295.025 84.576C295.577 84.576 295.793 84.36 295.793 83.808H296.153C296.153 84.048 296.153 84.048 296.153 85.776H295.793V85.656C295.793 85.2 295.481 84.936 295.025 84.936H290.465V92.64H295.673C296.657 92.64 297.305 91.992 297.305 91.008H297.665C297.665 91.488 297.665 89.544 297.665 93H286.961V92.64C287.081 92.64 287.201 92.64 288.065 92.64V76.8C287.705 76.8 287.369 76.8 286.961 76.8V76.44H297.665C297.665 76.92 297.665 74.976 297.665 78.432H297.305C297.305 77.448 296.657 76.8 295.673 76.8Z" fill="#969493"/>
</svg>
